<?xml version="1.0" encoding="utf-8" standalone="no"?>
<!DOCTYPE svg PUBLIC "-//W3C//DTD SVG 1.1//EN"
  "http://www.w3.org/Graphics/SVG/1.1/DTD/svg11.dtd">
<svg xmlns:xlink="http://www.w3.org/1999/xlink" width="864pt" height="864pt" viewBox="0 0 864 864" xmlns="http://www.w3.org/2000/svg" version="1.1">
 <metadata>
  <rdf:RDF xmlns:dc="http://purl.org/dc/elements/1.1/" xmlns:cc="http://creativecommons.org/ns#" xmlns:rdf="http://www.w3.org/1999/02/22-rdf-syntax-ns#">
   <cc:Work>
    <dc:type rdf:resource="http://purl.org/dc/dcmitype/StillImage"/>
    <dc:date>2024-11-28T18:43:53.667511</dc:date>
    <dc:format>image/svg+xml</dc:format>
    <dc:creator>
     <cc:Agent>
      <dc:title>Matplotlib v3.6.2, https://matplotlib.org/</dc:title>
     </cc:Agent>
    </dc:creator>
   </cc:Work>
  </rdf:RDF>
 </metadata>
 <defs>
  <style type="text/css">*{stroke-linejoin: round; stroke-linecap: butt}</style>
 </defs>
 <g id="figure_1">
  <g id="patch_1">
   <path d="M 0 864 
L 864 864 
L 864 0 
L 0 0 
z
" style="fill: #ffffff"/>
  </g>
  <g id="axes_1">
   <g id="patch_2">
    <path d="M 318.47 698.98 
L 734.158 698.98 
L 734.158 25.92 
L 318.47 25.92 
z
" style="fill: #eaeaf2"/>
   </g>
   <g id="matplotlib.axis_1">
    <g id="xtick_1">
     <g id="text_1">
      <!-- Weight -->
      <g style="fill: #262626" transform="translate(365.597238 776.563125) rotate(-90) scale(0.22 -0.22)">
       <defs>
        <path id="ArialMT-57" d="M 1294 0 
L 78 4581 
L 700 4581 
L 1397 1578 
Q 1509 1106 1591 641 
Q 1766 1375 1797 1488 
L 2669 4581 
L 3400 4581 
L 4056 2263 
Q 4303 1400 4413 641 
Q 4500 1075 4641 1638 
L 5359 4581 
L 5969 4581 
L 4713 0 
L 4128 0 
L 3163 3491 
Q 3041 3928 3019 4028 
Q 2947 3713 2884 3491 
L 1913 0 
L 1294 0 
z
" transform="scale(0.015625)"/>
        <path id="ArialMT-65" d="M 2694 1069 
L 3275 997 
Q 3138 488 2766 206 
Q 2394 -75 1816 -75 
Q 1088 -75 661 373 
Q 234 822 234 1631 
Q 234 2469 665 2931 
Q 1097 3394 1784 3394 
Q 2450 3394 2872 2941 
Q 3294 2488 3294 1666 
Q 3294 1616 3291 1516 
L 816 1516 
Q 847 969 1125 678 
Q 1403 388 1819 388 
Q 2128 388 2347 550 
Q 2566 713 2694 1069 
z
M 847 1978 
L 2700 1978 
Q 2663 2397 2488 2606 
Q 2219 2931 1791 2931 
Q 1403 2931 1139 2672 
Q 875 2413 847 1978 
z
" transform="scale(0.015625)"/>
        <path id="ArialMT-69" d="M 425 3934 
L 425 4581 
L 988 4581 
L 988 3934 
L 425 3934 
z
M 425 0 
L 425 3319 
L 988 3319 
L 988 0 
L 425 0 
z
" transform="scale(0.015625)"/>
        <path id="ArialMT-67" d="M 319 -275 
L 866 -356 
Q 900 -609 1056 -725 
Q 1266 -881 1628 -881 
Q 2019 -881 2231 -725 
Q 2444 -569 2519 -288 
Q 2563 -116 2559 434 
Q 2191 0 1641 0 
Q 956 0 581 494 
Q 206 988 206 1678 
Q 206 2153 378 2554 
Q 550 2956 876 3175 
Q 1203 3394 1644 3394 
Q 2231 3394 2613 2919 
L 2613 3319 
L 3131 3319 
L 3131 450 
Q 3131 -325 2973 -648 
Q 2816 -972 2473 -1159 
Q 2131 -1347 1631 -1347 
Q 1038 -1347 672 -1080 
Q 306 -813 319 -275 
z
M 784 1719 
Q 784 1066 1043 766 
Q 1303 466 1694 466 
Q 2081 466 2343 764 
Q 2606 1063 2606 1700 
Q 2606 2309 2336 2618 
Q 2066 2928 1684 2928 
Q 1309 2928 1046 2623 
Q 784 2319 784 1719 
z
" transform="scale(0.015625)"/>
        <path id="ArialMT-68" d="M 422 0 
L 422 4581 
L 984 4581 
L 984 2938 
Q 1378 3394 1978 3394 
Q 2347 3394 2619 3248 
Q 2891 3103 3008 2847 
Q 3125 2591 3125 2103 
L 3125 0 
L 2563 0 
L 2563 2103 
Q 2563 2525 2380 2717 
Q 2197 2909 1863 2909 
Q 1613 2909 1392 2779 
Q 1172 2650 1078 2428 
Q 984 2206 984 1816 
L 984 0 
L 422 0 
z
" transform="scale(0.015625)"/>
        <path id="ArialMT-74" d="M 1650 503 
L 1731 6 
Q 1494 -44 1306 -44 
Q 1000 -44 831 53 
Q 663 150 594 308 
Q 525 466 525 972 
L 525 2881 
L 113 2881 
L 113 3319 
L 525 3319 
L 525 4141 
L 1084 4478 
L 1084 3319 
L 1650 3319 
L 1650 2881 
L 1084 2881 
L 1084 941 
Q 1084 700 1114 631 
Q 1144 563 1211 522 
Q 1278 481 1403 481 
Q 1497 481 1650 503 
z
" transform="scale(0.015625)"/>
       </defs>
       <use xlink:href="#ArialMT-57"/>
       <use xlink:href="#ArialMT-65" x="92.634766"/>
       <use xlink:href="#ArialMT-69" x="148.25"/>
       <use xlink:href="#ArialMT-67" x="170.466797"/>
       <use xlink:href="#ArialMT-68" x="226.082031"/>
       <use xlink:href="#ArialMT-74" x="281.697266"/>
      </g>
     </g>
    </g>
    <g id="xtick_2">
     <g id="text_2">
      <!-- Size -->
      <g style="fill: #262626" transform="translate(448.863744 751.276875) rotate(-90) scale(0.22 -0.22)">
       <defs>
        <path id="ArialMT-53" d="M 288 1472 
L 859 1522 
Q 900 1178 1048 958 
Q 1197 738 1509 602 
Q 1822 466 2213 466 
Q 2559 466 2825 569 
Q 3091 672 3220 851 
Q 3350 1031 3350 1244 
Q 3350 1459 3225 1620 
Q 3100 1781 2813 1891 
Q 2628 1963 1997 2114 
Q 1366 2266 1113 2400 
Q 784 2572 623 2826 
Q 463 3081 463 3397 
Q 463 3744 659 4045 
Q 856 4347 1234 4503 
Q 1613 4659 2075 4659 
Q 2584 4659 2973 4495 
Q 3363 4331 3572 4012 
Q 3781 3694 3797 3291 
L 3216 3247 
Q 3169 3681 2898 3903 
Q 2628 4125 2100 4125 
Q 1550 4125 1298 3923 
Q 1047 3722 1047 3438 
Q 1047 3191 1225 3031 
Q 1400 2872 2139 2705 
Q 2878 2538 3153 2413 
Q 3553 2228 3743 1945 
Q 3934 1663 3934 1294 
Q 3934 928 3725 604 
Q 3516 281 3123 101 
Q 2731 -78 2241 -78 
Q 1619 -78 1198 103 
Q 778 284 539 648 
Q 300 1013 288 1472 
z
" transform="scale(0.015625)"/>
        <path id="ArialMT-7a" d="M 125 0 
L 125 456 
L 2238 2881 
Q 1878 2863 1603 2863 
L 250 2863 
L 250 3319 
L 2963 3319 
L 2963 2947 
L 1166 841 
L 819 456 
Q 1197 484 1528 484 
L 3063 484 
L 3063 0 
L 125 0 
z
" transform="scale(0.015625)"/>
       </defs>
       <use xlink:href="#ArialMT-53"/>
       <use xlink:href="#ArialMT-69" x="66.699219"/>
       <use xlink:href="#ArialMT-7a" x="88.916016"/>
       <use xlink:href="#ArialMT-65" x="138.916016"/>
      </g>
     </g>
    </g>
    <g id="xtick_3">
     <g id="text_3">
      <!-- Hardness -->
      <g style="fill: #262626" transform="translate(532.001344 802.629687) rotate(-90) scale(0.22 -0.22)">
       <defs>
        <path id="ArialMT-48" d="M 513 0 
L 513 4581 
L 1119 4581 
L 1119 2700 
L 3500 2700 
L 3500 4581 
L 4106 4581 
L 4106 0 
L 3500 0 
L 3500 2159 
L 1119 2159 
L 1119 0 
L 513 0 
z
" transform="scale(0.015625)"/>
        <path id="ArialMT-61" d="M 2588 409 
Q 2275 144 1986 34 
Q 1697 -75 1366 -75 
Q 819 -75 525 192 
Q 231 459 231 875 
Q 231 1119 342 1320 
Q 453 1522 633 1644 
Q 813 1766 1038 1828 
Q 1203 1872 1538 1913 
Q 2219 1994 2541 2106 
Q 2544 2222 2544 2253 
Q 2544 2597 2384 2738 
Q 2169 2928 1744 2928 
Q 1347 2928 1158 2789 
Q 969 2650 878 2297 
L 328 2372 
Q 403 2725 575 2942 
Q 747 3159 1072 3276 
Q 1397 3394 1825 3394 
Q 2250 3394 2515 3294 
Q 2781 3194 2906 3042 
Q 3031 2891 3081 2659 
Q 3109 2516 3109 2141 
L 3109 1391 
Q 3109 606 3145 398 
Q 3181 191 3288 0 
L 2700 0 
Q 2613 175 2588 409 
z
M 2541 1666 
Q 2234 1541 1622 1453 
Q 1275 1403 1131 1340 
Q 988 1278 909 1158 
Q 831 1038 831 891 
Q 831 666 1001 516 
Q 1172 366 1500 366 
Q 1825 366 2078 508 
Q 2331 650 2450 897 
Q 2541 1088 2541 1459 
L 2541 1666 
z
" transform="scale(0.015625)"/>
        <path id="ArialMT-72" d="M 416 0 
L 416 3319 
L 922 3319 
L 922 2816 
Q 1116 3169 1280 3281 
Q 1444 3394 1641 3394 
Q 1925 3394 2219 3213 
L 2025 2691 
Q 1819 2813 1613 2813 
Q 1428 2813 1281 2702 
Q 1134 2591 1072 2394 
Q 978 2094 978 1738 
L 978 0 
L 416 0 
z
" transform="scale(0.015625)"/>
        <path id="ArialMT-64" d="M 2575 0 
L 2575 419 
Q 2259 -75 1647 -75 
Q 1250 -75 917 144 
Q 584 363 401 755 
Q 219 1147 219 1656 
Q 219 2153 384 2558 
Q 550 2963 881 3178 
Q 1213 3394 1622 3394 
Q 1922 3394 2156 3267 
Q 2391 3141 2538 2938 
L 2538 4581 
L 3097 4581 
L 3097 0 
L 2575 0 
z
M 797 1656 
Q 797 1019 1065 703 
Q 1334 388 1700 388 
Q 2069 388 2326 689 
Q 2584 991 2584 1609 
Q 2584 2291 2321 2609 
Q 2059 2928 1675 2928 
Q 1300 2928 1048 2622 
Q 797 2316 797 1656 
z
" transform="scale(0.015625)"/>
        <path id="ArialMT-6e" d="M 422 0 
L 422 3319 
L 928 3319 
L 928 2847 
Q 1294 3394 1984 3394 
Q 2284 3394 2536 3286 
Q 2788 3178 2913 3003 
Q 3038 2828 3088 2588 
Q 3119 2431 3119 2041 
L 3119 0 
L 2556 0 
L 2556 2019 
Q 2556 2363 2490 2533 
Q 2425 2703 2258 2804 
Q 2091 2906 1866 2906 
Q 1506 2906 1245 2678 
Q 984 2450 984 1813 
L 984 0 
L 422 0 
z
" transform="scale(0.015625)"/>
        <path id="ArialMT-73" d="M 197 991 
L 753 1078 
Q 800 744 1014 566 
Q 1228 388 1613 388 
Q 2000 388 2187 545 
Q 2375 703 2375 916 
Q 2375 1106 2209 1216 
Q 2094 1291 1634 1406 
Q 1016 1563 777 1677 
Q 538 1791 414 1992 
Q 291 2194 291 2438 
Q 291 2659 392 2848 
Q 494 3038 669 3163 
Q 800 3259 1026 3326 
Q 1253 3394 1513 3394 
Q 1903 3394 2198 3281 
Q 2494 3169 2634 2976 
Q 2775 2784 2828 2463 
L 2278 2388 
Q 2241 2644 2061 2787 
Q 1881 2931 1553 2931 
Q 1166 2931 1000 2803 
Q 834 2675 834 2503 
Q 834 2394 903 2306 
Q 972 2216 1119 2156 
Q 1203 2125 1616 2013 
Q 2213 1853 2448 1751 
Q 2684 1650 2818 1456 
Q 2953 1263 2953 975 
Q 2953 694 2789 445 
Q 2625 197 2315 61 
Q 2006 -75 1616 -75 
Q 969 -75 630 194 
Q 291 463 197 991 
z
" transform="scale(0.015625)"/>
       </defs>
       <use xlink:href="#ArialMT-48"/>
       <use xlink:href="#ArialMT-61" x="72.216797"/>
       <use xlink:href="#ArialMT-72" x="127.832031"/>
       <use xlink:href="#ArialMT-64" x="161.132812"/>
       <use xlink:href="#ArialMT-6e" x="216.748047"/>
       <use xlink:href="#ArialMT-65" x="272.363281"/>
       <use xlink:href="#ArialMT-73" x="327.978516"/>
       <use xlink:href="#ArialMT-73" x="377.978516"/>
      </g>
     </g>
    </g>
    <g id="xtick_4">
     <g id="text_4">
      <!-- Global shape -->
      <g style="fill: #262626" transform="translate(615.273006 838.118438) rotate(-90) scale(0.22 -0.22)">
       <defs>
        <path id="ArialMT-47" d="M 2638 1797 
L 2638 2334 
L 4578 2338 
L 4578 638 
Q 4131 281 3656 101 
Q 3181 -78 2681 -78 
Q 2006 -78 1454 211 
Q 903 500 622 1047 
Q 341 1594 341 2269 
Q 341 2938 620 3517 
Q 900 4097 1425 4378 
Q 1950 4659 2634 4659 
Q 3131 4659 3532 4498 
Q 3934 4338 4162 4050 
Q 4391 3763 4509 3300 
L 3963 3150 
Q 3859 3500 3706 3700 
Q 3553 3900 3268 4020 
Q 2984 4141 2638 4141 
Q 2222 4141 1919 4014 
Q 1616 3888 1430 3681 
Q 1244 3475 1141 3228 
Q 966 2803 966 2306 
Q 966 1694 1177 1281 
Q 1388 869 1791 669 
Q 2194 469 2647 469 
Q 3041 469 3416 620 
Q 3791 772 3984 944 
L 3984 1797 
L 2638 1797 
z
" transform="scale(0.015625)"/>
        <path id="ArialMT-6c" d="M 409 0 
L 409 4581 
L 972 4581 
L 972 0 
L 409 0 
z
" transform="scale(0.015625)"/>
        <path id="ArialMT-6f" d="M 213 1659 
Q 213 2581 725 3025 
Q 1153 3394 1769 3394 
Q 2453 3394 2887 2945 
Q 3322 2497 3322 1706 
Q 3322 1066 3130 698 
Q 2938 331 2570 128 
Q 2203 -75 1769 -75 
Q 1072 -75 642 372 
Q 213 819 213 1659 
z
M 791 1659 
Q 791 1022 1069 705 
Q 1347 388 1769 388 
Q 2188 388 2466 706 
Q 2744 1025 2744 1678 
Q 2744 2294 2464 2611 
Q 2184 2928 1769 2928 
Q 1347 2928 1069 2612 
Q 791 2297 791 1659 
z
" transform="scale(0.015625)"/>
        <path id="ArialMT-62" d="M 941 0 
L 419 0 
L 419 4581 
L 981 4581 
L 981 2947 
Q 1338 3394 1891 3394 
Q 2197 3394 2470 3270 
Q 2744 3147 2920 2923 
Q 3097 2700 3197 2384 
Q 3297 2069 3297 1709 
Q 3297 856 2875 390 
Q 2453 -75 1863 -75 
Q 1275 -75 941 416 
L 941 0 
z
M 934 1684 
Q 934 1088 1097 822 
Q 1363 388 1816 388 
Q 2184 388 2453 708 
Q 2722 1028 2722 1663 
Q 2722 2313 2464 2622 
Q 2206 2931 1841 2931 
Q 1472 2931 1203 2611 
Q 934 2291 934 1684 
z
" transform="scale(0.015625)"/>
        <path id="ArialMT-20" transform="scale(0.015625)"/>
        <path id="ArialMT-70" d="M 422 -1272 
L 422 3319 
L 934 3319 
L 934 2888 
Q 1116 3141 1344 3267 
Q 1572 3394 1897 3394 
Q 2322 3394 2647 3175 
Q 2972 2956 3137 2557 
Q 3303 2159 3303 1684 
Q 3303 1175 3120 767 
Q 2938 359 2589 142 
Q 2241 -75 1856 -75 
Q 1575 -75 1351 44 
Q 1128 163 984 344 
L 984 -1272 
L 422 -1272 
z
M 931 1641 
Q 931 1000 1190 694 
Q 1450 388 1819 388 
Q 2194 388 2461 705 
Q 2728 1022 2728 1688 
Q 2728 2322 2467 2637 
Q 2206 2953 1844 2953 
Q 1484 2953 1207 2617 
Q 931 2281 931 1641 
z
" transform="scale(0.015625)"/>
       </defs>
       <use xlink:href="#ArialMT-47"/>
       <use xlink:href="#ArialMT-6c" x="77.783203"/>
       <use xlink:href="#ArialMT-6f" x="100"/>
       <use xlink:href="#ArialMT-62" x="155.615234"/>
       <use xlink:href="#ArialMT-61" x="211.230469"/>
       <use xlink:href="#ArialMT-6c" x="266.845703"/>
       <use xlink:href="#ArialMT-20" x="289.0625"/>
       <use xlink:href="#ArialMT-73" x="316.845703"/>
       <use xlink:href="#ArialMT-68" x="366.845703"/>
       <use xlink:href="#ArialMT-61" x="422.460938"/>
       <use xlink:href="#ArialMT-70" x="478.076172"/>
       <use xlink:href="#ArialMT-65" x="533.691406"/>
      </g>
     </g>
    </g>
    <g id="xtick_5">
     <g id="text_5">
      <!-- Local Shape -->
      <g style="fill: #262626" transform="translate(698.410606 830.793125) rotate(-90) scale(0.22 -0.22)">
       <defs>
        <path id="ArialMT-4c" d="M 469 0 
L 469 4581 
L 1075 4581 
L 1075 541 
L 3331 541 
L 3331 0 
L 469 0 
z
" transform="scale(0.015625)"/>
        <path id="ArialMT-63" d="M 2588 1216 
L 3141 1144 
Q 3050 572 2676 248 
Q 2303 -75 1759 -75 
Q 1078 -75 664 370 
Q 250 816 250 1647 
Q 250 2184 428 2587 
Q 606 2991 970 3192 
Q 1334 3394 1763 3394 
Q 2303 3394 2647 3120 
Q 2991 2847 3088 2344 
L 2541 2259 
Q 2463 2594 2264 2762 
Q 2066 2931 1784 2931 
Q 1359 2931 1093 2626 
Q 828 2322 828 1663 
Q 828 994 1084 691 
Q 1341 388 1753 388 
Q 2084 388 2306 591 
Q 2528 794 2588 1216 
z
" transform="scale(0.015625)"/>
       </defs>
       <use xlink:href="#ArialMT-4c"/>
       <use xlink:href="#ArialMT-6f" x="55.615234"/>
       <use xlink:href="#ArialMT-63" x="111.230469"/>
       <use xlink:href="#ArialMT-61" x="161.230469"/>
       <use xlink:href="#ArialMT-6c" x="216.845703"/>
       <use xlink:href="#ArialMT-20" x="239.0625"/>
       <use xlink:href="#ArialMT-53" x="266.845703"/>
       <use xlink:href="#ArialMT-68" x="333.544922"/>
       <use xlink:href="#ArialMT-61" x="389.160156"/>
       <use xlink:href="#ArialMT-70" x="444.775391"/>
       <use xlink:href="#ArialMT-65" x="500.390625"/>
      </g>
     </g>
    </g>
   </g>
   <g id="matplotlib.axis_2">
    <g id="ytick_1">
     <g id="text_6">
      <!-- Fork - Knife -->
      <g style="fill: #262626" transform="translate(195.281563 48.433844) scale(0.22 -0.22)">
       <defs>
        <path id="ArialMT-46" d="M 525 0 
L 525 4581 
L 3616 4581 
L 3616 4041 
L 1131 4041 
L 1131 2622 
L 3281 2622 
L 3281 2081 
L 1131 2081 
L 1131 0 
L 525 0 
z
" transform="scale(0.015625)"/>
        <path id="ArialMT-6b" d="M 425 0 
L 425 4581 
L 988 4581 
L 988 1969 
L 2319 3319 
L 3047 3319 
L 1778 2088 
L 3175 0 
L 2481 0 
L 1384 1697 
L 988 1316 
L 988 0 
L 425 0 
z
" transform="scale(0.015625)"/>
        <path id="ArialMT-2d" d="M 203 1375 
L 203 1941 
L 1931 1941 
L 1931 1375 
L 203 1375 
z
" transform="scale(0.015625)"/>
        <path id="ArialMT-4b" d="M 469 0 
L 469 4581 
L 1075 4581 
L 1075 2309 
L 3350 4581 
L 4172 4581 
L 2250 2725 
L 4256 0 
L 3456 0 
L 1825 2319 
L 1075 1588 
L 1075 0 
L 469 0 
z
" transform="scale(0.015625)"/>
        <path id="ArialMT-66" d="M 556 0 
L 556 2881 
L 59 2881 
L 59 3319 
L 556 3319 
L 556 3672 
Q 556 4006 616 4169 
Q 697 4388 901 4523 
Q 1106 4659 1475 4659 
Q 1713 4659 2000 4603 
L 1916 4113 
Q 1741 4144 1584 4144 
Q 1328 4144 1222 4034 
Q 1116 3925 1116 3625 
L 1116 3319 
L 1763 3319 
L 1763 2881 
L 1116 2881 
L 1116 0 
L 556 0 
z
" transform="scale(0.015625)"/>
       </defs>
       <use xlink:href="#ArialMT-46"/>
       <use xlink:href="#ArialMT-6f" x="61.083984"/>
       <use xlink:href="#ArialMT-72" x="116.699219"/>
       <use xlink:href="#ArialMT-6b" x="150"/>
       <use xlink:href="#ArialMT-20" x="200"/>
       <use xlink:href="#ArialMT-2d" x="227.783203"/>
       <use xlink:href="#ArialMT-20" x="261.083984"/>
       <use xlink:href="#ArialMT-4b" x="288.867188"/>
       <use xlink:href="#ArialMT-6e" x="355.566406"/>
       <use xlink:href="#ArialMT-69" x="411.181641"/>
       <use xlink:href="#ArialMT-66" x="433.398438"/>
       <use xlink:href="#ArialMT-65" x="461.181641"/>
      </g>
     </g>
    </g>
    <g id="ytick_2">
     <g id="text_7">
      <!-- Fork - Spoon -->
      <g style="fill: #262626" transform="translate(181.813438 82.220906) scale(0.22 -0.22)">
       <use xlink:href="#ArialMT-46"/>
       <use xlink:href="#ArialMT-6f" x="61.083984"/>
       <use xlink:href="#ArialMT-72" x="116.699219"/>
       <use xlink:href="#ArialMT-6b" x="150"/>
       <use xlink:href="#ArialMT-20" x="200"/>
       <use xlink:href="#ArialMT-2d" x="227.783203"/>
       <use xlink:href="#ArialMT-20" x="261.083984"/>
       <use xlink:href="#ArialMT-53" x="288.867188"/>
       <use xlink:href="#ArialMT-70" x="355.566406"/>
       <use xlink:href="#ArialMT-6f" x="411.181641"/>
       <use xlink:href="#ArialMT-6f" x="466.796875"/>
       <use xlink:href="#ArialMT-6e" x="522.412109"/>
      </g>
     </g>
    </g>
    <g id="ytick_3">
     <g id="text_8">
      <!-- Knife - Spoon -->
      <g style="fill: #262626" transform="translate(175.667188 115.873906) scale(0.22 -0.22)">
       <use xlink:href="#ArialMT-4b"/>
       <use xlink:href="#ArialMT-6e" x="66.699219"/>
       <use xlink:href="#ArialMT-69" x="122.314453"/>
       <use xlink:href="#ArialMT-66" x="144.53125"/>
       <use xlink:href="#ArialMT-65" x="172.314453"/>
       <use xlink:href="#ArialMT-20" x="227.929688"/>
       <use xlink:href="#ArialMT-2d" x="255.712891"/>
       <use xlink:href="#ArialMT-20" x="289.013672"/>
       <use xlink:href="#ArialMT-53" x="316.796875"/>
       <use xlink:href="#ArialMT-70" x="383.496094"/>
       <use xlink:href="#ArialMT-6f" x="439.111328"/>
       <use xlink:href="#ArialMT-6f" x="494.726562"/>
       <use xlink:href="#ArialMT-6e" x="550.341797"/>
      </g>
     </g>
    </g>
    <g id="ytick_4">
     <g id="text_9">
      <!-- $\mathbf{Cutlery}$ -->
      <g style="fill: #262626" transform="translate(218.99 149.6455) scale(0.22 -0.22)">
       <defs>
        <path id="DejaVuSans-Bold-43" d="M 4288 256 
Q 3956 84 3597 -3 
Q 3238 -91 2847 -91 
Q 1681 -91 1000 561 
Q 319 1213 319 2328 
Q 319 3447 1000 4098 
Q 1681 4750 2847 4750 
Q 3238 4750 3597 4662 
Q 3956 4575 4288 4403 
L 4288 3438 
Q 3953 3666 3628 3772 
Q 3303 3878 2944 3878 
Q 2300 3878 1931 3465 
Q 1563 3053 1563 2328 
Q 1563 1606 1931 1193 
Q 2300 781 2944 781 
Q 3303 781 3628 887 
Q 3953 994 4288 1222 
L 4288 256 
z
" transform="scale(0.015625)"/>
        <path id="DejaVuSans-Bold-75" d="M 500 1363 
L 500 3500 
L 1625 3500 
L 1625 3150 
Q 1625 2866 1622 2436 
Q 1619 2006 1619 1863 
Q 1619 1441 1641 1255 
Q 1663 1069 1716 984 
Q 1784 875 1895 815 
Q 2006 756 2150 756 
Q 2500 756 2700 1025 
Q 2900 1294 2900 1772 
L 2900 3500 
L 4019 3500 
L 4019 0 
L 2900 0 
L 2900 506 
Q 2647 200 2364 54 
Q 2081 -91 1741 -91 
Q 1134 -91 817 281 
Q 500 653 500 1363 
z
" transform="scale(0.015625)"/>
        <path id="DejaVuSans-Bold-74" d="M 1759 4494 
L 1759 3500 
L 2913 3500 
L 2913 2700 
L 1759 2700 
L 1759 1216 
Q 1759 972 1856 886 
Q 1953 800 2241 800 
L 2816 800 
L 2816 0 
L 1856 0 
Q 1194 0 917 276 
Q 641 553 641 1216 
L 641 2700 
L 84 2700 
L 84 3500 
L 641 3500 
L 641 4494 
L 1759 4494 
z
" transform="scale(0.015625)"/>
        <path id="DejaVuSans-Bold-6c" d="M 538 4863 
L 1656 4863 
L 1656 0 
L 538 0 
L 538 4863 
z
" transform="scale(0.015625)"/>
        <path id="DejaVuSans-Bold-65" d="M 4031 1759 
L 4031 1441 
L 1416 1441 
Q 1456 1047 1700 850 
Q 1944 653 2381 653 
Q 2734 653 3104 758 
Q 3475 863 3866 1075 
L 3866 213 
Q 3469 63 3072 -14 
Q 2675 -91 2278 -91 
Q 1328 -91 801 392 
Q 275 875 275 1747 
Q 275 2603 792 3093 
Q 1309 3584 2216 3584 
Q 3041 3584 3536 3087 
Q 4031 2591 4031 1759 
z
M 2881 2131 
Q 2881 2450 2695 2645 
Q 2509 2841 2209 2841 
Q 1884 2841 1681 2658 
Q 1478 2475 1428 2131 
L 2881 2131 
z
" transform="scale(0.015625)"/>
        <path id="DejaVuSans-Bold-72" d="M 3138 2547 
Q 2991 2616 2845 2648 
Q 2700 2681 2553 2681 
Q 2122 2681 1889 2404 
Q 1656 2128 1656 1613 
L 1656 0 
L 538 0 
L 538 3500 
L 1656 3500 
L 1656 2925 
Q 1872 3269 2151 3426 
Q 2431 3584 2822 3584 
Q 2878 3584 2943 3579 
Q 3009 3575 3134 3559 
L 3138 2547 
z
" transform="scale(0.015625)"/>
        <path id="DejaVuSans-Bold-79" d="M 78 3500 
L 1197 3500 
L 2138 1125 
L 2938 3500 
L 4056 3500 
L 2584 -331 
Q 2363 -916 2067 -1148 
Q 1772 -1381 1288 -1381 
L 641 -1381 
L 641 -647 
L 991 -647 
Q 1275 -647 1404 -556 
Q 1534 -466 1606 -231 
L 1638 -134 
L 78 3500 
z
" transform="scale(0.015625)"/>
       </defs>
       <use xlink:href="#DejaVuSans-Bold-43" transform="translate(0 0.015625)"/>
       <use xlink:href="#DejaVuSans-Bold-75" transform="translate(73.388672 0.015625)"/>
       <use xlink:href="#DejaVuSans-Bold-74" transform="translate(144.580078 0.015625)"/>
       <use xlink:href="#DejaVuSans-Bold-6c" transform="translate(192.382812 0.015625)"/>
       <use xlink:href="#DejaVuSans-Bold-65" transform="translate(226.660156 0.015625)"/>
       <use xlink:href="#DejaVuSans-Bold-72" transform="translate(294.482422 0.015625)"/>
       <use xlink:href="#DejaVuSans-Bold-79" transform="translate(343.798828 0.015625)"/>
      </g>
     </g>
    </g>
    <g id="ytick_5">
     <g id="text_10">
      <!-- Ceramic Mug - Glass -->
      <g style="fill: #262626" transform="translate(102.386563 183.051) scale(0.22 -0.22)">
       <defs>
        <path id="ArialMT-43" d="M 3763 1606 
L 4369 1453 
Q 4178 706 3683 314 
Q 3188 -78 2472 -78 
Q 1731 -78 1267 223 
Q 803 525 561 1097 
Q 319 1669 319 2325 
Q 319 3041 592 3573 
Q 866 4106 1370 4382 
Q 1875 4659 2481 4659 
Q 3169 4659 3637 4309 
Q 4106 3959 4291 3325 
L 3694 3184 
Q 3534 3684 3231 3912 
Q 2928 4141 2469 4141 
Q 1941 4141 1586 3887 
Q 1231 3634 1087 3207 
Q 944 2781 944 2328 
Q 944 1744 1114 1308 
Q 1284 872 1643 656 
Q 2003 441 2422 441 
Q 2931 441 3284 734 
Q 3638 1028 3763 1606 
z
" transform="scale(0.015625)"/>
        <path id="ArialMT-6d" d="M 422 0 
L 422 3319 
L 925 3319 
L 925 2853 
Q 1081 3097 1340 3245 
Q 1600 3394 1931 3394 
Q 2300 3394 2536 3241 
Q 2772 3088 2869 2813 
Q 3263 3394 3894 3394 
Q 4388 3394 4653 3120 
Q 4919 2847 4919 2278 
L 4919 0 
L 4359 0 
L 4359 2091 
Q 4359 2428 4304 2576 
Q 4250 2725 4106 2815 
Q 3963 2906 3769 2906 
Q 3419 2906 3187 2673 
Q 2956 2441 2956 1928 
L 2956 0 
L 2394 0 
L 2394 2156 
Q 2394 2531 2256 2718 
Q 2119 2906 1806 2906 
Q 1569 2906 1367 2781 
Q 1166 2656 1075 2415 
Q 984 2175 984 1722 
L 984 0 
L 422 0 
z
" transform="scale(0.015625)"/>
        <path id="ArialMT-4d" d="M 475 0 
L 475 4581 
L 1388 4581 
L 2472 1338 
Q 2622 884 2691 659 
Q 2769 909 2934 1394 
L 4031 4581 
L 4847 4581 
L 4847 0 
L 4263 0 
L 4263 3834 
L 2931 0 
L 2384 0 
L 1059 3900 
L 1059 0 
L 475 0 
z
" transform="scale(0.015625)"/>
        <path id="ArialMT-75" d="M 2597 0 
L 2597 488 
Q 2209 -75 1544 -75 
Q 1250 -75 995 37 
Q 741 150 617 320 
Q 494 491 444 738 
Q 409 903 409 1263 
L 409 3319 
L 972 3319 
L 972 1478 
Q 972 1038 1006 884 
Q 1059 663 1231 536 
Q 1403 409 1656 409 
Q 1909 409 2131 539 
Q 2353 669 2445 892 
Q 2538 1116 2538 1541 
L 2538 3319 
L 3100 3319 
L 3100 0 
L 2597 0 
z
" transform="scale(0.015625)"/>
       </defs>
       <use xlink:href="#ArialMT-43"/>
       <use xlink:href="#ArialMT-65" x="72.216797"/>
       <use xlink:href="#ArialMT-72" x="127.832031"/>
       <use xlink:href="#ArialMT-61" x="161.132812"/>
       <use xlink:href="#ArialMT-6d" x="216.748047"/>
       <use xlink:href="#ArialMT-69" x="300.048828"/>
       <use xlink:href="#ArialMT-63" x="322.265625"/>
       <use xlink:href="#ArialMT-20" x="372.265625"/>
       <use xlink:href="#ArialMT-4d" x="400.048828"/>
       <use xlink:href="#ArialMT-75" x="483.349609"/>
       <use xlink:href="#ArialMT-67" x="538.964844"/>
       <use xlink:href="#ArialMT-20" x="594.580078"/>
       <use xlink:href="#ArialMT-2d" x="622.363281"/>
       <use xlink:href="#ArialMT-20" x="655.664062"/>
       <use xlink:href="#ArialMT-47" x="683.447266"/>
       <use xlink:href="#ArialMT-6c" x="761.230469"/>
       <use xlink:href="#ArialMT-61" x="783.447266"/>
       <use xlink:href="#ArialMT-73" x="839.0625"/>
       <use xlink:href="#ArialMT-73" x="889.0625"/>
      </g>
     </g>
    </g>
    <g id="ytick_6">
     <g id="text_11">
      <!-- Ceramic Mug - Metal Mug -->
      <g style="fill: #262626" transform="translate(55.921875 216.704) scale(0.22 -0.22)">
       <use xlink:href="#ArialMT-43"/>
       <use xlink:href="#ArialMT-65" x="72.216797"/>
       <use xlink:href="#ArialMT-72" x="127.832031"/>
       <use xlink:href="#ArialMT-61" x="161.132812"/>
       <use xlink:href="#ArialMT-6d" x="216.748047"/>
       <use xlink:href="#ArialMT-69" x="300.048828"/>
       <use xlink:href="#ArialMT-63" x="322.265625"/>
       <use xlink:href="#ArialMT-20" x="372.265625"/>
       <use xlink:href="#ArialMT-4d" x="400.048828"/>
       <use xlink:href="#ArialMT-75" x="483.349609"/>
       <use xlink:href="#ArialMT-67" x="538.964844"/>
       <use xlink:href="#ArialMT-20" x="594.580078"/>
       <use xlink:href="#ArialMT-2d" x="622.363281"/>
       <use xlink:href="#ArialMT-20" x="655.664062"/>
       <use xlink:href="#ArialMT-4d" x="683.447266"/>
       <use xlink:href="#ArialMT-65" x="766.748047"/>
       <use xlink:href="#ArialMT-74" x="822.363281"/>
       <use xlink:href="#ArialMT-61" x="850.146484"/>
       <use xlink:href="#ArialMT-6c" x="905.761719"/>
       <use xlink:href="#ArialMT-20" x="927.978516"/>
       <use xlink:href="#ArialMT-4d" x="955.761719"/>
       <use xlink:href="#ArialMT-75" x="1039.0625"/>
       <use xlink:href="#ArialMT-67" x="1094.677734"/>
      </g>
     </g>
    </g>
    <g id="ytick_7">
     <g id="text_12">
      <!-- Glass - Metal Mug -->
      <g style="fill: #262626" transform="translate(130.488125 250.357) scale(0.22 -0.22)">
       <use xlink:href="#ArialMT-47"/>
       <use xlink:href="#ArialMT-6c" x="77.783203"/>
       <use xlink:href="#ArialMT-61" x="100"/>
       <use xlink:href="#ArialMT-73" x="155.615234"/>
       <use xlink:href="#ArialMT-73" x="205.615234"/>
       <use xlink:href="#ArialMT-20" x="255.615234"/>
       <use xlink:href="#ArialMT-2d" x="283.398438"/>
       <use xlink:href="#ArialMT-20" x="316.699219"/>
       <use xlink:href="#ArialMT-4d" x="344.482422"/>
       <use xlink:href="#ArialMT-65" x="427.783203"/>
       <use xlink:href="#ArialMT-74" x="483.398438"/>
       <use xlink:href="#ArialMT-61" x="511.181641"/>
       <use xlink:href="#ArialMT-6c" x="566.796875"/>
       <use xlink:href="#ArialMT-20" x="589.013672"/>
       <use xlink:href="#ArialMT-4d" x="616.796875"/>
       <use xlink:href="#ArialMT-75" x="700.097656"/>
       <use xlink:href="#ArialMT-67" x="755.712891"/>
      </g>
     </g>
    </g>
    <g id="ytick_8">
     <g id="text_13">
      <!-- $\mathbf{Vessels}$ -->
      <g style="fill: #262626" transform="translate(215.25 284.004844) scale(0.22 -0.22)">
       <defs>
        <path id="DejaVuSans-Bold-56" d="M 31 4666 
L 1241 4666 
L 2478 1222 
L 3713 4666 
L 4922 4666 
L 3194 0 
L 1759 0 
L 31 4666 
z
" transform="scale(0.015625)"/>
        <path id="DejaVuSans-Bold-73" d="M 3272 3391 
L 3272 2541 
Q 2913 2691 2578 2766 
Q 2244 2841 1947 2841 
Q 1628 2841 1473 2761 
Q 1319 2681 1319 2516 
Q 1319 2381 1436 2309 
Q 1553 2238 1856 2203 
L 2053 2175 
Q 2913 2066 3209 1816 
Q 3506 1566 3506 1031 
Q 3506 472 3093 190 
Q 2681 -91 1863 -91 
Q 1516 -91 1145 -36 
Q 775 19 384 128 
L 384 978 
Q 719 816 1070 734 
Q 1422 653 1784 653 
Q 2113 653 2278 743 
Q 2444 834 2444 1013 
Q 2444 1163 2330 1236 
Q 2216 1309 1875 1350 
L 1678 1375 
Q 931 1469 631 1722 
Q 331 1975 331 2491 
Q 331 3047 712 3315 
Q 1094 3584 1881 3584 
Q 2191 3584 2531 3537 
Q 2872 3491 3272 3391 
z
" transform="scale(0.015625)"/>
       </defs>
       <use xlink:href="#DejaVuSans-Bold-56" transform="translate(0 0.015625)"/>
       <use xlink:href="#DejaVuSans-Bold-65" transform="translate(77.392578 0.015625)"/>
       <use xlink:href="#DejaVuSans-Bold-73" transform="translate(145.214844 0.015625)"/>
       <use xlink:href="#DejaVuSans-Bold-73" transform="translate(204.736328 0.015625)"/>
       <use xlink:href="#DejaVuSans-Bold-65" transform="translate(264.257812 0.015625)"/>
       <use xlink:href="#DejaVuSans-Bold-6c" transform="translate(332.080078 0.015625)"/>
       <use xlink:href="#DejaVuSans-Bold-73" transform="translate(366.357422 0.015625)"/>
      </g>
     </g>
    </g>
    <g id="ytick_9">
     <g id="text_14">
      <!-- Ceramic Plate - Metal Plate -->
      <g style="fill: #262626" transform="translate(41.223125 317.657844) scale(0.22 -0.22)">
       <defs>
        <path id="ArialMT-50" d="M 494 0 
L 494 4581 
L 2222 4581 
Q 2678 4581 2919 4538 
Q 3256 4481 3484 4323 
Q 3713 4166 3852 3881 
Q 3991 3597 3991 3256 
Q 3991 2672 3619 2267 
Q 3247 1863 2275 1863 
L 1100 1863 
L 1100 0 
L 494 0 
z
M 1100 2403 
L 2284 2403 
Q 2872 2403 3119 2622 
Q 3366 2841 3366 3238 
Q 3366 3525 3220 3729 
Q 3075 3934 2838 4000 
Q 2684 4041 2272 4041 
L 1100 4041 
L 1100 2403 
z
" transform="scale(0.015625)"/>
       </defs>
       <use xlink:href="#ArialMT-43"/>
       <use xlink:href="#ArialMT-65" x="72.216797"/>
       <use xlink:href="#ArialMT-72" x="127.832031"/>
       <use xlink:href="#ArialMT-61" x="161.132812"/>
       <use xlink:href="#ArialMT-6d" x="216.748047"/>
       <use xlink:href="#ArialMT-69" x="300.048828"/>
       <use xlink:href="#ArialMT-63" x="322.265625"/>
       <use xlink:href="#ArialMT-20" x="372.265625"/>
       <use xlink:href="#ArialMT-50" x="400.048828"/>
       <use xlink:href="#ArialMT-6c" x="466.748047"/>
       <use xlink:href="#ArialMT-61" x="488.964844"/>
       <use xlink:href="#ArialMT-74" x="544.580078"/>
       <use xlink:href="#ArialMT-65" x="572.363281"/>
       <use xlink:href="#ArialMT-20" x="627.978516"/>
       <use xlink:href="#ArialMT-2d" x="655.761719"/>
       <use xlink:href="#ArialMT-20" x="689.0625"/>
       <use xlink:href="#ArialMT-4d" x="716.845703"/>
       <use xlink:href="#ArialMT-65" x="800.146484"/>
       <use xlink:href="#ArialMT-74" x="855.761719"/>
       <use xlink:href="#ArialMT-61" x="883.544922"/>
       <use xlink:href="#ArialMT-6c" x="939.160156"/>
       <use xlink:href="#ArialMT-20" x="961.376953"/>
       <use xlink:href="#ArialMT-50" x="989.160156"/>
       <use xlink:href="#ArialMT-6c" x="1055.859375"/>
       <use xlink:href="#ArialMT-61" x="1078.076172"/>
       <use xlink:href="#ArialMT-74" x="1133.691406"/>
       <use xlink:href="#ArialMT-65" x="1161.474609"/>
      </g>
     </g>
    </g>
    <g id="ytick_10">
     <g id="text_15">
      <!-- Ceramic Plate - Plastic Plate -->
      <g style="fill: #262626" transform="translate(30.219688 351.310844) scale(0.22 -0.22)">
       <use xlink:href="#ArialMT-43"/>
       <use xlink:href="#ArialMT-65" x="72.216797"/>
       <use xlink:href="#ArialMT-72" x="127.832031"/>
       <use xlink:href="#ArialMT-61" x="161.132812"/>
       <use xlink:href="#ArialMT-6d" x="216.748047"/>
       <use xlink:href="#ArialMT-69" x="300.048828"/>
       <use xlink:href="#ArialMT-63" x="322.265625"/>
       <use xlink:href="#ArialMT-20" x="372.265625"/>
       <use xlink:href="#ArialMT-50" x="400.048828"/>
       <use xlink:href="#ArialMT-6c" x="466.748047"/>
       <use xlink:href="#ArialMT-61" x="488.964844"/>
       <use xlink:href="#ArialMT-74" x="544.580078"/>
       <use xlink:href="#ArialMT-65" x="572.363281"/>
       <use xlink:href="#ArialMT-20" x="627.978516"/>
       <use xlink:href="#ArialMT-2d" x="655.761719"/>
       <use xlink:href="#ArialMT-20" x="689.0625"/>
       <use xlink:href="#ArialMT-50" x="716.845703"/>
       <use xlink:href="#ArialMT-6c" x="783.544922"/>
       <use xlink:href="#ArialMT-61" x="805.761719"/>
       <use xlink:href="#ArialMT-73" x="861.376953"/>
       <use xlink:href="#ArialMT-74" x="911.376953"/>
       <use xlink:href="#ArialMT-69" x="939.160156"/>
       <use xlink:href="#ArialMT-63" x="961.376953"/>
       <use xlink:href="#ArialMT-20" x="1011.376953"/>
       <use xlink:href="#ArialMT-50" x="1039.160156"/>
       <use xlink:href="#ArialMT-6c" x="1105.859375"/>
       <use xlink:href="#ArialMT-61" x="1128.076172"/>
       <use xlink:href="#ArialMT-74" x="1183.691406"/>
       <use xlink:href="#ArialMT-65" x="1211.474609"/>
      </g>
     </g>
    </g>
    <g id="ytick_11">
     <g id="text_16">
      <!-- Metal Plate - Plastic Plate -->
      <g style="fill: #262626" transform="translate(58.32125 384.963844) scale(0.22 -0.22)">
       <use xlink:href="#ArialMT-4d"/>
       <use xlink:href="#ArialMT-65" x="83.300781"/>
       <use xlink:href="#ArialMT-74" x="138.916016"/>
       <use xlink:href="#ArialMT-61" x="166.699219"/>
       <use xlink:href="#ArialMT-6c" x="222.314453"/>
       <use xlink:href="#ArialMT-20" x="244.53125"/>
       <use xlink:href="#ArialMT-50" x="272.314453"/>
       <use xlink:href="#ArialMT-6c" x="339.013672"/>
       <use xlink:href="#ArialMT-61" x="361.230469"/>
       <use xlink:href="#ArialMT-74" x="416.845703"/>
       <use xlink:href="#ArialMT-65" x="444.628906"/>
       <use xlink:href="#ArialMT-20" x="500.244141"/>
       <use xlink:href="#ArialMT-2d" x="528.027344"/>
       <use xlink:href="#ArialMT-20" x="561.328125"/>
       <use xlink:href="#ArialMT-50" x="589.111328"/>
       <use xlink:href="#ArialMT-6c" x="655.810547"/>
       <use xlink:href="#ArialMT-61" x="678.027344"/>
       <use xlink:href="#ArialMT-73" x="733.642578"/>
       <use xlink:href="#ArialMT-74" x="783.642578"/>
       <use xlink:href="#ArialMT-69" x="811.425781"/>
       <use xlink:href="#ArialMT-63" x="833.642578"/>
       <use xlink:href="#ArialMT-20" x="883.642578"/>
       <use xlink:href="#ArialMT-50" x="911.425781"/>
       <use xlink:href="#ArialMT-6c" x="978.125"/>
       <use xlink:href="#ArialMT-61" x="1000.341797"/>
       <use xlink:href="#ArialMT-74" x="1055.957031"/>
       <use xlink:href="#ArialMT-65" x="1083.740234"/>
      </g>
     </g>
    </g>
    <g id="ytick_12">
     <g id="text_17">
      <!-- $\mathbf{Plates}$ -->
      <g style="fill: #262626" transform="translate(231.75 418.616844) scale(0.22 -0.22)">
       <defs>
        <path id="DejaVuSans-Bold-50" d="M 588 4666 
L 2584 4666 
Q 3475 4666 3951 4270 
Q 4428 3875 4428 3144 
Q 4428 2409 3951 2014 
Q 3475 1619 2584 1619 
L 1791 1619 
L 1791 0 
L 588 0 
L 588 4666 
z
M 1791 3794 
L 1791 2491 
L 2456 2491 
Q 2806 2491 2997 2661 
Q 3188 2831 3188 3144 
Q 3188 3456 2997 3625 
Q 2806 3794 2456 3794 
L 1791 3794 
z
" transform="scale(0.015625)"/>
        <path id="DejaVuSans-Bold-61" d="M 2106 1575 
Q 1756 1575 1579 1456 
Q 1403 1338 1403 1106 
Q 1403 894 1545 773 
Q 1688 653 1941 653 
Q 2256 653 2472 879 
Q 2688 1106 2688 1447 
L 2688 1575 
L 2106 1575 
z
M 3816 1997 
L 3816 0 
L 2688 0 
L 2688 519 
Q 2463 200 2181 54 
Q 1900 -91 1497 -91 
Q 953 -91 614 226 
Q 275 544 275 1050 
Q 275 1666 698 1953 
Q 1122 2241 2028 2241 
L 2688 2241 
L 2688 2328 
Q 2688 2594 2478 2717 
Q 2269 2841 1825 2841 
Q 1466 2841 1156 2769 
Q 847 2697 581 2553 
L 581 3406 
Q 941 3494 1303 3539 
Q 1666 3584 2028 3584 
Q 2975 3584 3395 3211 
Q 3816 2838 3816 1997 
z
" transform="scale(0.015625)"/>
       </defs>
       <use xlink:href="#DejaVuSans-Bold-50" transform="translate(0 0.015625)"/>
       <use xlink:href="#DejaVuSans-Bold-6c" transform="translate(73.291016 0.015625)"/>
       <use xlink:href="#DejaVuSans-Bold-61" transform="translate(107.568359 0.015625)"/>
       <use xlink:href="#DejaVuSans-Bold-74" transform="translate(175.048828 0.015625)"/>
       <use xlink:href="#DejaVuSans-Bold-65" transform="translate(222.851562 0.015625)"/>
       <use xlink:href="#DejaVuSans-Bold-73" transform="translate(290.673828 0.015625)"/>
      </g>
     </g>
    </g>
    <g id="ytick_13">
     <g id="text_18">
      <!-- Ping-Pong Ball - Squash Ball -->
      <g style="fill: #262626" transform="translate(26.483125 452.275) scale(0.22 -0.22)">
       <defs>
        <path id="ArialMT-42" d="M 469 0 
L 469 4581 
L 2188 4581 
Q 2713 4581 3030 4442 
Q 3347 4303 3526 4014 
Q 3706 3725 3706 3409 
Q 3706 3116 3547 2856 
Q 3388 2597 3066 2438 
Q 3481 2316 3704 2022 
Q 3928 1728 3928 1328 
Q 3928 1006 3792 729 
Q 3656 453 3456 303 
Q 3256 153 2954 76 
Q 2653 0 2216 0 
L 469 0 
z
M 1075 2656 
L 2066 2656 
Q 2469 2656 2644 2709 
Q 2875 2778 2992 2937 
Q 3109 3097 3109 3338 
Q 3109 3566 3000 3739 
Q 2891 3913 2687 3977 
Q 2484 4041 1991 4041 
L 1075 4041 
L 1075 2656 
z
M 1075 541 
L 2216 541 
Q 2509 541 2628 563 
Q 2838 600 2978 687 
Q 3119 775 3209 942 
Q 3300 1109 3300 1328 
Q 3300 1584 3169 1773 
Q 3038 1963 2805 2039 
Q 2572 2116 2134 2116 
L 1075 2116 
L 1075 541 
z
" transform="scale(0.015625)"/>
        <path id="ArialMT-71" d="M 2538 -1272 
L 2538 353 
Q 2406 169 2170 47 
Q 1934 -75 1669 -75 
Q 1078 -75 651 397 
Q 225 869 225 1691 
Q 225 2191 398 2587 
Q 572 2984 901 3189 
Q 1231 3394 1625 3394 
Q 2241 3394 2594 2875 
L 2594 3319 
L 3100 3319 
L 3100 -1272 
L 2538 -1272 
z
M 803 1669 
Q 803 1028 1072 708 
Q 1341 388 1716 388 
Q 2075 388 2334 692 
Q 2594 997 2594 1619 
Q 2594 2281 2320 2615 
Q 2047 2950 1678 2950 
Q 1313 2950 1058 2639 
Q 803 2328 803 1669 
z
" transform="scale(0.015625)"/>
       </defs>
       <use xlink:href="#ArialMT-50"/>
       <use xlink:href="#ArialMT-69" x="66.699219"/>
       <use xlink:href="#ArialMT-6e" x="88.916016"/>
       <use xlink:href="#ArialMT-67" x="144.53125"/>
       <use xlink:href="#ArialMT-2d" x="200.146484"/>
       <use xlink:href="#ArialMT-50" x="233.447266"/>
       <use xlink:href="#ArialMT-6f" x="300.146484"/>
       <use xlink:href="#ArialMT-6e" x="355.761719"/>
       <use xlink:href="#ArialMT-67" x="411.376953"/>
       <use xlink:href="#ArialMT-20" x="466.992188"/>
       <use xlink:href="#ArialMT-42" x="494.775391"/>
       <use xlink:href="#ArialMT-61" x="561.474609"/>
       <use xlink:href="#ArialMT-6c" x="617.089844"/>
       <use xlink:href="#ArialMT-6c" x="639.306641"/>
       <use xlink:href="#ArialMT-20" x="661.523438"/>
       <use xlink:href="#ArialMT-2d" x="689.306641"/>
       <use xlink:href="#ArialMT-20" x="722.607422"/>
       <use xlink:href="#ArialMT-53" x="750.390625"/>
       <use xlink:href="#ArialMT-71" x="817.089844"/>
       <use xlink:href="#ArialMT-75" x="872.705078"/>
       <use xlink:href="#ArialMT-61" x="928.320312"/>
       <use xlink:href="#ArialMT-73" x="983.935547"/>
       <use xlink:href="#ArialMT-68" x="1033.935547"/>
       <use xlink:href="#ArialMT-20" x="1089.550781"/>
       <use xlink:href="#ArialMT-42" x="1117.333984"/>
       <use xlink:href="#ArialMT-61" x="1184.033203"/>
       <use xlink:href="#ArialMT-6c" x="1239.648438"/>
       <use xlink:href="#ArialMT-6c" x="1261.865234"/>
      </g>
     </g>
    </g>
    <g id="ytick_14">
     <g id="text_19">
      <!-- Ping-Pong Ball - Tennis Ball -->
      <g style="fill: #262626" transform="translate(37.899063 485.793938) scale(0.22 -0.22)">
       <defs>
        <path id="ArialMT-54" d="M 1659 0 
L 1659 4041 
L 150 4041 
L 150 4581 
L 3781 4581 
L 3781 4041 
L 2266 4041 
L 2266 0 
L 1659 0 
z
" transform="scale(0.015625)"/>
       </defs>
       <use xlink:href="#ArialMT-50"/>
       <use xlink:href="#ArialMT-69" x="66.699219"/>
       <use xlink:href="#ArialMT-6e" x="88.916016"/>
       <use xlink:href="#ArialMT-67" x="144.53125"/>
       <use xlink:href="#ArialMT-2d" x="200.146484"/>
       <use xlink:href="#ArialMT-50" x="233.447266"/>
       <use xlink:href="#ArialMT-6f" x="300.146484"/>
       <use xlink:href="#ArialMT-6e" x="355.761719"/>
       <use xlink:href="#ArialMT-67" x="411.376953"/>
       <use xlink:href="#ArialMT-20" x="466.992188"/>
       <use xlink:href="#ArialMT-42" x="494.775391"/>
       <use xlink:href="#ArialMT-61" x="561.474609"/>
       <use xlink:href="#ArialMT-6c" x="617.089844"/>
       <use xlink:href="#ArialMT-6c" x="639.306641"/>
       <use xlink:href="#ArialMT-20" x="661.523438"/>
       <use xlink:href="#ArialMT-2d" x="689.306641"/>
       <use xlink:href="#ArialMT-20" x="722.607422"/>
       <use xlink:href="#ArialMT-54" x="748.640625"/>
       <use xlink:href="#ArialMT-65" x="798.599609"/>
       <use xlink:href="#ArialMT-6e" x="854.214844"/>
       <use xlink:href="#ArialMT-6e" x="909.830078"/>
       <use xlink:href="#ArialMT-69" x="965.445312"/>
       <use xlink:href="#ArialMT-73" x="987.662109"/>
       <use xlink:href="#ArialMT-20" x="1037.662109"/>
       <use xlink:href="#ArialMT-42" x="1065.445312"/>
       <use xlink:href="#ArialMT-61" x="1132.144531"/>
       <use xlink:href="#ArialMT-6c" x="1187.759766"/>
       <use xlink:href="#ArialMT-6c" x="1209.976562"/>
      </g>
     </g>
    </g>
    <g id="ytick_15">
     <g id="text_20">
      <!-- Squash Ball - Tennis Ball -->
      <g style="fill: #262626" transform="translate(66.02125 519.709906) scale(0.22 -0.22)">
       <use xlink:href="#ArialMT-53"/>
       <use xlink:href="#ArialMT-71" x="66.699219"/>
       <use xlink:href="#ArialMT-75" x="122.314453"/>
       <use xlink:href="#ArialMT-61" x="177.929688"/>
       <use xlink:href="#ArialMT-73" x="233.544922"/>
       <use xlink:href="#ArialMT-68" x="283.544922"/>
       <use xlink:href="#ArialMT-20" x="339.160156"/>
       <use xlink:href="#ArialMT-42" x="366.943359"/>
       <use xlink:href="#ArialMT-61" x="433.642578"/>
       <use xlink:href="#ArialMT-6c" x="489.257812"/>
       <use xlink:href="#ArialMT-6c" x="511.474609"/>
       <use xlink:href="#ArialMT-20" x="533.691406"/>
       <use xlink:href="#ArialMT-2d" x="561.474609"/>
       <use xlink:href="#ArialMT-20" x="594.775391"/>
       <use xlink:href="#ArialMT-54" x="620.808594"/>
       <use xlink:href="#ArialMT-65" x="670.767578"/>
       <use xlink:href="#ArialMT-6e" x="726.382812"/>
       <use xlink:href="#ArialMT-6e" x="781.998047"/>
       <use xlink:href="#ArialMT-69" x="837.613281"/>
       <use xlink:href="#ArialMT-73" x="859.830078"/>
       <use xlink:href="#ArialMT-20" x="909.830078"/>
       <use xlink:href="#ArialMT-42" x="937.613281"/>
       <use xlink:href="#ArialMT-61" x="1004.3125"/>
       <use xlink:href="#ArialMT-6c" x="1059.927734"/>
       <use xlink:href="#ArialMT-6c" x="1082.144531"/>
      </g>
     </g>
    </g>
    <g id="ytick_16">
     <g id="text_21">
      <!-- $\mathbf{Sport Balls}$ -->
      <g style="fill: #262626" transform="translate(180.93 553.5915) scale(0.22 -0.22)">
       <defs>
        <path id="DejaVuSans-Bold-53" d="M 3834 4519 
L 3834 3531 
Q 3450 3703 3084 3790 
Q 2719 3878 2394 3878 
Q 1963 3878 1756 3759 
Q 1550 3641 1550 3391 
Q 1550 3203 1689 3098 
Q 1828 2994 2194 2919 
L 2706 2816 
Q 3484 2659 3812 2340 
Q 4141 2022 4141 1434 
Q 4141 663 3683 286 
Q 3225 -91 2284 -91 
Q 1841 -91 1394 -6 
Q 947 78 500 244 
L 500 1259 
Q 947 1022 1364 901 
Q 1781 781 2169 781 
Q 2563 781 2772 912 
Q 2981 1044 2981 1288 
Q 2981 1506 2839 1625 
Q 2697 1744 2272 1838 
L 1806 1941 
Q 1106 2091 782 2419 
Q 459 2747 459 3303 
Q 459 4000 909 4375 
Q 1359 4750 2203 4750 
Q 2588 4750 2994 4692 
Q 3400 4634 3834 4519 
z
" transform="scale(0.015625)"/>
        <path id="DejaVuSans-Bold-70" d="M 1656 506 
L 1656 -1331 
L 538 -1331 
L 538 3500 
L 1656 3500 
L 1656 2988 
Q 1888 3294 2169 3439 
Q 2450 3584 2816 3584 
Q 3463 3584 3878 3070 
Q 4294 2556 4294 1747 
Q 4294 938 3878 423 
Q 3463 -91 2816 -91 
Q 2450 -91 2169 54 
Q 1888 200 1656 506 
z
M 2400 2772 
Q 2041 2772 1848 2508 
Q 1656 2244 1656 1747 
Q 1656 1250 1848 986 
Q 2041 722 2400 722 
Q 2759 722 2948 984 
Q 3138 1247 3138 1747 
Q 3138 2247 2948 2509 
Q 2759 2772 2400 2772 
z
" transform="scale(0.015625)"/>
        <path id="DejaVuSans-Bold-6f" d="M 2203 2784 
Q 1831 2784 1636 2517 
Q 1441 2250 1441 1747 
Q 1441 1244 1636 976 
Q 1831 709 2203 709 
Q 2569 709 2762 976 
Q 2956 1244 2956 1747 
Q 2956 2250 2762 2517 
Q 2569 2784 2203 2784 
z
M 2203 3584 
Q 3106 3584 3614 3096 
Q 4122 2609 4122 1747 
Q 4122 884 3614 396 
Q 3106 -91 2203 -91 
Q 1297 -91 786 396 
Q 275 884 275 1747 
Q 275 2609 786 3096 
Q 1297 3584 2203 3584 
z
" transform="scale(0.015625)"/>
        <path id="DejaVuSans-Bold-42" d="M 2456 2859 
Q 2741 2859 2887 2984 
Q 3034 3109 3034 3353 
Q 3034 3594 2887 3720 
Q 2741 3847 2456 3847 
L 1791 3847 
L 1791 2859 
L 2456 2859 
z
M 2497 819 
Q 2859 819 3042 972 
Q 3225 1125 3225 1434 
Q 3225 1738 3044 1889 
Q 2863 2041 2497 2041 
L 1791 2041 
L 1791 819 
L 2497 819 
z
M 3616 2497 
Q 4003 2384 4215 2081 
Q 4428 1778 4428 1338 
Q 4428 663 3972 331 
Q 3516 0 2584 0 
L 588 0 
L 588 4666 
L 2394 4666 
Q 3366 4666 3802 4372 
Q 4238 4078 4238 3431 
Q 4238 3091 4078 2852 
Q 3919 2613 3616 2497 
z
" transform="scale(0.015625)"/>
       </defs>
       <use xlink:href="#DejaVuSans-Bold-53" transform="translate(0 0.015625)"/>
       <use xlink:href="#DejaVuSans-Bold-70" transform="translate(72.021484 0.015625)"/>
       <use xlink:href="#DejaVuSans-Bold-6f" transform="translate(143.603516 0.015625)"/>
       <use xlink:href="#DejaVuSans-Bold-72" transform="translate(212.304688 0.015625)"/>
       <use xlink:href="#DejaVuSans-Bold-74" transform="translate(261.621094 0.015625)"/>
       <use xlink:href="#DejaVuSans-Bold-42" transform="translate(309.423828 0.015625)"/>
       <use xlink:href="#DejaVuSans-Bold-61" transform="translate(385.644531 0.015625)"/>
       <use xlink:href="#DejaVuSans-Bold-6c" transform="translate(453.125 0.015625)"/>
       <use xlink:href="#DejaVuSans-Bold-6c" transform="translate(487.402344 0.015625)"/>
       <use xlink:href="#DejaVuSans-Bold-73" transform="translate(521.679688 0.015625)"/>
      </g>
     </g>
    </g>
    <g id="ytick_17">
     <g id="text_22">
      <!-- Cube - Cylinder -->
      <g style="fill: #262626" transform="translate(156.13875 586.887) scale(0.22 -0.22)">
       <defs>
        <path id="ArialMT-79" d="M 397 -1278 
L 334 -750 
Q 519 -800 656 -800 
Q 844 -800 956 -737 
Q 1069 -675 1141 -563 
Q 1194 -478 1313 -144 
Q 1328 -97 1363 -6 
L 103 3319 
L 709 3319 
L 1400 1397 
Q 1534 1031 1641 628 
Q 1738 1016 1872 1384 
L 2581 3319 
L 3144 3319 
L 1881 -56 
Q 1678 -603 1566 -809 
Q 1416 -1088 1222 -1217 
Q 1028 -1347 759 -1347 
Q 597 -1347 397 -1278 
z
" transform="scale(0.015625)"/>
       </defs>
       <use xlink:href="#ArialMT-43"/>
       <use xlink:href="#ArialMT-75" x="72.216797"/>
       <use xlink:href="#ArialMT-62" x="127.832031"/>
       <use xlink:href="#ArialMT-65" x="183.447266"/>
       <use xlink:href="#ArialMT-20" x="239.0625"/>
       <use xlink:href="#ArialMT-2d" x="266.845703"/>
       <use xlink:href="#ArialMT-20" x="300.146484"/>
       <use xlink:href="#ArialMT-43" x="327.929688"/>
       <use xlink:href="#ArialMT-79" x="400.146484"/>
       <use xlink:href="#ArialMT-6c" x="450.146484"/>
       <use xlink:href="#ArialMT-69" x="472.363281"/>
       <use xlink:href="#ArialMT-6e" x="494.580078"/>
       <use xlink:href="#ArialMT-64" x="550.195312"/>
       <use xlink:href="#ArialMT-65" x="605.810547"/>
       <use xlink:href="#ArialMT-72" x="661.425781"/>
      </g>
     </g>
    </g>
    <g id="ytick_18">
     <g id="text_23">
      <!-- Cube - Prism -->
      <g style="fill: #262626" transform="translate(180.617188 620.534844) scale(0.22 -0.22)">
       <use xlink:href="#ArialMT-43"/>
       <use xlink:href="#ArialMT-75" x="72.216797"/>
       <use xlink:href="#ArialMT-62" x="127.832031"/>
       <use xlink:href="#ArialMT-65" x="183.447266"/>
       <use xlink:href="#ArialMT-20" x="239.0625"/>
       <use xlink:href="#ArialMT-2d" x="266.845703"/>
       <use xlink:href="#ArialMT-20" x="300.146484"/>
       <use xlink:href="#ArialMT-50" x="327.929688"/>
       <use xlink:href="#ArialMT-72" x="394.628906"/>
       <use xlink:href="#ArialMT-69" x="427.929688"/>
       <use xlink:href="#ArialMT-73" x="450.146484"/>
       <use xlink:href="#ArialMT-6d" x="500.146484"/>
      </g>
     </g>
    </g>
    <g id="ytick_19">
     <g id="text_24">
      <!-- Cylinder - Prism -->
      <g style="fill: #262626" transform="translate(152.515625 654.193) scale(0.22 -0.22)">
       <use xlink:href="#ArialMT-43"/>
       <use xlink:href="#ArialMT-79" x="72.216797"/>
       <use xlink:href="#ArialMT-6c" x="122.216797"/>
       <use xlink:href="#ArialMT-69" x="144.433594"/>
       <use xlink:href="#ArialMT-6e" x="166.650391"/>
       <use xlink:href="#ArialMT-64" x="222.265625"/>
       <use xlink:href="#ArialMT-65" x="277.880859"/>
       <use xlink:href="#ArialMT-72" x="333.496094"/>
       <use xlink:href="#ArialMT-20" x="366.796875"/>
       <use xlink:href="#ArialMT-2d" x="394.580078"/>
       <use xlink:href="#ArialMT-20" x="427.880859"/>
       <use xlink:href="#ArialMT-50" x="455.664062"/>
       <use xlink:href="#ArialMT-72" x="522.363281"/>
       <use xlink:href="#ArialMT-69" x="555.664062"/>
       <use xlink:href="#ArialMT-73" x="577.880859"/>
       <use xlink:href="#ArialMT-6d" x="627.880859"/>
      </g>
     </g>
    </g>
    <g id="ytick_20">
     <g id="text_25">
      <!-- $\mathbf{Geometric}$ -->
      <g style="fill: #262626" transform="translate(180.93 687.840844) scale(0.22 -0.22)">
       <defs>
        <path id="DejaVuSans-Bold-47" d="M 4781 347 
Q 4331 128 3847 18 
Q 3363 -91 2847 -91 
Q 1681 -91 1000 561 
Q 319 1213 319 2328 
Q 319 3456 1012 4103 
Q 1706 4750 2913 4750 
Q 3378 4750 3804 4662 
Q 4231 4575 4609 4403 
L 4609 3438 
Q 4219 3659 3833 3768 
Q 3447 3878 3059 3878 
Q 2341 3878 1952 3476 
Q 1563 3075 1563 2328 
Q 1563 1588 1938 1184 
Q 2313 781 3003 781 
Q 3191 781 3352 804 
Q 3513 828 3641 878 
L 3641 1784 
L 2906 1784 
L 2906 2591 
L 4781 2591 
L 4781 347 
z
" transform="scale(0.015625)"/>
        <path id="DejaVuSans-Bold-6d" d="M 3781 2919 
Q 3994 3244 4286 3414 
Q 4578 3584 4928 3584 
Q 5531 3584 5847 3212 
Q 6163 2841 6163 2131 
L 6163 0 
L 5038 0 
L 5038 1825 
Q 5041 1866 5042 1909 
Q 5044 1953 5044 2034 
Q 5044 2406 4934 2573 
Q 4825 2741 4581 2741 
Q 4263 2741 4089 2478 
Q 3916 2216 3909 1719 
L 3909 0 
L 2784 0 
L 2784 1825 
Q 2784 2406 2684 2573 
Q 2584 2741 2328 2741 
Q 2006 2741 1831 2477 
Q 1656 2213 1656 1722 
L 1656 0 
L 531 0 
L 531 3500 
L 1656 3500 
L 1656 2988 
Q 1863 3284 2130 3434 
Q 2397 3584 2719 3584 
Q 3081 3584 3359 3409 
Q 3638 3234 3781 2919 
z
" transform="scale(0.015625)"/>
        <path id="DejaVuSans-Bold-69" d="M 538 3500 
L 1656 3500 
L 1656 0 
L 538 0 
L 538 3500 
z
M 538 4863 
L 1656 4863 
L 1656 3950 
L 538 3950 
L 538 4863 
z
" transform="scale(0.015625)"/>
        <path id="DejaVuSans-Bold-63" d="M 3366 3391 
L 3366 2478 
Q 3138 2634 2908 2709 
Q 2678 2784 2431 2784 
Q 1963 2784 1702 2511 
Q 1441 2238 1441 1747 
Q 1441 1256 1702 982 
Q 1963 709 2431 709 
Q 2694 709 2930 787 
Q 3166 866 3366 1019 
L 3366 103 
Q 3103 6 2833 -42 
Q 2563 -91 2291 -91 
Q 1344 -91 809 395 
Q 275 881 275 1747 
Q 275 2613 809 3098 
Q 1344 3584 2291 3584 
Q 2566 3584 2833 3536 
Q 3100 3488 3366 3391 
z
" transform="scale(0.015625)"/>
       </defs>
       <use xlink:href="#DejaVuSans-Bold-47" transform="translate(0 0.015625)"/>
       <use xlink:href="#DejaVuSans-Bold-65" transform="translate(82.080078 0.015625)"/>
       <use xlink:href="#DejaVuSans-Bold-6f" transform="translate(149.902344 0.015625)"/>
       <use xlink:href="#DejaVuSans-Bold-6d" transform="translate(218.603516 0.015625)"/>
       <use xlink:href="#DejaVuSans-Bold-65" transform="translate(322.802734 0.015625)"/>
       <use xlink:href="#DejaVuSans-Bold-74" transform="translate(390.625 0.015625)"/>
       <use xlink:href="#DejaVuSans-Bold-72" transform="translate(438.427734 0.015625)"/>
       <use xlink:href="#DejaVuSans-Bold-69" transform="translate(487.744141 0.015625)"/>
       <use xlink:href="#DejaVuSans-Bold-63" transform="translate(522.021484 0.015625)"/>
      </g>
     </g>
    </g>
   </g>
   <g id="QuadMesh_1">
    <path d="M 318.47 25.92 
L 401.6076 25.92 
L 401.6076 59.573 
L 318.47 59.573 
L 318.47 25.92 
" clip-path="url(#p12e38adac1)" style="fill: #ffffff; stroke: #ffffff; stroke-width: 0.5"/>
    <path d="M 401.6076 25.92 
L 484.7452 25.92 
L 484.7452 59.573 
L 401.6076 59.573 
L 401.6076 25.92 
" clip-path="url(#p12e38adac1)" style="fill: #ffffff; stroke: #ffffff; stroke-width: 0.5"/>
    <path d="M 484.7452 25.92 
L 567.8828 25.92 
L 567.8828 59.573 
L 484.7452 59.573 
L 484.7452 25.92 
" clip-path="url(#p12e38adac1)" style="stroke: #ffffff; stroke-width: 0.5"/>
    <path d="M 567.8828 25.92 
L 651.0204 25.92 
L 651.0204 59.573 
L 567.8828 59.573 
L 567.8828 25.92 
" clip-path="url(#p12e38adac1)" style="fill: #ffffff; stroke: #ffffff; stroke-width: 0.5"/>
    <path d="M 651.0204 25.92 
L 734.158 25.92 
L 734.158 59.573 
L 651.0204 59.573 
L 651.0204 25.92 
" clip-path="url(#p12e38adac1)" style="fill: #ffffff; stroke: #ffffff; stroke-width: 0.5"/>
    <path d="M 318.47 59.573 
L 401.6076 59.573 
L 401.6076 93.226 
L 318.47 93.226 
L 318.47 59.573 
" clip-path="url(#p12e38adac1)" style="fill: #ffffff; stroke: #ffffff; stroke-width: 0.5"/>
    <path d="M 401.6076 59.573 
L 484.7452 59.573 
L 484.7452 93.226 
L 401.6076 93.226 
L 401.6076 59.573 
" clip-path="url(#p12e38adac1)" style="fill: #ffffff; stroke: #ffffff; stroke-width: 0.5"/>
    <path d="M 484.7452 59.573 
L 567.8828 59.573 
L 567.8828 93.226 
L 484.7452 93.226 
L 484.7452 59.573 
" clip-path="url(#p12e38adac1)" style="stroke: #ffffff; stroke-width: 0.5"/>
    <path d="M 567.8828 59.573 
L 651.0204 59.573 
L 651.0204 93.226 
L 567.8828 93.226 
L 567.8828 59.573 
" clip-path="url(#p12e38adac1)" style="stroke: #ffffff; stroke-width: 0.5"/>
    <path d="M 651.0204 59.573 
L 734.158 59.573 
L 734.158 93.226 
L 651.0204 93.226 
L 651.0204 59.573 
" clip-path="url(#p12e38adac1)" style="fill: #ffffff; stroke: #ffffff; stroke-width: 0.5"/>
    <path d="M 318.47 93.226 
L 401.6076 93.226 
L 401.6076 126.879 
L 318.47 126.879 
L 318.47 93.226 
" clip-path="url(#p12e38adac1)" style="stroke: #ffffff; stroke-width: 0.5"/>
    <path d="M 401.6076 93.226 
L 484.7452 93.226 
L 484.7452 126.879 
L 401.6076 126.879 
L 401.6076 93.226 
" clip-path="url(#p12e38adac1)" style="fill: #ffffff; stroke: #ffffff; stroke-width: 0.5"/>
    <path d="M 484.7452 93.226 
L 567.8828 93.226 
L 567.8828 126.879 
L 484.7452 126.879 
L 484.7452 93.226 
" clip-path="url(#p12e38adac1)" style="stroke: #ffffff; stroke-width: 0.5"/>
    <path d="M 567.8828 93.226 
L 651.0204 93.226 
L 651.0204 126.879 
L 567.8828 126.879 
L 567.8828 93.226 
" clip-path="url(#p12e38adac1)" style="fill: #ffffff; stroke: #ffffff; stroke-width: 0.5"/>
    <path d="M 651.0204 93.226 
L 734.158 93.226 
L 734.158 126.879 
L 651.0204 126.879 
L 651.0204 93.226 
" clip-path="url(#p12e38adac1)" style="fill: #ffffff; stroke: #ffffff; stroke-width: 0.5"/>
    <path d="M 318.47 126.879 
L 401.6076 126.879 
L 401.6076 160.532 
L 318.47 160.532 
L 318.47 126.879 
" clip-path="url(#p12e38adac1)" style="fill: #ffffff; stroke: #ffffff; stroke-width: 0.5"/>
    <path d="M 401.6076 126.879 
L 484.7452 126.879 
L 484.7452 160.532 
L 401.6076 160.532 
L 401.6076 126.879 
" clip-path="url(#p12e38adac1)" style="fill: #ffffff; stroke: #ffffff; stroke-width: 0.5"/>
    <path d="M 484.7452 126.879 
L 567.8828 126.879 
L 567.8828 160.532 
L 484.7452 160.532 
L 484.7452 126.879 
" clip-path="url(#p12e38adac1)" style="stroke: #ffffff; stroke-width: 0.5"/>
    <path d="M 567.8828 126.879 
L 651.0204 126.879 
L 651.0204 160.532 
L 567.8828 160.532 
L 567.8828 126.879 
" clip-path="url(#p12e38adac1)" style="fill: #ffffff; stroke: #ffffff; stroke-width: 0.5"/>
    <path d="M 651.0204 126.879 
L 734.158 126.879 
L 734.158 160.532 
L 651.0204 160.532 
L 651.0204 126.879 
" clip-path="url(#p12e38adac1)" style="fill: #ffffff; stroke: #ffffff; stroke-width: 0.5"/>
    <path d="M 318.47 160.532 
L 401.6076 160.532 
L 401.6076 194.185 
L 318.47 194.185 
L 318.47 160.532 
" clip-path="url(#p12e38adac1)" style="stroke: #ffffff; stroke-width: 0.5"/>
    <path d="M 401.6076 160.532 
L 484.7452 160.532 
L 484.7452 194.185 
L 401.6076 194.185 
L 401.6076 160.532 
" clip-path="url(#p12e38adac1)" style="stroke: #ffffff; stroke-width: 0.5"/>
    <path d="M 484.7452 160.532 
L 567.8828 160.532 
L 567.8828 194.185 
L 484.7452 194.185 
L 484.7452 160.532 
" clip-path="url(#p12e38adac1)" style="stroke: #ffffff; stroke-width: 0.5"/>
    <path d="M 567.8828 160.532 
L 651.0204 160.532 
L 651.0204 194.185 
L 567.8828 194.185 
L 567.8828 160.532 
" clip-path="url(#p12e38adac1)" style="fill: #ffffff; stroke: #ffffff; stroke-width: 0.5"/>
    <path d="M 651.0204 160.532 
L 734.158 160.532 
L 734.158 194.185 
L 651.0204 194.185 
L 651.0204 160.532 
" clip-path="url(#p12e38adac1)" style="fill: #ffffff; stroke: #ffffff; stroke-width: 0.5"/>
    <path d="M 318.47 194.185 
L 401.6076 194.185 
L 401.6076 227.838 
L 318.47 227.838 
L 318.47 194.185 
" clip-path="url(#p12e38adac1)" style="fill: #ffffff; stroke: #ffffff; stroke-width: 0.5"/>
    <path d="M 401.6076 194.185 
L 484.7452 194.185 
L 484.7452 227.838 
L 401.6076 227.838 
L 401.6076 194.185 
" clip-path="url(#p12e38adac1)" style="stroke: #ffffff; stroke-width: 0.5"/>
    <path d="M 484.7452 194.185 
L 567.8828 194.185 
L 567.8828 227.838 
L 484.7452 227.838 
L 484.7452 194.185 
" clip-path="url(#p12e38adac1)" style="stroke: #ffffff; stroke-width: 0.5"/>
    <path d="M 567.8828 194.185 
L 651.0204 194.185 
L 651.0204 227.838 
L 567.8828 227.838 
L 567.8828 194.185 
" clip-path="url(#p12e38adac1)" style="fill: #ffffff; stroke: #ffffff; stroke-width: 0.5"/>
    <path d="M 651.0204 194.185 
L 734.158 194.185 
L 734.158 227.838 
L 651.0204 227.838 
L 651.0204 194.185 
" clip-path="url(#p12e38adac1)" style="fill: #ffffff; stroke: #ffffff; stroke-width: 0.5"/>
    <path d="M 318.47 227.838 
L 401.6076 227.838 
L 401.6076 261.491 
L 318.47 261.491 
L 318.47 227.838 
" clip-path="url(#p12e38adac1)" style="fill: #ffffff; stroke: #ffffff; stroke-width: 0.5"/>
    <path d="M 401.6076 227.838 
L 484.7452 227.838 
L 484.7452 261.491 
L 401.6076 261.491 
L 401.6076 227.838 
" clip-path="url(#p12e38adac1)" style="fill: #ffffff; stroke: #ffffff; stroke-width: 0.5"/>
    <path d="M 484.7452 227.838 
L 567.8828 227.838 
L 567.8828 261.491 
L 484.7452 261.491 
L 484.7452 227.838 
" clip-path="url(#p12e38adac1)" style="stroke: #ffffff; stroke-width: 0.5"/>
    <path d="M 567.8828 227.838 
L 651.0204 227.838 
L 651.0204 261.491 
L 567.8828 261.491 
L 567.8828 227.838 
" clip-path="url(#p12e38adac1)" style="fill: #ffffff; stroke: #ffffff; stroke-width: 0.5"/>
    <path d="M 651.0204 227.838 
L 734.158 227.838 
L 734.158 261.491 
L 651.0204 261.491 
L 651.0204 227.838 
" clip-path="url(#p12e38adac1)" style="fill: #ffffff; stroke: #ffffff; stroke-width: 0.5"/>
    <path d="M 318.47 261.491 
L 401.6076 261.491 
L 401.6076 295.144 
L 318.47 295.144 
L 318.47 261.491 
" clip-path="url(#p12e38adac1)" style="fill: #ffffff; stroke: #ffffff; stroke-width: 0.5"/>
    <path d="M 401.6076 261.491 
L 484.7452 261.491 
L 484.7452 295.144 
L 401.6076 295.144 
L 401.6076 261.491 
" clip-path="url(#p12e38adac1)" style="stroke: #ffffff; stroke-width: 0.5"/>
    <path d="M 484.7452 261.491 
L 567.8828 261.491 
L 567.8828 295.144 
L 484.7452 295.144 
L 484.7452 261.491 
" clip-path="url(#p12e38adac1)" style="stroke: #ffffff; stroke-width: 0.5"/>
    <path d="M 567.8828 261.491 
L 651.0204 261.491 
L 651.0204 295.144 
L 567.8828 295.144 
L 567.8828 261.491 
" clip-path="url(#p12e38adac1)" style="fill: #ffffff; stroke: #ffffff; stroke-width: 0.5"/>
    <path d="M 651.0204 261.491 
L 734.158 261.491 
L 734.158 295.144 
L 651.0204 295.144 
L 651.0204 261.491 
" clip-path="url(#p12e38adac1)" style="fill: #ffffff; stroke: #ffffff; stroke-width: 0.5"/>
    <path d="M 318.47 295.144 
L 401.6076 295.144 
L 401.6076 328.797 
L 318.47 328.797 
L 318.47 295.144 
" clip-path="url(#p12e38adac1)" style="fill: #ffffff; stroke: #ffffff; stroke-width: 0.5"/>
    <path d="M 401.6076 295.144 
L 484.7452 295.144 
L 484.7452 328.797 
L 401.6076 328.797 
L 401.6076 295.144 
" clip-path="url(#p12e38adac1)" style="fill: #ffffff; stroke: #ffffff; stroke-width: 0.5"/>
    <path d="M 484.7452 295.144 
L 567.8828 295.144 
L 567.8828 328.797 
L 484.7452 328.797 
L 484.7452 295.144 
" clip-path="url(#p12e38adac1)" style="stroke: #ffffff; stroke-width: 0.5"/>
    <path d="M 567.8828 295.144 
L 651.0204 295.144 
L 651.0204 328.797 
L 567.8828 328.797 
L 567.8828 295.144 
" clip-path="url(#p12e38adac1)" style="stroke: #ffffff; stroke-width: 0.5"/>
    <path d="M 651.0204 295.144 
L 734.158 295.144 
L 734.158 328.797 
L 651.0204 328.797 
L 651.0204 295.144 
" clip-path="url(#p12e38adac1)" style="stroke: #ffffff; stroke-width: 0.5"/>
    <path d="M 318.47 328.797 
L 401.6076 328.797 
L 401.6076 362.45 
L 318.47 362.45 
L 318.47 328.797 
" clip-path="url(#p12e38adac1)" style="fill: #ffffff; stroke: #ffffff; stroke-width: 0.5"/>
    <path d="M 401.6076 328.797 
L 484.7452 328.797 
L 484.7452 362.45 
L 401.6076 362.45 
L 401.6076 328.797 
" clip-path="url(#p12e38adac1)" style="fill: #ffffff; stroke: #ffffff; stroke-width: 0.5"/>
    <path d="M 484.7452 328.797 
L 567.8828 328.797 
L 567.8828 362.45 
L 484.7452 362.45 
L 484.7452 328.797 
" clip-path="url(#p12e38adac1)" style="fill: #ffffff; stroke: #ffffff; stroke-width: 0.5"/>
    <path d="M 567.8828 328.797 
L 651.0204 328.797 
L 651.0204 362.45 
L 567.8828 362.45 
L 567.8828 328.797 
" clip-path="url(#p12e38adac1)" style="stroke: #ffffff; stroke-width: 0.5"/>
    <path d="M 651.0204 328.797 
L 734.158 328.797 
L 734.158 362.45 
L 651.0204 362.45 
L 651.0204 328.797 
" clip-path="url(#p12e38adac1)" style="stroke: #ffffff; stroke-width: 0.5"/>
    <path d="M 318.47 362.45 
L 401.6076 362.45 
L 401.6076 396.103 
L 318.47 396.103 
L 318.47 362.45 
" clip-path="url(#p12e38adac1)" style="fill: #ffffff; stroke: #ffffff; stroke-width: 0.5"/>
    <path d="M 401.6076 362.45 
L 484.7452 362.45 
L 484.7452 396.103 
L 401.6076 396.103 
L 401.6076 362.45 
" clip-path="url(#p12e38adac1)" style="fill: #ffffff; stroke: #ffffff; stroke-width: 0.5"/>
    <path d="M 484.7452 362.45 
L 567.8828 362.45 
L 567.8828 396.103 
L 484.7452 396.103 
L 484.7452 362.45 
" clip-path="url(#p12e38adac1)" style="fill: #ffffff; stroke: #ffffff; stroke-width: 0.5"/>
    <path d="M 567.8828 362.45 
L 651.0204 362.45 
L 651.0204 396.103 
L 567.8828 396.103 
L 567.8828 362.45 
" clip-path="url(#p12e38adac1)" style="stroke: #ffffff; stroke-width: 0.5"/>
    <path d="M 651.0204 362.45 
L 734.158 362.45 
L 734.158 396.103 
L 651.0204 396.103 
L 651.0204 362.45 
" clip-path="url(#p12e38adac1)" style="stroke: #ffffff; stroke-width: 0.5"/>
    <path d="M 318.47 396.103 
L 401.6076 396.103 
L 401.6076 429.756 
L 318.47 429.756 
L 318.47 396.103 
" clip-path="url(#p12e38adac1)" style="fill: #ffffff; stroke: #ffffff; stroke-width: 0.5"/>
    <path d="M 401.6076 396.103 
L 484.7452 396.103 
L 484.7452 429.756 
L 401.6076 429.756 
L 401.6076 396.103 
" clip-path="url(#p12e38adac1)" style="fill: #ffffff; stroke: #ffffff; stroke-width: 0.5"/>
    <path d="M 484.7452 396.103 
L 567.8828 396.103 
L 567.8828 429.756 
L 484.7452 429.756 
L 484.7452 396.103 
" clip-path="url(#p12e38adac1)" style="fill: #ffffff; stroke: #ffffff; stroke-width: 0.5"/>
    <path d="M 567.8828 396.103 
L 651.0204 396.103 
L 651.0204 429.756 
L 567.8828 429.756 
L 567.8828 396.103 
" clip-path="url(#p12e38adac1)" style="stroke: #ffffff; stroke-width: 0.5"/>
    <path d="M 651.0204 396.103 
L 734.158 396.103 
L 734.158 429.756 
L 651.0204 429.756 
L 651.0204 396.103 
" clip-path="url(#p12e38adac1)" style="stroke: #ffffff; stroke-width: 0.5"/>
    <path d="M 318.47 429.756 
L 401.6076 429.756 
L 401.6076 463.409 
L 318.47 463.409 
L 318.47 429.756 
" clip-path="url(#p12e38adac1)" style="fill: #ffffff; stroke: #ffffff; stroke-width: 0.5"/>
    <path d="M 401.6076 429.756 
L 484.7452 429.756 
L 484.7452 463.409 
L 401.6076 463.409 
L 401.6076 429.756 
" clip-path="url(#p12e38adac1)" style="stroke: #ffffff; stroke-width: 0.5"/>
    <path d="M 484.7452 429.756 
L 567.8828 429.756 
L 567.8828 463.409 
L 484.7452 463.409 
L 484.7452 429.756 
" clip-path="url(#p12e38adac1)" style="fill: #ffffff; stroke: #ffffff; stroke-width: 0.5"/>
    <path d="M 567.8828 429.756 
L 651.0204 429.756 
L 651.0204 463.409 
L 567.8828 463.409 
L 567.8828 429.756 
" clip-path="url(#p12e38adac1)" style="stroke: #ffffff; stroke-width: 0.5"/>
    <path d="M 651.0204 429.756 
L 734.158 429.756 
L 734.158 463.409 
L 651.0204 463.409 
L 651.0204 429.756 
" clip-path="url(#p12e38adac1)" style="stroke: #ffffff; stroke-width: 0.5"/>
    <path d="M 318.47 463.409 
L 401.6076 463.409 
L 401.6076 497.062 
L 318.47 497.062 
L 318.47 463.409 
" clip-path="url(#p12e38adac1)" style="fill: #ffffff; stroke: #ffffff; stroke-width: 0.5"/>
    <path d="M 401.6076 463.409 
L 484.7452 463.409 
L 484.7452 497.062 
L 401.6076 497.062 
L 401.6076 463.409 
" clip-path="url(#p12e38adac1)" style="fill: #ffffff; stroke: #ffffff; stroke-width: 0.5"/>
    <path d="M 484.7452 463.409 
L 567.8828 463.409 
L 567.8828 497.062 
L 484.7452 497.062 
L 484.7452 463.409 
" clip-path="url(#p12e38adac1)" style="fill: #ffffff; stroke: #ffffff; stroke-width: 0.5"/>
    <path d="M 567.8828 463.409 
L 651.0204 463.409 
L 651.0204 497.062 
L 567.8828 497.062 
L 567.8828 463.409 
" clip-path="url(#p12e38adac1)" style="stroke: #ffffff; stroke-width: 0.5"/>
    <path d="M 651.0204 463.409 
L 734.158 463.409 
L 734.158 497.062 
L 651.0204 497.062 
L 651.0204 463.409 
" clip-path="url(#p12e38adac1)" style="fill: #ffffff; stroke: #ffffff; stroke-width: 0.5"/>
    <path d="M 318.47 497.062 
L 401.6076 497.062 
L 401.6076 530.715 
L 318.47 530.715 
L 318.47 497.062 
" clip-path="url(#p12e38adac1)" style="fill: #ffffff; stroke: #ffffff; stroke-width: 0.5"/>
    <path d="M 401.6076 497.062 
L 484.7452 497.062 
L 484.7452 530.715 
L 401.6076 530.715 
L 401.6076 497.062 
" clip-path="url(#p12e38adac1)" style="fill: #ffffff; stroke: #ffffff; stroke-width: 0.5"/>
    <path d="M 484.7452 497.062 
L 567.8828 497.062 
L 567.8828 530.715 
L 484.7452 530.715 
L 484.7452 497.062 
" clip-path="url(#p12e38adac1)" style="fill: #ffffff; stroke: #ffffff; stroke-width: 0.5"/>
    <path d="M 567.8828 497.062 
L 651.0204 497.062 
L 651.0204 530.715 
L 567.8828 530.715 
L 567.8828 497.062 
" clip-path="url(#p12e38adac1)" style="stroke: #ffffff; stroke-width: 0.5"/>
    <path d="M 651.0204 497.062 
L 734.158 497.062 
L 734.158 530.715 
L 651.0204 530.715 
L 651.0204 497.062 
" clip-path="url(#p12e38adac1)" style="fill: #ffffff; stroke: #ffffff; stroke-width: 0.5"/>
    <path d="M 318.47 530.715 
L 401.6076 530.715 
L 401.6076 564.368 
L 318.47 564.368 
L 318.47 530.715 
" clip-path="url(#p12e38adac1)" style="fill: #ffffff; stroke: #ffffff; stroke-width: 0.5"/>
    <path d="M 401.6076 530.715 
L 484.7452 530.715 
L 484.7452 564.368 
L 401.6076 564.368 
L 401.6076 530.715 
" clip-path="url(#p12e38adac1)" style="fill: #ffffff; stroke: #ffffff; stroke-width: 0.5"/>
    <path d="M 484.7452 530.715 
L 567.8828 530.715 
L 567.8828 564.368 
L 484.7452 564.368 
L 484.7452 530.715 
" clip-path="url(#p12e38adac1)" style="fill: #ffffff; stroke: #ffffff; stroke-width: 0.5"/>
    <path d="M 567.8828 530.715 
L 651.0204 530.715 
L 651.0204 564.368 
L 567.8828 564.368 
L 567.8828 530.715 
" clip-path="url(#p12e38adac1)" style="stroke: #ffffff; stroke-width: 0.5"/>
    <path d="M 651.0204 530.715 
L 734.158 530.715 
L 734.158 564.368 
L 651.0204 564.368 
L 651.0204 530.715 
" clip-path="url(#p12e38adac1)" style="fill: #ffffff; stroke: #ffffff; stroke-width: 0.5"/>
    <path d="M 318.47 564.368 
L 401.6076 564.368 
L 401.6076 598.021 
L 318.47 598.021 
L 318.47 564.368 
" clip-path="url(#p12e38adac1)" style="fill: #ffffff; stroke: #ffffff; stroke-width: 0.5"/>
    <path d="M 401.6076 564.368 
L 484.7452 564.368 
L 484.7452 598.021 
L 401.6076 598.021 
L 401.6076 564.368 
" clip-path="url(#p12e38adac1)" style="fill: #ffffff; stroke: #ffffff; stroke-width: 0.5"/>
    <path d="M 484.7452 564.368 
L 567.8828 564.368 
L 567.8828 598.021 
L 484.7452 598.021 
L 484.7452 564.368 
" clip-path="url(#p12e38adac1)" style="stroke: #ffffff; stroke-width: 0.5"/>
    <path d="M 567.8828 564.368 
L 651.0204 564.368 
L 651.0204 598.021 
L 567.8828 598.021 
L 567.8828 564.368 
" clip-path="url(#p12e38adac1)" style="fill: #ffffff; stroke: #ffffff; stroke-width: 0.5"/>
    <path d="M 651.0204 564.368 
L 734.158 564.368 
L 734.158 598.021 
L 651.0204 598.021 
L 651.0204 564.368 
" clip-path="url(#p12e38adac1)" style="fill: #ffffff; stroke: #ffffff; stroke-width: 0.5"/>
    <path d="M 318.47 598.021 
L 401.6076 598.021 
L 401.6076 631.674 
L 318.47 631.674 
L 318.47 598.021 
" clip-path="url(#p12e38adac1)" style="fill: #ffffff; stroke: #ffffff; stroke-width: 0.5"/>
    <path d="M 401.6076 598.021 
L 484.7452 598.021 
L 484.7452 631.674 
L 401.6076 631.674 
L 401.6076 598.021 
" clip-path="url(#p12e38adac1)" style="fill: #ffffff; stroke: #ffffff; stroke-width: 0.5"/>
    <path d="M 484.7452 598.021 
L 567.8828 598.021 
L 567.8828 631.674 
L 484.7452 631.674 
L 484.7452 598.021 
" clip-path="url(#p12e38adac1)" style="stroke: #ffffff; stroke-width: 0.5"/>
    <path d="M 567.8828 598.021 
L 651.0204 598.021 
L 651.0204 631.674 
L 567.8828 631.674 
L 567.8828 598.021 
" clip-path="url(#p12e38adac1)" style="fill: #ffffff; stroke: #ffffff; stroke-width: 0.5"/>
    <path d="M 651.0204 598.021 
L 734.158 598.021 
L 734.158 631.674 
L 651.0204 631.674 
L 651.0204 598.021 
" clip-path="url(#p12e38adac1)" style="fill: #ffffff; stroke: #ffffff; stroke-width: 0.5"/>
    <path d="M 318.47 631.674 
L 401.6076 631.674 
L 401.6076 665.327 
L 318.47 665.327 
L 318.47 631.674 
" clip-path="url(#p12e38adac1)" style="fill: #ffffff; stroke: #ffffff; stroke-width: 0.5"/>
    <path d="M 401.6076 631.674 
L 484.7452 631.674 
L 484.7452 665.327 
L 401.6076 665.327 
L 401.6076 631.674 
" clip-path="url(#p12e38adac1)" style="fill: #ffffff; stroke: #ffffff; stroke-width: 0.5"/>
    <path d="M 484.7452 631.674 
L 567.8828 631.674 
L 567.8828 665.327 
L 484.7452 665.327 
L 484.7452 631.674 
" clip-path="url(#p12e38adac1)" style="stroke: #ffffff; stroke-width: 0.5"/>
    <path d="M 567.8828 631.674 
L 651.0204 631.674 
L 651.0204 665.327 
L 567.8828 665.327 
L 567.8828 631.674 
" clip-path="url(#p12e38adac1)" style="fill: #ffffff; stroke: #ffffff; stroke-width: 0.5"/>
    <path d="M 651.0204 631.674 
L 734.158 631.674 
L 734.158 665.327 
L 651.0204 665.327 
L 651.0204 631.674 
" clip-path="url(#p12e38adac1)" style="fill: #ffffff; stroke: #ffffff; stroke-width: 0.5"/>
    <path d="M 318.47 665.327 
L 401.6076 665.327 
L 401.6076 698.98 
L 318.47 698.98 
L 318.47 665.327 
" clip-path="url(#p12e38adac1)" style="fill: #ffffff; stroke: #ffffff; stroke-width: 0.5"/>
    <path d="M 401.6076 665.327 
L 484.7452 665.327 
L 484.7452 698.98 
L 401.6076 698.98 
L 401.6076 665.327 
" clip-path="url(#p12e38adac1)" style="fill: #ffffff; stroke: #ffffff; stroke-width: 0.5"/>
    <path d="M 484.7452 665.327 
L 567.8828 665.327 
L 567.8828 698.98 
L 484.7452 698.98 
L 484.7452 665.327 
" clip-path="url(#p12e38adac1)" style="stroke: #ffffff; stroke-width: 0.5"/>
    <path d="M 567.8828 665.327 
L 651.0204 665.327 
L 651.0204 698.98 
L 567.8828 698.98 
L 567.8828 665.327 
" clip-path="url(#p12e38adac1)" style="fill: #ffffff; stroke: #ffffff; stroke-width: 0.5"/>
    <path d="M 651.0204 665.327 
L 734.158 665.327 
L 734.158 698.98 
L 651.0204 698.98 
L 651.0204 665.327 
" clip-path="url(#p12e38adac1)" style="fill: #ffffff; stroke: #ffffff; stroke-width: 0.5"/>
   </g>
  </g>
  <g id="axes_2">
   <g id="patch_3">
    <path d="M 760.1385 698.98 
L 793.7915 698.98 
L 793.7915 25.92 
L 760.1385 25.92 
z
" style="fill: #eaeaf2"/>
   </g>
   <g id="patch_4">
    <path clip-path="url(#p2c37388036)" style="fill: #eaeaf2; stroke: #eaeaf2; stroke-width: 0.01; stroke-linejoin: miter"/>
   </g>
   <g id="matplotlib.axis_3"/>
   <g id="matplotlib.axis_4">
    <g id="ytick_21">
     <g id="line2d_1">
      <defs>
       <path id="m18a7605093" d="M 0 0 
L 6 0 
" style="stroke: #262626; stroke-width: 1.25"/>
      </defs>
      <g>
       <use xlink:href="#m18a7605093" x="793.7915" y="530.715" style="fill: #262626; stroke: #262626; stroke-width: 1.25"/>
      </g>
     </g>
     <g id="text_26">
      <!-- No -->
      <g style="fill: #262626" transform="translate(803.2915 538.588594) scale(0.22 -0.22)">
       <defs>
        <path id="ArialMT-4e" d="M 488 0 
L 488 4581 
L 1109 4581 
L 3516 984 
L 3516 4581 
L 4097 4581 
L 4097 0 
L 3475 0 
L 1069 3600 
L 1069 0 
L 488 0 
z
" transform="scale(0.015625)"/>
       </defs>
       <use xlink:href="#ArialMT-4e"/>
       <use xlink:href="#ArialMT-6f" x="72.216797"/>
      </g>
     </g>
    </g>
    <g id="ytick_22">
     <g id="line2d_2">
      <g>
       <use xlink:href="#m18a7605093" x="793.7915" y="194.185" style="fill: #262626; stroke: #262626; stroke-width: 1.25"/>
      </g>
     </g>
     <g id="text_27">
      <!-- Yes -->
      <g style="fill: #262626" transform="translate(803.2915 202.058594) scale(0.22 -0.22)">
       <defs>
        <path id="ArialMT-59" d="M 1784 0 
L 1784 1941 
L 19 4581 
L 756 4581 
L 1659 3200 
Q 1909 2813 2125 2425 
Q 2331 2784 2625 3234 
L 3513 4581 
L 4219 4581 
L 2391 1941 
L 2391 0 
L 1784 0 
z
" transform="scale(0.015625)"/>
       </defs>
       <use xlink:href="#ArialMT-59"/>
       <use xlink:href="#ArialMT-65" x="57.574219"/>
       <use xlink:href="#ArialMT-73" x="113.189453"/>
      </g>
     </g>
    </g>
   </g>
   <g id="QuadMesh_2">
    <path d="M 760.1385 698.98 
L 793.7915 698.98 
L 793.7915 362.45 
L 760.1385 362.45 
L 760.1385 698.98 
" clip-path="url(#p2c37388036)"/>
    <path d="M 760.1385 362.45 
L 793.7915 362.45 
L 793.7915 25.92 
L 760.1385 25.92 
L 760.1385 362.45 
" clip-path="url(#p2c37388036)" style="fill: #ffffff"/>
   </g>
   <g id="LineCollection_1"/>
   <g id="patch_5">
    <path d="M 760.1385 698.98 
L 776.965 698.98 
L 793.7915 698.98 
L 793.7915 25.92 
L 776.965 25.92 
L 760.1385 25.92 
L 760.1385 698.98 
z
" style="fill: none"/>
   </g>
  </g>
 </g>
 <defs>
  <clipPath id="p12e38adac1">
   <rect x="318.47" y="25.92" width="415.688" height="673.06"/>
  </clipPath>
  <clipPath id="p2c37388036">
   <rect x="760.1385" y="25.92" width="33.653" height="673.06"/>
  </clipPath>
 </defs>
</svg>
