<?xml version="1.0" encoding="utf-8" standalone="no"?>
<!DOCTYPE svg PUBLIC "-//W3C//DTD SVG 1.1//EN"
  "http://www.w3.org/Graphics/SVG/1.1/DTD/svg11.dtd">
<svg xmlns:xlink="http://www.w3.org/1999/xlink" width="720pt" height="432pt" viewBox="0 0 720 432" xmlns="http://www.w3.org/2000/svg" version="1.1">
 <metadata>
  <rdf:RDF xmlns:dc="http://purl.org/dc/elements/1.1/" xmlns:cc="http://creativecommons.org/ns#" xmlns:rdf="http://www.w3.org/1999/02/22-rdf-syntax-ns#">
   <cc:Work>
    <dc:type rdf:resource="http://purl.org/dc/dcmitype/StillImage"/>
    <dc:date>2024-10-07T08:53:58.285195</dc:date>
    <dc:format>image/svg+xml</dc:format>
    <dc:creator>
     <cc:Agent>
      <dc:title>Matplotlib v3.6.2, https://matplotlib.org/</dc:title>
     </cc:Agent>
    </dc:creator>
   </cc:Work>
  </rdf:RDF>
 </metadata>
 <defs>
  <style type="text/css">*{stroke-linejoin: round; stroke-linecap: butt}</style>
 </defs>
 <g id="figure_1">
  <g id="patch_1">
   <path d="M 0 432 
L 720 432 
L 720 0 
L 0 0 
z
" style="fill: #ffffff"/>
  </g>
  <g id="axes_1">
   <g id="patch_2">
    <path d="M 90 384.48 
L 648 384.48 
L 648 51.84 
L 90 51.84 
z
" style="fill: #ffffff"/>
   </g>
   <g id="PolyCollection_1">
    <defs>
     <path id="mef4c454454" d="M 153.51309 -183.692397 
L 152.102428 -183.692397 
L 151.945105 -184.443903 
L 151.763883 -185.195409 
L 151.557982 -185.946916 
L 151.327324 -186.698422 
L 151.072667 -187.449929 
L 150.795719 -188.201435 
L 150.499219 -188.952942 
L 150.186969 -189.704448 
L 149.863801 -190.455955 
L 149.535489 -191.207461 
L 149.208581 -191.958968 
L 148.890171 -192.710474 
L 148.587601 -193.461981 
L 148.308118 -194.213487 
L 148.058498 -194.964994 
L 147.84465 -195.7165 
L 147.671232 -196.468007 
L 147.541302 -197.219513 
L 147.456018 -197.97102 
L 147.414411 -198.722526 
L 147.413246 -199.474033 
L 147.446976 -200.225539 
L 147.507798 -200.977046 
L 147.585795 -201.728552 
L 147.669168 -202.480059 
L 147.744537 -203.231565 
L 147.797296 -203.983072 
L 147.812003 -204.734578 
L 147.772798 -205.486085 
L 147.663816 -206.237591 
L 147.469611 -206.989098 
L 147.175554 -207.740604 
L 146.768235 -208.492111 
L 146.235836 -209.243617 
L 145.568505 -209.995124 
L 144.758717 -210.74663 
L 143.80163 -211.498137 
L 142.695425 -212.249643 
L 141.441637 -213.00115 
L 140.045444 -213.752656 
L 138.51591 -214.504163 
L 136.866152 -215.255669 
L 135.113393 -216.007176 
L 133.278889 -216.758682 
L 131.387688 -217.510189 
L 129.468207 -218.261695 
L 127.551618 -219.013202 
L 125.671041 -219.764708 
L 123.860564 -220.516215 
L 122.154134 -221.267721 
L 120.584357 -222.019228 
L 119.181275 -222.770734 
L 117.971203 -223.522241 
L 116.975687 -224.273747 
L 116.210661 -225.025254 
L 115.685866 -225.77676 
L 115.404575 -226.528267 
L 115.363636 -227.279773 
L 115.553849 -228.03128 
L 115.960634 -228.782786 
L 116.564953 -229.534293 
L 117.344412 -230.285799 
L 118.274457 -231.037306 
L 119.329602 -231.788812 
L 120.484575 -232.540319 
L 121.715343 -233.291825 
L 122.999935 -234.043332 
L 124.319039 -234.794838 
L 125.656352 -235.546345 
L 126.998692 -236.297851 
L 128.335891 -237.049358 
L 129.660513 -237.800864 
L 130.967431 -238.552371 
L 132.253335 -239.303877 
L 133.5162 -240.055384 
L 134.754778 -240.80689 
L 135.968138 -241.558397 
L 137.155295 -242.309903 
L 138.314929 -243.06141 
L 139.445218 -243.812916 
L 140.543769 -244.564423 
L 141.607642 -245.315929 
L 142.633453 -246.067436 
L 143.617531 -246.818942 
L 144.556111 -247.570449 
L 145.445545 -248.321955 
L 146.282508 -249.073462 
L 147.064186 -249.824968 
L 147.788425 -250.576475 
L 148.453854 -251.327981 
L 149.059948 -252.079488 
L 149.607051 -252.830994 
L 150.096357 -253.582501 
L 150.529845 -254.334007 
L 150.910189 -255.085514 
L 151.240639 -255.83702 
L 151.524891 -256.588527 
L 151.766944 -257.340033 
L 151.970966 -258.091539 
L 153.644552 -258.091539 
L 153.644552 -258.091539 
L 153.848574 -257.340033 
L 154.090627 -256.588527 
L 154.374878 -255.83702 
L 154.705329 -255.085514 
L 155.085673 -254.334007 
L 155.519161 -253.582501 
L 156.008467 -252.830994 
L 156.55557 -252.079488 
L 157.161664 -251.327981 
L 157.827093 -250.576475 
L 158.551332 -249.824968 
L 159.33301 -249.073462 
L 160.169973 -248.321955 
L 161.059407 -247.570449 
L 161.997987 -246.818942 
L 162.982065 -246.067436 
L 164.007876 -245.315929 
L 165.071749 -244.564423 
L 166.170299 -243.812916 
L 167.300589 -243.06141 
L 168.460223 -242.309903 
L 169.64738 -241.558397 
L 170.86074 -240.80689 
L 172.099318 -240.055384 
L 173.362183 -239.303877 
L 174.648087 -238.552371 
L 175.955005 -237.800864 
L 177.279627 -237.049358 
L 178.616826 -236.297851 
L 179.959166 -235.546345 
L 181.296479 -234.794838 
L 182.615583 -234.043332 
L 183.900175 -233.291825 
L 185.130943 -232.540319 
L 186.285916 -231.788812 
L 187.34106 -231.037306 
L 188.271106 -230.285799 
L 189.050565 -229.534293 
L 189.654884 -228.782786 
L 190.061669 -228.03128 
L 190.251882 -227.279773 
L 190.210942 -226.528267 
L 189.929651 -225.77676 
L 189.404857 -225.025254 
L 188.639831 -224.273747 
L 187.644315 -223.522241 
L 186.434243 -222.770734 
L 185.031161 -222.019228 
L 183.461384 -221.267721 
L 181.754954 -220.516215 
L 179.944477 -219.764708 
L 178.063899 -219.013202 
L 176.147311 -218.261695 
L 174.22783 -217.510189 
L 172.336629 -216.758682 
L 170.502125 -216.007176 
L 168.749366 -215.255669 
L 167.099608 -214.504163 
L 165.570074 -213.752656 
L 164.173881 -213.00115 
L 162.920092 -212.249643 
L 161.813888 -211.498137 
L 160.856801 -210.74663 
L 160.047013 -209.995124 
L 159.379682 -209.243617 
L 158.847283 -208.492111 
L 158.439964 -207.740604 
L 158.145907 -206.989098 
L 157.951702 -206.237591 
L 157.84272 -205.486085 
L 157.803515 -204.734578 
L 157.818222 -203.983072 
L 157.870981 -203.231565 
L 157.94635 -202.480059 
L 158.029723 -201.728552 
L 158.10772 -200.977046 
L 158.168541 -200.225539 
L 158.202272 -199.474033 
L 158.201107 -198.722526 
L 158.1595 -197.97102 
L 158.074216 -197.219513 
L 157.944286 -196.468007 
L 157.770868 -195.7165 
L 157.55702 -194.964994 
L 157.3074 -194.213487 
L 157.027917 -193.461981 
L 156.725347 -192.710474 
L 156.406937 -191.958968 
L 156.080029 -191.207461 
L 155.751717 -190.455955 
L 155.428549 -189.704448 
L 155.116299 -188.952942 
L 154.819799 -188.201435 
L 154.542851 -187.449929 
L 154.288194 -186.698422 
L 154.057536 -185.946916 
L 153.851635 -185.195409 
L 153.670413 -184.443903 
L 153.51309 -183.692397 
z
" style="stroke: #3d3d3d; stroke-width: 1.5"/>
    </defs>
    <g clip-path="url(#p0e607552b3)">
     <use xlink:href="#mef4c454454" x="0" y="432" style="fill: #3274a1; stroke: #3d3d3d; stroke-width: 1.5"/>
    </g>
   </g>
   <g id="PolyCollection_2">
    <defs>
     <path id="m0d9987e250" d="M 383.582665 -205.607018 
L 381.287752 -205.607018 
L 381.018005 -206.111021 
L 380.7017 -206.615024 
L 380.334947 -207.119027 
L 379.914412 -207.62303 
L 379.437484 -208.127033 
L 378.902423 -208.631035 
L 378.308459 -209.135038 
L 377.655835 -209.639041 
L 376.945775 -210.143044 
L 376.180375 -210.647047 
L 375.362393 -211.15105 
L 374.494967 -211.655053 
L 373.581246 -212.159055 
L 372.623961 -212.663058 
L 371.624972 -213.167061 
L 370.584808 -213.671064 
L 369.502255 -214.175067 
L 368.374032 -214.67907 
L 367.194591 -215.183073 
L 365.956102 -215.687076 
L 364.648637 -216.191078 
L 363.260595 -216.695081 
L 361.779369 -217.199084 
L 360.192248 -217.703087 
L 358.487525 -218.20709 
L 356.655773 -218.711093 
L 354.691196 -219.215096 
L 352.592997 -219.719098 
L 350.366635 -220.223101 
L 348.024879 -220.727104 
L 345.588553 -221.231107 
L 343.086859 -221.73511 
L 340.557222 -222.239113 
L 338.0446 -222.743116 
L 335.600233 -223.247118 
L 333.279897 -223.751121 
L 331.141692 -224.255124 
L 329.243516 -224.759127 
L 327.640343 -225.26313 
L 326.381496 -225.767133 
L 325.508097 -226.271136 
L 325.050848 -226.775139 
L 325.028346 -227.279141 
L 325.446007 -227.783144 
L 326.295718 -228.287147 
L 327.55622 -228.79115 
L 329.194196 -229.295153 
L 331.165986 -229.799156 
L 333.419794 -230.303159 
L 335.898224 -230.807161 
L 338.540969 -231.311164 
L 341.287461 -231.815167 
L 344.079323 -232.31917 
L 346.86247 -232.823173 
L 349.588761 -233.327176 
L 352.217146 -233.831179 
L 354.714287 -234.335181 
L 357.054692 -234.839184 
L 359.220417 -235.343187 
L 361.200446 -235.84719 
L 362.989833 -236.351193 
L 364.588733 -236.855196 
L 366.001416 -237.359199 
L 367.235345 -237.863202 
L 368.300378 -238.367204 
L 369.208126 -238.871207 
L 369.971479 -239.37521 
L 370.604274 -239.879213 
L 371.121087 -240.383216 
L 371.537091 -240.887219 
L 371.867937 -241.391222 
L 372.129634 -241.895224 
L 372.338362 -242.399227 
L 372.510226 -242.90323 
L 372.660941 -243.407233 
L 372.805445 -243.911236 
L 372.957479 -244.415239 
L 373.129159 -244.919242 
L 373.330578 -245.423244 
L 373.569473 -245.927247 
L 373.850994 -246.43125 
L 374.177596 -246.935253 
L 374.549066 -247.439256 
L 374.962687 -247.943259 
L 375.413532 -248.447262 
L 375.894854 -248.951265 
L 376.398565 -249.455267 
L 376.915737 -249.95927 
L 377.437129 -250.463273 
L 377.953668 -250.967276 
L 378.456885 -251.471279 
L 378.939266 -251.975282 
L 379.394511 -252.479285 
L 379.817697 -252.983287 
L 380.205338 -253.48729 
L 380.555369 -253.991293 
L 380.867045 -254.495296 
L 381.140791 -254.999299 
L 381.37801 -255.503302 
L 383.492407 -255.503302 
L 383.492407 -255.503302 
L 383.729627 -254.999299 
L 384.003372 -254.495296 
L 384.315048 -253.991293 
L 384.665079 -253.48729 
L 385.05272 -252.983287 
L 385.475906 -252.479285 
L 385.931151 -251.975282 
L 386.413532 -251.471279 
L 386.916749 -250.967276 
L 387.433288 -250.463273 
L 387.95468 -249.95927 
L 388.471852 -249.455267 
L 388.975563 -248.951265 
L 389.456886 -248.447262 
L 389.90773 -247.943259 
L 390.321351 -247.439256 
L 390.692821 -246.935253 
L 391.019423 -246.43125 
L 391.300944 -245.927247 
L 391.539839 -245.423244 
L 391.741258 -244.919242 
L 391.912938 -244.415239 
L 392.064973 -243.911236 
L 392.209476 -243.407233 
L 392.360191 -242.90323 
L 392.532056 -242.399227 
L 392.740783 -241.895224 
L 393.00248 -241.391222 
L 393.333327 -240.887219 
L 393.74933 -240.383216 
L 394.266143 -239.879213 
L 394.898938 -239.37521 
L 395.662291 -238.871207 
L 396.570039 -238.367204 
L 397.635072 -237.863202 
L 398.869001 -237.359199 
L 400.281685 -236.855196 
L 401.880584 -236.351193 
L 403.669971 -235.84719 
L 405.65 -235.343187 
L 407.815726 -234.839184 
L 410.15613 -234.335181 
L 412.653272 -233.831179 
L 415.281657 -233.327176 
L 418.007947 -232.823173 
L 420.791094 -232.31917 
L 423.582956 -231.815167 
L 426.329448 -231.311164 
L 428.972193 -230.807161 
L 431.450623 -230.303159 
L 433.704431 -229.799156 
L 435.676221 -229.295153 
L 437.314197 -228.79115 
L 438.574699 -228.287147 
L 439.42441 -227.783144 
L 439.842071 -227.279141 
L 439.819569 -226.775139 
L 439.362321 -226.271136 
L 438.488921 -225.767133 
L 437.230075 -225.26313 
L 435.626901 -224.759127 
L 433.728725 -224.255124 
L 431.59052 -223.751121 
L 429.270184 -223.247118 
L 426.825818 -222.743116 
L 424.313195 -222.239113 
L 421.783559 -221.73511 
L 419.281864 -221.231107 
L 416.845538 -220.727104 
L 414.503782 -220.223101 
L 412.27742 -219.719098 
L 410.179221 -219.215096 
L 408.214645 -218.711093 
L 406.382892 -218.20709 
L 404.67817 -217.703087 
L 403.091048 -217.199084 
L 401.609822 -216.695081 
L 400.22178 -216.191078 
L 398.914315 -215.687076 
L 397.675826 -215.183073 
L 396.496385 -214.67907 
L 395.368162 -214.175067 
L 394.28561 -213.671064 
L 393.245445 -213.167061 
L 392.246456 -212.663058 
L 391.289171 -212.159055 
L 390.37545 -211.655053 
L 389.508024 -211.15105 
L 388.690043 -210.647047 
L 387.924642 -210.143044 
L 387.214582 -209.639041 
L 386.561958 -209.135038 
L 385.967994 -208.631035 
L 385.432934 -208.127033 
L 384.956006 -207.62303 
L 384.53547 -207.119027 
L 384.168717 -206.615024 
L 383.852412 -206.111021 
L 383.582665 -205.607018 
z
" style="stroke: #3d3d3d; stroke-width: 1.5"/>
    </defs>
    <g clip-path="url(#p0e607552b3)">
     <use xlink:href="#m0d9987e250" x="0" y="432" style="fill: #e1812c; stroke: #3d3d3d; stroke-width: 1.5"/>
    </g>
   </g>
   <g id="PolyCollection_3">
    <defs>
     <path id="m2cd513cced" d="M 612.315343 -55.867003 
L 611.809974 -55.867003 
L 611.752971 -58.119929 
L 611.686341 -60.372855 
L 611.609216 -62.62578 
L 611.520808 -64.878706 
L 611.420435 -67.131632 
L 611.307554 -69.384557 
L 611.181783 -71.637483 
L 611.042925 -73.890409 
L 610.890979 -76.143334 
L 610.726142 -78.39626 
L 610.548801 -80.649186 
L 610.359515 -82.902111 
L 610.158989 -85.155037 
L 609.948033 -87.407963 
L 609.727515 -89.660888 
L 609.498318 -91.913814 
L 609.26128 -94.16674 
L 609.017149 -96.419665 
L 608.766543 -98.672591 
L 608.509908 -100.925517 
L 608.247505 -103.178442 
L 607.979397 -105.431368 
L 607.705468 -107.684294 
L 607.425445 -109.937219 
L 607.138948 -112.190145 
L 606.845554 -114.443071 
L 606.544871 -116.695996 
L 606.236626 -118.948922 
L 605.920758 -121.201848 
L 605.597513 -123.454773 
L 605.267533 -125.707699 
L 604.931937 -127.960625 
L 604.592389 -130.21355 
L 604.251137 -132.466476 
L 603.911039 -134.719402 
L 603.575551 -136.972327 
L 603.248686 -139.225253 
L 602.934941 -141.478179 
L 602.63919 -143.731104 
L 602.366551 -145.98403 
L 602.122219 -148.236956 
L 601.911289 -150.489881 
L 601.738556 -152.742807 
L 601.608322 -154.995733 
L 601.524203 -157.248658 
L 601.488953 -159.501584 
L 601.504321 -161.75451 
L 601.570938 -164.007435 
L 601.688253 -166.260361 
L 601.854512 -168.513287 
L 602.066797 -170.766213 
L 602.321107 -173.019138 
L 602.612498 -175.272064 
L 602.935252 -177.52499 
L 603.283091 -179.777915 
L 603.649402 -182.030841 
L 604.027483 -184.283767 
L 604.410777 -186.536692 
L 604.793096 -188.789618 
L 605.168821 -191.042544 
L 605.533065 -193.295469 
L 605.881799 -195.548395 
L 606.21193 -197.801321 
L 606.521333 -200.054246 
L 606.808847 -202.307172 
L 607.074219 -204.560098 
L 607.318022 -206.813023 
L 607.541541 -209.065949 
L 607.746641 -211.318875 
L 607.93562 -213.5718 
L 608.11106 -215.824726 
L 608.275682 -218.077652 
L 608.432201 -220.330577 
L 608.583207 -222.583503 
L 608.731053 -224.836429 
L 608.877771 -227.089354 
L 609.025006 -229.34228 
L 609.173975 -231.595206 
L 609.325448 -233.848131 
L 609.479752 -236.101057 
L 609.636792 -238.353983 
L 609.796095 -240.606908 
L 609.956861 -242.859834 
L 610.118027 -245.11276 
L 610.278346 -247.365685 
L 610.436453 -249.618611 
L 610.590945 -251.871537 
L 610.740452 -254.124462 
L 610.883691 -256.377388 
L 611.01953 -258.630314 
L 611.147017 -260.883239 
L 611.265417 -263.136165 
L 611.374221 -265.389091 
L 611.473151 -267.642016 
L 611.562151 -269.894942 
L 611.641371 -272.147868 
L 611.711138 -274.400793 
L 611.771931 -276.653719 
L 611.824345 -278.906645 
L 612.300971 -278.906645 
L 612.300971 -278.906645 
L 612.353385 -276.653719 
L 612.414178 -274.400793 
L 612.483946 -272.147868 
L 612.563165 -269.894942 
L 612.652166 -267.642016 
L 612.751096 -265.389091 
L 612.859899 -263.136165 
L 612.978299 -260.883239 
L 613.105787 -258.630314 
L 613.241625 -256.377388 
L 613.384865 -254.124462 
L 613.534371 -251.871537 
L 613.688864 -249.618611 
L 613.846971 -247.365685 
L 614.007289 -245.11276 
L 614.168456 -242.859834 
L 614.329221 -240.606908 
L 614.488524 -238.353983 
L 614.645565 -236.101057 
L 614.799869 -233.848131 
L 614.951342 -231.595206 
L 615.10031 -229.34228 
L 615.247545 -227.089354 
L 615.394263 -224.836429 
L 615.542109 -222.583503 
L 615.693115 -220.330577 
L 615.849634 -218.077652 
L 616.014256 -215.824726 
L 616.189697 -213.5718 
L 616.378676 -211.318875 
L 616.583775 -209.065949 
L 616.807294 -206.813023 
L 617.051097 -204.560098 
L 617.316469 -202.307172 
L 617.603983 -200.054246 
L 617.913387 -197.801321 
L 618.243517 -195.548395 
L 618.592251 -193.295469 
L 618.956496 -191.042544 
L 619.332221 -188.789618 
L 619.714539 -186.536692 
L 620.097833 -184.283767 
L 620.475914 -182.030841 
L 620.842225 -179.777915 
L 621.190064 -177.52499 
L 621.512818 -175.272064 
L 621.804209 -173.019138 
L 622.05852 -170.766213 
L 622.270804 -168.513287 
L 622.437063 -166.260361 
L 622.554378 -164.007435 
L 622.620996 -161.75451 
L 622.636364 -159.501584 
L 622.601114 -157.248658 
L 622.516994 -154.995733 
L 622.38676 -152.742807 
L 622.214028 -150.489881 
L 622.003097 -148.236956 
L 621.758766 -145.98403 
L 621.486126 -143.731104 
L 621.190376 -141.478179 
L 620.87663 -139.225253 
L 620.549765 -136.972327 
L 620.214277 -134.719402 
L 619.874179 -132.466476 
L 619.532928 -130.21355 
L 619.193379 -127.960625 
L 618.857784 -125.707699 
L 618.527803 -123.454773 
L 618.204558 -121.201848 
L 617.88869 -118.948922 
L 617.580445 -116.695996 
L 617.279762 -114.443071 
L 616.986368 -112.190145 
L 616.699871 -109.937219 
L 616.419848 -107.684294 
L 616.145919 -105.431368 
L 615.877812 -103.178442 
L 615.615408 -100.925517 
L 615.358773 -98.672591 
L 615.108167 -96.419665 
L 614.864037 -94.16674 
L 614.626998 -91.913814 
L 614.397801 -89.660888 
L 614.177284 -87.407963 
L 613.966327 -85.155037 
L 613.765801 -82.902111 
L 613.576516 -80.649186 
L 613.399174 -78.39626 
L 613.234337 -76.143334 
L 613.082391 -73.890409 
L 612.943534 -71.637483 
L 612.817763 -69.384557 
L 612.704881 -67.131632 
L 612.604508 -64.878706 
L 612.5161 -62.62578 
L 612.438975 -60.372855 
L 612.372345 -58.119929 
L 612.315343 -55.867003 
z
" style="stroke: #3d3d3d; stroke-width: 1.5"/>
    </defs>
    <g clip-path="url(#p0e607552b3)">
     <use xlink:href="#m2cd513cced" x="0" y="432" style="fill: #3a923a; stroke: #3d3d3d; stroke-width: 1.5"/>
    </g>
   </g>
   <g id="matplotlib.axis_1">
    <g id="xtick_1">
     <g id="line2d_1">
      <defs>
       <path id="m41791e719c" d="M 0 0 
L 0 3.5 
" style="stroke: #000000; stroke-width: 0.8"/>
      </defs>
      <g>
       <use xlink:href="#m41791e719c" x="152.807759" y="384.48" style="stroke: #000000; stroke-width: 0.8"/>
      </g>
     </g>
     <g id="text_1">
      <!-- Raw -->
      <g transform="translate(138.086978 402.117813) scale(0.14 -0.14)">
       <defs>
        <path id="DejaVuSans-52" d="M 2841 2188 
Q 3044 2119 3236 1894 
Q 3428 1669 3622 1275 
L 4263 0 
L 3584 0 
L 2988 1197 
Q 2756 1666 2539 1819 
Q 2322 1972 1947 1972 
L 1259 1972 
L 1259 0 
L 628 0 
L 628 4666 
L 2053 4666 
Q 2853 4666 3247 4331 
Q 3641 3997 3641 3322 
Q 3641 2881 3436 2590 
Q 3231 2300 2841 2188 
z
M 1259 4147 
L 1259 2491 
L 2053 2491 
Q 2509 2491 2742 2702 
Q 2975 2913 2975 3322 
Q 2975 3731 2742 3939 
Q 2509 4147 2053 4147 
L 1259 4147 
z
" transform="scale(0.015625)"/>
        <path id="DejaVuSans-61" d="M 2194 1759 
Q 1497 1759 1228 1600 
Q 959 1441 959 1056 
Q 959 750 1161 570 
Q 1363 391 1709 391 
Q 2188 391 2477 730 
Q 2766 1069 2766 1631 
L 2766 1759 
L 2194 1759 
z
M 3341 1997 
L 3341 0 
L 2766 0 
L 2766 531 
Q 2569 213 2275 61 
Q 1981 -91 1556 -91 
Q 1019 -91 701 211 
Q 384 513 384 1019 
Q 384 1609 779 1909 
Q 1175 2209 1959 2209 
L 2766 2209 
L 2766 2266 
Q 2766 2663 2505 2880 
Q 2244 3097 1772 3097 
Q 1472 3097 1187 3025 
Q 903 2953 641 2809 
L 641 3341 
Q 956 3463 1253 3523 
Q 1550 3584 1831 3584 
Q 2591 3584 2966 3190 
Q 3341 2797 3341 1997 
z
" transform="scale(0.015625)"/>
        <path id="DejaVuSans-77" d="M 269 3500 
L 844 3500 
L 1563 769 
L 2278 3500 
L 2956 3500 
L 3675 769 
L 4391 3500 
L 4966 3500 
L 4050 0 
L 3372 0 
L 2619 2869 
L 1863 0 
L 1184 0 
L 269 3500 
z
" transform="scale(0.015625)"/>
       </defs>
       <use xlink:href="#DejaVuSans-52"/>
       <use xlink:href="#DejaVuSans-61" x="67.232422"/>
       <use xlink:href="#DejaVuSans-77" x="128.511719"/>
      </g>
      <!-- Data -->
      <g transform="translate(136.094165 417.79475) scale(0.14 -0.14)">
       <defs>
        <path id="DejaVuSans-44" d="M 1259 4147 
L 1259 519 
L 2022 519 
Q 2988 519 3436 956 
Q 3884 1394 3884 2338 
Q 3884 3275 3436 3711 
Q 2988 4147 2022 4147 
L 1259 4147 
z
M 628 4666 
L 1925 4666 
Q 3281 4666 3915 4102 
Q 4550 3538 4550 2338 
Q 4550 1131 3912 565 
Q 3275 0 1925 0 
L 628 0 
L 628 4666 
z
" transform="scale(0.015625)"/>
        <path id="DejaVuSans-74" d="M 1172 4494 
L 1172 3500 
L 2356 3500 
L 2356 3053 
L 1172 3053 
L 1172 1153 
Q 1172 725 1289 603 
Q 1406 481 1766 481 
L 2356 481 
L 2356 0 
L 1766 0 
Q 1100 0 847 248 
Q 594 497 594 1153 
L 594 3053 
L 172 3053 
L 172 3500 
L 594 3500 
L 594 4494 
L 1172 4494 
z
" transform="scale(0.015625)"/>
       </defs>
       <use xlink:href="#DejaVuSans-44"/>
       <use xlink:href="#DejaVuSans-61" x="77.001953"/>
       <use xlink:href="#DejaVuSans-74" x="138.28125"/>
       <use xlink:href="#DejaVuSans-61" x="177.490234"/>
      </g>
     </g>
    </g>
    <g id="xtick_2">
     <g id="line2d_2">
      <g>
       <use xlink:href="#m41791e719c" x="382.435209" y="384.48" style="stroke: #000000; stroke-width: 0.8"/>
      </g>
     </g>
     <g id="text_2">
      <!-- All -->
      <g transform="translate(373.757396 402.117813) scale(0.14 -0.14)">
       <defs>
        <path id="DejaVuSans-41" d="M 2188 4044 
L 1331 1722 
L 3047 1722 
L 2188 4044 
z
M 1831 4666 
L 2547 4666 
L 4325 0 
L 3669 0 
L 3244 1197 
L 1141 1197 
L 716 0 
L 50 0 
L 1831 4666 
z
" transform="scale(0.015625)"/>
        <path id="DejaVuSans-6c" d="M 603 4863 
L 1178 4863 
L 1178 0 
L 603 0 
L 603 4863 
z
" transform="scale(0.015625)"/>
       </defs>
       <use xlink:href="#DejaVuSans-41"/>
       <use xlink:href="#DejaVuSans-6c" x="68.408203"/>
       <use xlink:href="#DejaVuSans-6c" x="96.191406"/>
      </g>
      <!-- Subjects -->
      <g transform="translate(352.619584 417.79475) scale(0.14 -0.14)">
       <defs>
        <path id="DejaVuSans-53" d="M 3425 4513 
L 3425 3897 
Q 3066 4069 2747 4153 
Q 2428 4238 2131 4238 
Q 1616 4238 1336 4038 
Q 1056 3838 1056 3469 
Q 1056 3159 1242 3001 
Q 1428 2844 1947 2747 
L 2328 2669 
Q 3034 2534 3370 2195 
Q 3706 1856 3706 1288 
Q 3706 609 3251 259 
Q 2797 -91 1919 -91 
Q 1588 -91 1214 -16 
Q 841 59 441 206 
L 441 856 
Q 825 641 1194 531 
Q 1563 422 1919 422 
Q 2459 422 2753 634 
Q 3047 847 3047 1241 
Q 3047 1584 2836 1778 
Q 2625 1972 2144 2069 
L 1759 2144 
Q 1053 2284 737 2584 
Q 422 2884 422 3419 
Q 422 4038 858 4394 
Q 1294 4750 2059 4750 
Q 2388 4750 2728 4690 
Q 3069 4631 3425 4513 
z
" transform="scale(0.015625)"/>
        <path id="DejaVuSans-75" d="M 544 1381 
L 544 3500 
L 1119 3500 
L 1119 1403 
Q 1119 906 1312 657 
Q 1506 409 1894 409 
Q 2359 409 2629 706 
Q 2900 1003 2900 1516 
L 2900 3500 
L 3475 3500 
L 3475 0 
L 2900 0 
L 2900 538 
Q 2691 219 2414 64 
Q 2138 -91 1772 -91 
Q 1169 -91 856 284 
Q 544 659 544 1381 
z
M 1991 3584 
L 1991 3584 
z
" transform="scale(0.015625)"/>
        <path id="DejaVuSans-62" d="M 3116 1747 
Q 3116 2381 2855 2742 
Q 2594 3103 2138 3103 
Q 1681 3103 1420 2742 
Q 1159 2381 1159 1747 
Q 1159 1113 1420 752 
Q 1681 391 2138 391 
Q 2594 391 2855 752 
Q 3116 1113 3116 1747 
z
M 1159 2969 
Q 1341 3281 1617 3432 
Q 1894 3584 2278 3584 
Q 2916 3584 3314 3078 
Q 3713 2572 3713 1747 
Q 3713 922 3314 415 
Q 2916 -91 2278 -91 
Q 1894 -91 1617 61 
Q 1341 213 1159 525 
L 1159 0 
L 581 0 
L 581 4863 
L 1159 4863 
L 1159 2969 
z
" transform="scale(0.015625)"/>
        <path id="DejaVuSans-6a" d="M 603 3500 
L 1178 3500 
L 1178 -63 
Q 1178 -731 923 -1031 
Q 669 -1331 103 -1331 
L -116 -1331 
L -116 -844 
L 38 -844 
Q 366 -844 484 -692 
Q 603 -541 603 -63 
L 603 3500 
z
M 603 4863 
L 1178 4863 
L 1178 4134 
L 603 4134 
L 603 4863 
z
" transform="scale(0.015625)"/>
        <path id="DejaVuSans-65" d="M 3597 1894 
L 3597 1613 
L 953 1613 
Q 991 1019 1311 708 
Q 1631 397 2203 397 
Q 2534 397 2845 478 
Q 3156 559 3463 722 
L 3463 178 
Q 3153 47 2828 -22 
Q 2503 -91 2169 -91 
Q 1331 -91 842 396 
Q 353 884 353 1716 
Q 353 2575 817 3079 
Q 1281 3584 2069 3584 
Q 2775 3584 3186 3129 
Q 3597 2675 3597 1894 
z
M 3022 2063 
Q 3016 2534 2758 2815 
Q 2500 3097 2075 3097 
Q 1594 3097 1305 2825 
Q 1016 2553 972 2059 
L 3022 2063 
z
" transform="scale(0.015625)"/>
        <path id="DejaVuSans-63" d="M 3122 3366 
L 3122 2828 
Q 2878 2963 2633 3030 
Q 2388 3097 2138 3097 
Q 1578 3097 1268 2742 
Q 959 2388 959 1747 
Q 959 1106 1268 751 
Q 1578 397 2138 397 
Q 2388 397 2633 464 
Q 2878 531 3122 666 
L 3122 134 
Q 2881 22 2623 -34 
Q 2366 -91 2075 -91 
Q 1284 -91 818 406 
Q 353 903 353 1747 
Q 353 2603 823 3093 
Q 1294 3584 2113 3584 
Q 2378 3584 2631 3529 
Q 2884 3475 3122 3366 
z
" transform="scale(0.015625)"/>
        <path id="DejaVuSans-73" d="M 2834 3397 
L 2834 2853 
Q 2591 2978 2328 3040 
Q 2066 3103 1784 3103 
Q 1356 3103 1142 2972 
Q 928 2841 928 2578 
Q 928 2378 1081 2264 
Q 1234 2150 1697 2047 
L 1894 2003 
Q 2506 1872 2764 1633 
Q 3022 1394 3022 966 
Q 3022 478 2636 193 
Q 2250 -91 1575 -91 
Q 1294 -91 989 -36 
Q 684 19 347 128 
L 347 722 
Q 666 556 975 473 
Q 1284 391 1588 391 
Q 1994 391 2212 530 
Q 2431 669 2431 922 
Q 2431 1156 2273 1281 
Q 2116 1406 1581 1522 
L 1381 1569 
Q 847 1681 609 1914 
Q 372 2147 372 2553 
Q 372 3047 722 3315 
Q 1072 3584 1716 3584 
Q 2034 3584 2315 3537 
Q 2597 3491 2834 3397 
z
" transform="scale(0.015625)"/>
       </defs>
       <use xlink:href="#DejaVuSans-53"/>
       <use xlink:href="#DejaVuSans-75" x="63.476562"/>
       <use xlink:href="#DejaVuSans-62" x="126.855469"/>
       <use xlink:href="#DejaVuSans-6a" x="190.332031"/>
       <use xlink:href="#DejaVuSans-65" x="218.115234"/>
       <use xlink:href="#DejaVuSans-63" x="279.638672"/>
       <use xlink:href="#DejaVuSans-74" x="334.619141"/>
       <use xlink:href="#DejaVuSans-73" x="373.828125"/>
      </g>
     </g>
    </g>
    <g id="xtick_3">
     <g id="line2d_3">
      <g>
       <use xlink:href="#m41791e719c" x="612.062658" y="384.48" style="stroke: #000000; stroke-width: 0.8"/>
      </g>
     </g>
     <g id="text_3">
      <!-- Leave One -->
      <g transform="translate(574.759221 402.117813) scale(0.14 -0.14)">
       <defs>
        <path id="DejaVuSans-4c" d="M 628 4666 
L 1259 4666 
L 1259 531 
L 3531 531 
L 3531 0 
L 628 0 
L 628 4666 
z
" transform="scale(0.015625)"/>
        <path id="DejaVuSans-76" d="M 191 3500 
L 800 3500 
L 1894 563 
L 2988 3500 
L 3597 3500 
L 2284 0 
L 1503 0 
L 191 3500 
z
" transform="scale(0.015625)"/>
        <path id="DejaVuSans-20" transform="scale(0.015625)"/>
        <path id="DejaVuSans-4f" d="M 2522 4238 
Q 1834 4238 1429 3725 
Q 1025 3213 1025 2328 
Q 1025 1447 1429 934 
Q 1834 422 2522 422 
Q 3209 422 3611 934 
Q 4013 1447 4013 2328 
Q 4013 3213 3611 3725 
Q 3209 4238 2522 4238 
z
M 2522 4750 
Q 3503 4750 4090 4092 
Q 4678 3434 4678 2328 
Q 4678 1225 4090 567 
Q 3503 -91 2522 -91 
Q 1538 -91 948 565 
Q 359 1222 359 2328 
Q 359 3434 948 4092 
Q 1538 4750 2522 4750 
z
" transform="scale(0.015625)"/>
        <path id="DejaVuSans-6e" d="M 3513 2113 
L 3513 0 
L 2938 0 
L 2938 2094 
Q 2938 2591 2744 2837 
Q 2550 3084 2163 3084 
Q 1697 3084 1428 2787 
Q 1159 2491 1159 1978 
L 1159 0 
L 581 0 
L 581 3500 
L 1159 3500 
L 1159 2956 
Q 1366 3272 1645 3428 
Q 1925 3584 2291 3584 
Q 2894 3584 3203 3211 
Q 3513 2838 3513 2113 
z
" transform="scale(0.015625)"/>
       </defs>
       <use xlink:href="#DejaVuSans-4c"/>
       <use xlink:href="#DejaVuSans-65" x="53.962891"/>
       <use xlink:href="#DejaVuSans-61" x="115.486328"/>
       <use xlink:href="#DejaVuSans-76" x="176.765625"/>
       <use xlink:href="#DejaVuSans-65" x="235.945312"/>
       <use xlink:href="#DejaVuSans-20" x="297.46875"/>
       <use xlink:href="#DejaVuSans-4f" x="329.255859"/>
       <use xlink:href="#DejaVuSans-6e" x="407.966797"/>
       <use xlink:href="#DejaVuSans-65" x="471.345703"/>
      </g>
      <!-- Subject Out -->
      <g transform="translate(570.978127 417.79475) scale(0.14 -0.14)">
       <use xlink:href="#DejaVuSans-53"/>
       <use xlink:href="#DejaVuSans-75" x="63.476562"/>
       <use xlink:href="#DejaVuSans-62" x="126.855469"/>
       <use xlink:href="#DejaVuSans-6a" x="190.332031"/>
       <use xlink:href="#DejaVuSans-65" x="218.115234"/>
       <use xlink:href="#DejaVuSans-63" x="279.638672"/>
       <use xlink:href="#DejaVuSans-74" x="334.619141"/>
       <use xlink:href="#DejaVuSans-20" x="373.828125"/>
       <use xlink:href="#DejaVuSans-4f" x="405.615234"/>
       <use xlink:href="#DejaVuSans-75" x="484.326172"/>
       <use xlink:href="#DejaVuSans-74" x="547.705078"/>
      </g>
     </g>
    </g>
   </g>
   <g id="matplotlib.axis_2">
    <g id="ytick_1">
     <g id="line2d_4">
      <defs>
       <path id="m946a4dcbf7" d="M 0 0 
L -3.5 0 
" style="stroke: #000000; stroke-width: 0.8"/>
      </defs>
      <g>
       <use xlink:href="#m946a4dcbf7" x="90" y="384.48" style="stroke: #000000; stroke-width: 0.8"/>
      </g>
     </g>
     <g id="text_4">
      <!-- 0 -->
      <g transform="translate(74.0925 389.798906) scale(0.14 -0.14)">
       <defs>
        <path id="DejaVuSans-30" d="M 2034 4250 
Q 1547 4250 1301 3770 
Q 1056 3291 1056 2328 
Q 1056 1369 1301 889 
Q 1547 409 2034 409 
Q 2525 409 2770 889 
Q 3016 1369 3016 2328 
Q 3016 3291 2770 3770 
Q 2525 4250 2034 4250 
z
M 2034 4750 
Q 2819 4750 3233 4129 
Q 3647 3509 3647 2328 
Q 3647 1150 3233 529 
Q 2819 -91 2034 -91 
Q 1250 -91 836 529 
Q 422 1150 422 2328 
Q 422 3509 836 4129 
Q 1250 4750 2034 4750 
z
" transform="scale(0.015625)"/>
       </defs>
       <use xlink:href="#DejaVuSans-30"/>
      </g>
     </g>
    </g>
    <g id="ytick_2">
     <g id="line2d_5">
      <g>
       <use xlink:href="#m946a4dcbf7" x="90" y="317.952" style="stroke: #000000; stroke-width: 0.8"/>
      </g>
     </g>
     <g id="text_5">
      <!-- 20 -->
      <g transform="translate(65.185 323.270906) scale(0.14 -0.14)">
       <defs>
        <path id="DejaVuSans-32" d="M 1228 531 
L 3431 531 
L 3431 0 
L 469 0 
L 469 531 
Q 828 903 1448 1529 
Q 2069 2156 2228 2338 
Q 2531 2678 2651 2914 
Q 2772 3150 2772 3378 
Q 2772 3750 2511 3984 
Q 2250 4219 1831 4219 
Q 1534 4219 1204 4116 
Q 875 4013 500 3803 
L 500 4441 
Q 881 4594 1212 4672 
Q 1544 4750 1819 4750 
Q 2544 4750 2975 4387 
Q 3406 4025 3406 3419 
Q 3406 3131 3298 2873 
Q 3191 2616 2906 2266 
Q 2828 2175 2409 1742 
Q 1991 1309 1228 531 
z
" transform="scale(0.015625)"/>
       </defs>
       <use xlink:href="#DejaVuSans-32"/>
       <use xlink:href="#DejaVuSans-30" x="63.623047"/>
      </g>
     </g>
    </g>
    <g id="ytick_3">
     <g id="line2d_6">
      <g>
       <use xlink:href="#m946a4dcbf7" x="90" y="251.424" style="stroke: #000000; stroke-width: 0.8"/>
      </g>
     </g>
     <g id="text_6">
      <!-- 40 -->
      <g transform="translate(65.185 256.742906) scale(0.14 -0.14)">
       <defs>
        <path id="DejaVuSans-34" d="M 2419 4116 
L 825 1625 
L 2419 1625 
L 2419 4116 
z
M 2253 4666 
L 3047 4666 
L 3047 1625 
L 3713 1625 
L 3713 1100 
L 3047 1100 
L 3047 0 
L 2419 0 
L 2419 1100 
L 313 1100 
L 313 1709 
L 2253 4666 
z
" transform="scale(0.015625)"/>
       </defs>
       <use xlink:href="#DejaVuSans-34"/>
       <use xlink:href="#DejaVuSans-30" x="63.623047"/>
      </g>
     </g>
    </g>
    <g id="ytick_4">
     <g id="line2d_7">
      <g>
       <use xlink:href="#m946a4dcbf7" x="90" y="184.896" style="stroke: #000000; stroke-width: 0.8"/>
      </g>
     </g>
     <g id="text_7">
      <!-- 60 -->
      <g transform="translate(65.185 190.214906) scale(0.14 -0.14)">
       <defs>
        <path id="DejaVuSans-36" d="M 2113 2584 
Q 1688 2584 1439 2293 
Q 1191 2003 1191 1497 
Q 1191 994 1439 701 
Q 1688 409 2113 409 
Q 2538 409 2786 701 
Q 3034 994 3034 1497 
Q 3034 2003 2786 2293 
Q 2538 2584 2113 2584 
z
M 3366 4563 
L 3366 3988 
Q 3128 4100 2886 4159 
Q 2644 4219 2406 4219 
Q 1781 4219 1451 3797 
Q 1122 3375 1075 2522 
Q 1259 2794 1537 2939 
Q 1816 3084 2150 3084 
Q 2853 3084 3261 2657 
Q 3669 2231 3669 1497 
Q 3669 778 3244 343 
Q 2819 -91 2113 -91 
Q 1303 -91 875 529 
Q 447 1150 447 2328 
Q 447 3434 972 4092 
Q 1497 4750 2381 4750 
Q 2619 4750 2861 4703 
Q 3103 4656 3366 4563 
z
" transform="scale(0.015625)"/>
       </defs>
       <use xlink:href="#DejaVuSans-36"/>
       <use xlink:href="#DejaVuSans-30" x="63.623047"/>
      </g>
     </g>
    </g>
    <g id="ytick_5">
     <g id="line2d_8">
      <g>
       <use xlink:href="#m946a4dcbf7" x="90" y="118.368" style="stroke: #000000; stroke-width: 0.8"/>
      </g>
     </g>
     <g id="text_8">
      <!-- 80 -->
      <g transform="translate(65.185 123.686906) scale(0.14 -0.14)">
       <defs>
        <path id="DejaVuSans-38" d="M 2034 2216 
Q 1584 2216 1326 1975 
Q 1069 1734 1069 1313 
Q 1069 891 1326 650 
Q 1584 409 2034 409 
Q 2484 409 2743 651 
Q 3003 894 3003 1313 
Q 3003 1734 2745 1975 
Q 2488 2216 2034 2216 
z
M 1403 2484 
Q 997 2584 770 2862 
Q 544 3141 544 3541 
Q 544 4100 942 4425 
Q 1341 4750 2034 4750 
Q 2731 4750 3128 4425 
Q 3525 4100 3525 3541 
Q 3525 3141 3298 2862 
Q 3072 2584 2669 2484 
Q 3125 2378 3379 2068 
Q 3634 1759 3634 1313 
Q 3634 634 3220 271 
Q 2806 -91 2034 -91 
Q 1263 -91 848 271 
Q 434 634 434 1313 
Q 434 1759 690 2068 
Q 947 2378 1403 2484 
z
M 1172 3481 
Q 1172 3119 1398 2916 
Q 1625 2713 2034 2713 
Q 2441 2713 2670 2916 
Q 2900 3119 2900 3481 
Q 2900 3844 2670 4047 
Q 2441 4250 2034 4250 
Q 1625 4250 1398 4047 
Q 1172 3844 1172 3481 
z
" transform="scale(0.015625)"/>
       </defs>
       <use xlink:href="#DejaVuSans-38"/>
       <use xlink:href="#DejaVuSans-30" x="63.623047"/>
      </g>
     </g>
    </g>
    <g id="ytick_6">
     <g id="line2d_9">
      <g>
       <use xlink:href="#m946a4dcbf7" x="90" y="51.84" style="stroke: #000000; stroke-width: 0.8"/>
      </g>
     </g>
     <g id="text_9">
      <!-- 100 -->
      <g transform="translate(56.2775 57.158906) scale(0.14 -0.14)">
       <defs>
        <path id="DejaVuSans-31" d="M 794 531 
L 1825 531 
L 1825 4091 
L 703 3866 
L 703 4441 
L 1819 4666 
L 2450 4666 
L 2450 531 
L 3481 531 
L 3481 0 
L 794 0 
L 794 531 
z
" transform="scale(0.015625)"/>
       </defs>
       <use xlink:href="#DejaVuSans-31"/>
       <use xlink:href="#DejaVuSans-30" x="63.623047"/>
       <use xlink:href="#DejaVuSans-30" x="127.246094"/>
      </g>
     </g>
    </g>
    <g id="text_10">
     <!-- Accuracy -->
     <g transform="translate(49.365937 250.119375) rotate(-90) scale(0.14 -0.14)">
      <defs>
       <path id="DejaVuSans-72" d="M 2631 2963 
Q 2534 3019 2420 3045 
Q 2306 3072 2169 3072 
Q 1681 3072 1420 2755 
Q 1159 2438 1159 1844 
L 1159 0 
L 581 0 
L 581 3500 
L 1159 3500 
L 1159 2956 
Q 1341 3275 1631 3429 
Q 1922 3584 2338 3584 
Q 2397 3584 2469 3576 
Q 2541 3569 2628 3553 
L 2631 2963 
z
" transform="scale(0.015625)"/>
       <path id="DejaVuSans-79" d="M 2059 -325 
Q 1816 -950 1584 -1140 
Q 1353 -1331 966 -1331 
L 506 -1331 
L 506 -850 
L 844 -850 
Q 1081 -850 1212 -737 
Q 1344 -625 1503 -206 
L 1606 56 
L 191 3500 
L 800 3500 
L 1894 763 
L 2988 3500 
L 3597 3500 
L 2059 -325 
z
" transform="scale(0.015625)"/>
      </defs>
      <use xlink:href="#DejaVuSans-41"/>
      <use xlink:href="#DejaVuSans-63" x="66.658203"/>
      <use xlink:href="#DejaVuSans-63" x="121.638672"/>
      <use xlink:href="#DejaVuSans-75" x="176.619141"/>
      <use xlink:href="#DejaVuSans-72" x="239.998047"/>
      <use xlink:href="#DejaVuSans-61" x="281.111328"/>
      <use xlink:href="#DejaVuSans-63" x="342.390625"/>
      <use xlink:href="#DejaVuSans-79" x="397.371094"/>
     </g>
    </g>
   </g>
   <g id="line2d_10">
    <path d="M 152.807759 214.068528 
L 152.807759 188.455248 
" clip-path="url(#p0e607552b3)" style="fill: none; stroke: #3d3d3d; stroke-width: 1.5; stroke-linecap: square"/>
   </g>
   <g id="line2d_11">
    <path d="M 152.807759 207.548784 
L 152.807759 199.216152 
" clip-path="url(#p0e607552b3)" style="fill: none; stroke: #3d3d3d; stroke-width: 4.5; stroke-linecap: square"/>
   </g>
   <g id="line2d_12">
    <path d="M 382.435209 206.218224 
L 382.435209 202.559184 
" clip-path="url(#p0e607552b3)" style="fill: none; stroke: #3d3d3d; stroke-width: 1.5; stroke-linecap: square"/>
   </g>
   <g id="line2d_13">
    <path d="M 382.435209 206.218224 
L 382.435209 203.254032 
" clip-path="url(#p0e607552b3)" style="fill: none; stroke: #3d3d3d; stroke-width: 4.5; stroke-linecap: square"/>
   </g>
   <g id="line2d_14">
    <path d="M 612.062658 330.326208 
L 612.062658 223.781616 
" clip-path="url(#p0e607552b3)" style="fill: none; stroke: #3d3d3d; stroke-width: 1.5; stroke-linecap: square"/>
   </g>
   <g id="line2d_15">
    <path d="M 612.062658 289.211904 
L 612.062658 255.399048 
" clip-path="url(#p0e607552b3)" style="fill: none; stroke: #3d3d3d; stroke-width: 4.5; stroke-linecap: square"/>
   </g>
   <g id="line2d_16">
    <path d="M 152.807759 171.505944 
L 152.807759 166.599072 
L 382.435209 166.599072 
L 382.435209 171.505944 
" clip-path="url(#p0e607552b3)" style="fill: none; stroke: #333333; stroke-width: 1.5; stroke-linecap: square"/>
   </g>
   <g id="line2d_17">
    <path d="M 382.435209 146.159672 
L 382.435209 141.252799 
L 612.062658 141.252799 
L 612.062658 146.159672 
" clip-path="url(#p0e607552b3)" style="fill: none; stroke: #333333; stroke-width: 1.5; stroke-linecap: square"/>
   </g>
   <g id="line2d_18">
    <path d="M 152.807759 120.379559 
L 152.807759 115.472687 
L 612.062658 115.472687 
L 612.062658 120.379559 
" clip-path="url(#p0e607552b3)" style="fill: none; stroke: #333333; stroke-width: 1.5; stroke-linecap: square"/>
   </g>
   <g id="line2d_19">
    <path d="M 90 342.9 
L 648 342.9 
" clip-path="url(#p0e607552b3)" style="fill: none; stroke-dasharray: 5.55,2.4; stroke-dashoffset: 0; stroke: #ff0000; stroke-width: 1.5"/>
   </g>
   <g id="patch_3">
    <path d="M 90 384.48 
L 90 51.84 
" style="fill: none; stroke: #000000; stroke-width: 0.8; stroke-linejoin: miter; stroke-linecap: square"/>
   </g>
   <g id="patch_4">
    <path d="M 648 384.48 
L 648 51.84 
" style="fill: none; stroke: #000000; stroke-width: 0.8; stroke-linejoin: miter; stroke-linecap: square"/>
   </g>
   <g id="patch_5">
    <path d="M 90 384.48 
L 648 384.48 
" style="fill: none; stroke: #000000; stroke-width: 0.8; stroke-linejoin: miter; stroke-linecap: square"/>
   </g>
   <g id="patch_6">
    <path d="M 90 51.84 
L 648 51.84 
" style="fill: none; stroke: #000000; stroke-width: 0.8; stroke-linejoin: miter; stroke-linecap: square"/>
   </g>
   <g id="PathCollection_1">
    <defs>
     <path id="mb97062613e" d="M 0 1.5 
C 0.397805 1.5 0.77937 1.341951 1.06066 1.06066 
C 1.341951 0.77937 1.5 0.397805 1.5 0 
C 1.5 -0.397805 1.341951 -0.77937 1.06066 -1.06066 
C 0.77937 -1.341951 0.397805 -1.5 0 -1.5 
C -0.397805 -1.5 -0.77937 -1.341951 -1.06066 -1.06066 
C -1.341951 -0.77937 -1.5 -0.397805 -1.5 0 
C -1.5 0.397805 -1.341951 0.77937 -1.06066 1.06066 
C -0.77937 1.341951 -0.397805 1.5 0 1.5 
z
" style="stroke: #3d3d3d"/>
    </defs>
    <g clip-path="url(#p0e607552b3)">
     <use xlink:href="#mb97062613e" x="152.807759" y="205.686" style="fill: #ffffff; stroke: #3d3d3d"/>
    </g>
   </g>
   <g id="PathCollection_2">
    <g clip-path="url(#p0e607552b3)">
     <use xlink:href="#mb97062613e" x="382.435209" y="204.787872" style="fill: #ffffff; stroke: #3d3d3d"/>
    </g>
   </g>
   <g id="PathCollection_3">
    <g clip-path="url(#p0e607552b3)">
     <use xlink:href="#mb97062613e" x="612.062658" y="270.018576" style="fill: #ffffff; stroke: #3d3d3d"/>
    </g>
   </g>
   <g id="text_11">
    <!-- p = 1.00 -->
    <g transform="translate(245.946484 163.519384) scale(0.1 -0.1)">
     <defs>
      <path id="DejaVuSans-70" d="M 1159 525 
L 1159 -1331 
L 581 -1331 
L 581 3500 
L 1159 3500 
L 1159 2969 
Q 1341 3281 1617 3432 
Q 1894 3584 2278 3584 
Q 2916 3584 3314 3078 
Q 3713 2572 3713 1747 
Q 3713 922 3314 415 
Q 2916 -91 2278 -91 
Q 1894 -91 1617 61 
Q 1341 213 1159 525 
z
M 3116 1747 
Q 3116 2381 2855 2742 
Q 2594 3103 2138 3103 
Q 1681 3103 1420 2742 
Q 1159 2381 1159 1747 
Q 1159 1113 1420 752 
Q 1681 391 2138 391 
Q 2594 391 2855 752 
Q 3116 1113 3116 1747 
z
" transform="scale(0.015625)"/>
      <path id="DejaVuSans-3d" d="M 678 2906 
L 4684 2906 
L 4684 2381 
L 678 2381 
L 678 2906 
z
M 678 1631 
L 4684 1631 
L 4684 1100 
L 678 1100 
L 678 1631 
z
" transform="scale(0.015625)"/>
      <path id="DejaVuSans-2e" d="M 684 794 
L 1344 794 
L 1344 0 
L 684 0 
L 684 794 
z
" transform="scale(0.015625)"/>
     </defs>
     <use xlink:href="#DejaVuSans-70"/>
     <use xlink:href="#DejaVuSans-20" x="63.476562"/>
     <use xlink:href="#DejaVuSans-3d" x="95.263672"/>
     <use xlink:href="#DejaVuSans-20" x="179.052734"/>
     <use xlink:href="#DejaVuSans-31" x="210.839844"/>
     <use xlink:href="#DejaVuSans-2e" x="274.462891"/>
     <use xlink:href="#DejaVuSans-30" x="306.25"/>
     <use xlink:href="#DejaVuSans-30" x="369.873047"/>
    </g>
   </g>
   <g id="text_12">
    <!-- p ≤ 0.01 -->
    <g transform="translate(475.573933 138.173112) scale(0.1 -0.1)">
     <defs>
      <path id="DejaVuSans-2264" d="M 4684 3175 
L 1684 2309 
L 4684 1453 
L 4684 897 
L 678 2047 
L 678 2578 
L 4684 3725 
L 4684 3175 
z
M 678 531 
L 4684 531 
L 4684 0 
L 678 0 
L 678 531 
z
" transform="scale(0.015625)"/>
     </defs>
     <use xlink:href="#DejaVuSans-70"/>
     <use xlink:href="#DejaVuSans-20" x="63.476562"/>
     <use xlink:href="#DejaVuSans-2264" x="95.263672"/>
     <use xlink:href="#DejaVuSans-20" x="179.052734"/>
     <use xlink:href="#DejaVuSans-30" x="210.839844"/>
     <use xlink:href="#DejaVuSans-2e" x="274.462891"/>
     <use xlink:href="#DejaVuSans-30" x="306.25"/>
     <use xlink:href="#DejaVuSans-31" x="369.873047"/>
    </g>
   </g>
   <g id="text_13">
    <!-- p ≤ 0.01 -->
    <g transform="translate(360.760209 112.392999) scale(0.1 -0.1)">
     <use xlink:href="#DejaVuSans-70"/>
     <use xlink:href="#DejaVuSans-20" x="63.476562"/>
     <use xlink:href="#DejaVuSans-2264" x="95.263672"/>
     <use xlink:href="#DejaVuSans-20" x="179.052734"/>
     <use xlink:href="#DejaVuSans-30" x="210.839844"/>
     <use xlink:href="#DejaVuSans-2e" x="274.462891"/>
     <use xlink:href="#DejaVuSans-30" x="306.25"/>
     <use xlink:href="#DejaVuSans-31" x="369.873047"/>
    </g>
   </g>
   <g id="text_14">
    <!-- Comparison of accuracies for classifiers targeting EP label -->
    <g transform="translate(165.560312 45.84) scale(0.14 -0.14)">
     <defs>
      <path id="DejaVuSans-43" d="M 4122 4306 
L 4122 3641 
Q 3803 3938 3442 4084 
Q 3081 4231 2675 4231 
Q 1875 4231 1450 3742 
Q 1025 3253 1025 2328 
Q 1025 1406 1450 917 
Q 1875 428 2675 428 
Q 3081 428 3442 575 
Q 3803 722 4122 1019 
L 4122 359 
Q 3791 134 3420 21 
Q 3050 -91 2638 -91 
Q 1578 -91 968 557 
Q 359 1206 359 2328 
Q 359 3453 968 4101 
Q 1578 4750 2638 4750 
Q 3056 4750 3426 4639 
Q 3797 4528 4122 4306 
z
" transform="scale(0.015625)"/>
      <path id="DejaVuSans-6f" d="M 1959 3097 
Q 1497 3097 1228 2736 
Q 959 2375 959 1747 
Q 959 1119 1226 758 
Q 1494 397 1959 397 
Q 2419 397 2687 759 
Q 2956 1122 2956 1747 
Q 2956 2369 2687 2733 
Q 2419 3097 1959 3097 
z
M 1959 3584 
Q 2709 3584 3137 3096 
Q 3566 2609 3566 1747 
Q 3566 888 3137 398 
Q 2709 -91 1959 -91 
Q 1206 -91 779 398 
Q 353 888 353 1747 
Q 353 2609 779 3096 
Q 1206 3584 1959 3584 
z
" transform="scale(0.015625)"/>
      <path id="DejaVuSans-6d" d="M 3328 2828 
Q 3544 3216 3844 3400 
Q 4144 3584 4550 3584 
Q 5097 3584 5394 3201 
Q 5691 2819 5691 2113 
L 5691 0 
L 5113 0 
L 5113 2094 
Q 5113 2597 4934 2840 
Q 4756 3084 4391 3084 
Q 3944 3084 3684 2787 
Q 3425 2491 3425 1978 
L 3425 0 
L 2847 0 
L 2847 2094 
Q 2847 2600 2669 2842 
Q 2491 3084 2119 3084 
Q 1678 3084 1418 2786 
Q 1159 2488 1159 1978 
L 1159 0 
L 581 0 
L 581 3500 
L 1159 3500 
L 1159 2956 
Q 1356 3278 1631 3431 
Q 1906 3584 2284 3584 
Q 2666 3584 2933 3390 
Q 3200 3197 3328 2828 
z
" transform="scale(0.015625)"/>
      <path id="DejaVuSans-69" d="M 603 3500 
L 1178 3500 
L 1178 0 
L 603 0 
L 603 3500 
z
M 603 4863 
L 1178 4863 
L 1178 4134 
L 603 4134 
L 603 4863 
z
" transform="scale(0.015625)"/>
      <path id="DejaVuSans-66" d="M 2375 4863 
L 2375 4384 
L 1825 4384 
Q 1516 4384 1395 4259 
Q 1275 4134 1275 3809 
L 1275 3500 
L 2222 3500 
L 2222 3053 
L 1275 3053 
L 1275 0 
L 697 0 
L 697 3053 
L 147 3053 
L 147 3500 
L 697 3500 
L 697 3744 
Q 697 4328 969 4595 
Q 1241 4863 1831 4863 
L 2375 4863 
z
" transform="scale(0.015625)"/>
      <path id="DejaVuSans-67" d="M 2906 1791 
Q 2906 2416 2648 2759 
Q 2391 3103 1925 3103 
Q 1463 3103 1205 2759 
Q 947 2416 947 1791 
Q 947 1169 1205 825 
Q 1463 481 1925 481 
Q 2391 481 2648 825 
Q 2906 1169 2906 1791 
z
M 3481 434 
Q 3481 -459 3084 -895 
Q 2688 -1331 1869 -1331 
Q 1566 -1331 1297 -1286 
Q 1028 -1241 775 -1147 
L 775 -588 
Q 1028 -725 1275 -790 
Q 1522 -856 1778 -856 
Q 2344 -856 2625 -561 
Q 2906 -266 2906 331 
L 2906 616 
Q 2728 306 2450 153 
Q 2172 0 1784 0 
Q 1141 0 747 490 
Q 353 981 353 1791 
Q 353 2603 747 3093 
Q 1141 3584 1784 3584 
Q 2172 3584 2450 3431 
Q 2728 3278 2906 2969 
L 2906 3500 
L 3481 3500 
L 3481 434 
z
" transform="scale(0.015625)"/>
      <path id="DejaVuSans-45" d="M 628 4666 
L 3578 4666 
L 3578 4134 
L 1259 4134 
L 1259 2753 
L 3481 2753 
L 3481 2222 
L 1259 2222 
L 1259 531 
L 3634 531 
L 3634 0 
L 628 0 
L 628 4666 
z
" transform="scale(0.015625)"/>
      <path id="DejaVuSans-50" d="M 1259 4147 
L 1259 2394 
L 2053 2394 
Q 2494 2394 2734 2622 
Q 2975 2850 2975 3272 
Q 2975 3691 2734 3919 
Q 2494 4147 2053 4147 
L 1259 4147 
z
M 628 4666 
L 2053 4666 
Q 2838 4666 3239 4311 
Q 3641 3956 3641 3272 
Q 3641 2581 3239 2228 
Q 2838 1875 2053 1875 
L 1259 1875 
L 1259 0 
L 628 0 
L 628 4666 
z
" transform="scale(0.015625)"/>
     </defs>
     <use xlink:href="#DejaVuSans-43"/>
     <use xlink:href="#DejaVuSans-6f" x="69.824219"/>
     <use xlink:href="#DejaVuSans-6d" x="131.005859"/>
     <use xlink:href="#DejaVuSans-70" x="228.417969"/>
     <use xlink:href="#DejaVuSans-61" x="291.894531"/>
     <use xlink:href="#DejaVuSans-72" x="353.173828"/>
     <use xlink:href="#DejaVuSans-69" x="394.287109"/>
     <use xlink:href="#DejaVuSans-73" x="422.070312"/>
     <use xlink:href="#DejaVuSans-6f" x="474.169922"/>
     <use xlink:href="#DejaVuSans-6e" x="535.351562"/>
     <use xlink:href="#DejaVuSans-20" x="598.730469"/>
     <use xlink:href="#DejaVuSans-6f" x="630.517578"/>
     <use xlink:href="#DejaVuSans-66" x="691.699219"/>
     <use xlink:href="#DejaVuSans-20" x="726.904297"/>
     <use xlink:href="#DejaVuSans-61" x="758.691406"/>
     <use xlink:href="#DejaVuSans-63" x="819.970703"/>
     <use xlink:href="#DejaVuSans-63" x="874.951172"/>
     <use xlink:href="#DejaVuSans-75" x="929.931641"/>
     <use xlink:href="#DejaVuSans-72" x="993.310547"/>
     <use xlink:href="#DejaVuSans-61" x="1034.423828"/>
     <use xlink:href="#DejaVuSans-63" x="1095.703125"/>
     <use xlink:href="#DejaVuSans-69" x="1150.683594"/>
     <use xlink:href="#DejaVuSans-65" x="1178.466797"/>
     <use xlink:href="#DejaVuSans-73" x="1239.990234"/>
     <use xlink:href="#DejaVuSans-20" x="1292.089844"/>
     <use xlink:href="#DejaVuSans-66" x="1323.876953"/>
     <use xlink:href="#DejaVuSans-6f" x="1359.082031"/>
     <use xlink:href="#DejaVuSans-72" x="1420.263672"/>
     <use xlink:href="#DejaVuSans-20" x="1461.376953"/>
     <use xlink:href="#DejaVuSans-63" x="1493.164062"/>
     <use xlink:href="#DejaVuSans-6c" x="1548.144531"/>
     <use xlink:href="#DejaVuSans-61" x="1575.927734"/>
     <use xlink:href="#DejaVuSans-73" x="1637.207031"/>
     <use xlink:href="#DejaVuSans-73" x="1689.306641"/>
     <use xlink:href="#DejaVuSans-69" x="1741.40625"/>
     <use xlink:href="#DejaVuSans-66" x="1769.189453"/>
     <use xlink:href="#DejaVuSans-69" x="1804.394531"/>
     <use xlink:href="#DejaVuSans-65" x="1832.177734"/>
     <use xlink:href="#DejaVuSans-72" x="1893.701172"/>
     <use xlink:href="#DejaVuSans-73" x="1934.814453"/>
     <use xlink:href="#DejaVuSans-20" x="1986.914062"/>
     <use xlink:href="#DejaVuSans-74" x="2018.701172"/>
     <use xlink:href="#DejaVuSans-61" x="2057.910156"/>
     <use xlink:href="#DejaVuSans-72" x="2119.189453"/>
     <use xlink:href="#DejaVuSans-67" x="2158.552734"/>
     <use xlink:href="#DejaVuSans-65" x="2222.029297"/>
     <use xlink:href="#DejaVuSans-74" x="2283.552734"/>
     <use xlink:href="#DejaVuSans-69" x="2322.761719"/>
     <use xlink:href="#DejaVuSans-6e" x="2350.544922"/>
     <use xlink:href="#DejaVuSans-67" x="2413.923828"/>
     <use xlink:href="#DejaVuSans-20" x="2477.400391"/>
     <use xlink:href="#DejaVuSans-45" x="2509.1875"/>
     <use xlink:href="#DejaVuSans-50" x="2572.371094"/>
     <use xlink:href="#DejaVuSans-20" x="2632.673828"/>
     <use xlink:href="#DejaVuSans-6c" x="2664.460938"/>
     <use xlink:href="#DejaVuSans-61" x="2692.244141"/>
     <use xlink:href="#DejaVuSans-62" x="2753.523438"/>
     <use xlink:href="#DejaVuSans-65" x="2817"/>
     <use xlink:href="#DejaVuSans-6c" x="2878.523438"/>
    </g>
   </g>
  </g>
 </g>
 <defs>
  <clipPath id="p0e607552b3">
   <rect x="90" y="51.84" width="558" height="332.64"/>
  </clipPath>
 </defs>
</svg>
