<?xml version="1.0" encoding="utf-8" standalone="no"?>
<!DOCTYPE svg PUBLIC "-//W3C//DTD SVG 1.1//EN"
  "http://www.w3.org/Graphics/SVG/1.1/DTD/svg11.dtd">
<svg xmlns:xlink="http://www.w3.org/1999/xlink" width="864pt" height="576pt" viewBox="0 0 864 576" xmlns="http://www.w3.org/2000/svg" version="1.1">
 <metadata>
  <rdf:RDF xmlns:dc="http://purl.org/dc/elements/1.1/" xmlns:cc="http://creativecommons.org/ns#" xmlns:rdf="http://www.w3.org/1999/02/22-rdf-syntax-ns#">
   <cc:Work>
    <dc:type rdf:resource="http://purl.org/dc/dcmitype/StillImage"/>
    <dc:date>2024-08-09T09:44:01.352237</dc:date>
    <dc:format>image/svg+xml</dc:format>
    <dc:creator>
     <cc:Agent>
      <dc:title>Matplotlib v3.6.2, https://matplotlib.org/</dc:title>
     </cc:Agent>
    </dc:creator>
   </cc:Work>
  </rdf:RDF>
 </metadata>
 <defs>
  <style type="text/css">*{stroke-linejoin: round; stroke-linecap: butt}</style>
 </defs>
 <g id="figure_1">
  <g id="patch_1">
   <path d="M 0 576 
L 864 576 
L 864 0 
L 0 0 
z
" style="fill: #ffffff"/>
  </g>
  <g id="axes_1">
   <g id="patch_2">
    <path d="M 108 512.64 
L 777.6 512.64 
L 777.6 69.12 
L 108 69.12 
z
" style="fill: #ffffff"/>
   </g>
   <g id="PolyCollection_1">
    <defs>
     <path id="m0982fc485c" d="M 168.893092 -225.528936 
L 167.472459 -225.528936 
L 167.328416 -226.498207 
L 167.164247 -227.467477 
L 166.979254 -228.436748 
L 166.773199 -229.406019 
L 166.54639 -230.37529 
L 166.299758 -231.34456 
L 166.03491 -232.313831 
L 165.754157 -233.283102 
L 165.460507 -234.252373 
L 165.157629 -235.221644 
L 164.84976 -236.190914 
L 164.541587 -237.160185 
L 164.238074 -238.129456 
L 163.944265 -239.098727 
L 163.665043 -240.067998 
L 163.404884 -241.037268 
L 163.167592 -242.006539 
L 162.956045 -242.97581 
L 162.771955 -243.945081 
L 162.615669 -244.914352 
L 162.486006 -245.883622 
L 162.38016 -246.852893 
L 162.293662 -247.822164 
L 162.220418 -248.791435 
L 162.152816 -249.760706 
L 162.081908 -250.729976 
L 161.99765 -251.699247 
L 161.889209 -252.668518 
L 161.745311 -253.637789 
L 161.554621 -254.60706 
L 161.306149 -255.57633 
L 160.989651 -256.545601 
L 160.596027 -257.514872 
L 160.117693 -258.484143 
L 159.548913 -259.453413 
L 158.886083 -260.422684 
L 158.127956 -261.391955 
L 157.275795 -262.361226 
L 156.333456 -263.330497 
L 155.307387 -264.299767 
L 154.206549 -265.269038 
L 153.042249 -266.238309 
L 151.8279 -267.20758 
L 150.578702 -268.176851 
L 149.311264 -269.146121 
L 148.043166 -270.115392 
L 146.792484 -271.084663 
L 145.5773 -272.053934 
L 144.415194 -273.023205 
L 143.322772 -273.992475 
L 142.31522 -274.961746 
L 141.405918 -275.931017 
L 140.606134 -276.900288 
L 139.924797 -277.869559 
L 139.368375 -278.838829 
L 138.940852 -279.8081 
L 138.643798 -280.777371 
L 138.476532 -281.746642 
L 138.436364 -282.715913 
L 138.518886 -283.685183 
L 138.718312 -284.654454 
L 139.027822 -285.623725 
L 139.439908 -286.592996 
L 139.946683 -287.562267 
L 140.540156 -288.531537 
L 141.212444 -289.500808 
L 141.955924 -290.470079 
L 142.763318 -291.43935 
L 143.627724 -292.40862 
L 144.542581 -293.377891 
L 145.501611 -294.347162 
L 146.498719 -295.316433 
L 147.527893 -296.285704 
L 148.583098 -297.254974 
L 149.658193 -298.224245 
L 150.746868 -299.193516 
L 151.842625 -300.162787 
L 152.938782 -301.132058 
L 154.028522 -302.101328 
L 155.104983 -303.070599 
L 156.161356 -304.03987 
L 157.191027 -305.009141 
L 158.187711 -305.978412 
L 159.145594 -306.947682 
L 160.059475 -307.916953 
L 160.924875 -308.886224 
L 161.738136 -309.855495 
L 162.496488 -310.824766 
L 163.198085 -311.794036 
L 163.842006 -312.763307 
L 164.428229 -313.732578 
L 164.957578 -314.701849 
L 165.431639 -315.67112 
L 165.852666 -316.64039 
L 166.223466 -317.609661 
L 166.547282 -318.578932 
L 166.827673 -319.548203 
L 167.068393 -320.517473 
L 167.273286 -321.486744 
L 169.092265 -321.486744 
L 169.092265 -321.486744 
L 169.297158 -320.517473 
L 169.537878 -319.548203 
L 169.818269 -318.578932 
L 170.142085 -317.609661 
L 170.512885 -316.64039 
L 170.933912 -315.67112 
L 171.407973 -314.701849 
L 171.937322 -313.732578 
L 172.523545 -312.763307 
L 173.167466 -311.794036 
L 173.869063 -310.824766 
L 174.627415 -309.855495 
L 175.440676 -308.886224 
L 176.306076 -307.916953 
L 177.219957 -306.947682 
L 178.177841 -305.978412 
L 179.174524 -305.009141 
L 180.204195 -304.03987 
L 181.260569 -303.070599 
L 182.337029 -302.101328 
L 183.42677 -301.132058 
L 184.522926 -300.162787 
L 185.618683 -299.193516 
L 186.707359 -298.224245 
L 187.782453 -297.254974 
L 188.837658 -296.285704 
L 189.866832 -295.316433 
L 190.863941 -294.347162 
L 191.82297 -293.377891 
L 192.737828 -292.40862 
L 193.602233 -291.43935 
L 194.409628 -290.470079 
L 195.153107 -289.500808 
L 195.825395 -288.531537 
L 196.418868 -287.562267 
L 196.925644 -286.592996 
L 197.337729 -285.623725 
L 197.64724 -284.654454 
L 197.846665 -283.685183 
L 197.929188 -282.715913 
L 197.889019 -281.746642 
L 197.721753 -280.777371 
L 197.424699 -279.8081 
L 196.997176 -278.838829 
L 196.440755 -277.869559 
L 195.759417 -276.900288 
L 194.959633 -275.931017 
L 194.050331 -274.961746 
L 193.042779 -273.992475 
L 191.950357 -273.023205 
L 190.788252 -272.053934 
L 189.573067 -271.084663 
L 188.322386 -270.115392 
L 187.054287 -269.146121 
L 185.786849 -268.176851 
L 184.537652 -267.20758 
L 183.323302 -266.238309 
L 182.159002 -265.269038 
L 181.058164 -264.299767 
L 180.032096 -263.330497 
L 179.089757 -262.361226 
L 178.237595 -261.391955 
L 177.479468 -260.422684 
L 176.816638 -259.453413 
L 176.247858 -258.484143 
L 175.769524 -257.514872 
L 175.3759 -256.545601 
L 175.059402 -255.57633 
L 174.81093 -254.60706 
L 174.620241 -253.637789 
L 174.476342 -252.668518 
L 174.367902 -251.699247 
L 174.283643 -250.729976 
L 174.212735 -249.760706 
L 174.145133 -248.791435 
L 174.071889 -247.822164 
L 173.985391 -246.852893 
L 173.879545 -245.883622 
L 173.749882 -244.914352 
L 173.593596 -243.945081 
L 173.409507 -242.97581 
L 173.197959 -242.006539 
L 172.960667 -241.037268 
L 172.700508 -240.067998 
L 172.421286 -239.098727 
L 172.127477 -238.129456 
L 171.823965 -237.160185 
L 171.515791 -236.190914 
L 171.207922 -235.221644 
L 170.905044 -234.252373 
L 170.611395 -233.283102 
L 170.330641 -232.313831 
L 170.065793 -231.34456 
L 169.819161 -230.37529 
L 169.592352 -229.406019 
L 169.386297 -228.436748 
L 169.201304 -227.467477 
L 169.037135 -226.498207 
L 168.893092 -225.528936 
z
" style="stroke: #3d3d3d; stroke-width: 1.5"/>
    </defs>
    <g clip-path="url(#pacfe813ef3)">
     <use xlink:href="#m0982fc485c" x="0" y="576" style="fill: #3274a1; stroke: #3d3d3d; stroke-width: 1.5"/>
    </g>
   </g>
   <g id="PolyCollection_2">
    <defs>
     <path id="m4f7047b6dd" d="M 282.382068 -253.048597 
L 279.962681 -253.048597 
L 279.699993 -253.69854 
L 279.394328 -254.348484 
L 279.04182 -254.998427 
L 278.638865 -255.648371 
L 278.182227 -256.298314 
L 277.669143 -256.948258 
L 277.097404 -257.598201 
L 276.465423 -258.248145 
L 275.772259 -258.898088 
L 275.017621 -259.548032 
L 274.201816 -260.197975 
L 273.325679 -260.847919 
L 272.390454 -261.497862 
L 271.397656 -262.147806 
L 270.348919 -262.797749 
L 269.245838 -263.447693 
L 268.08984 -264.097636 
L 266.882073 -264.74758 
L 265.623362 -265.397523 
L 264.314227 -266.047467 
L 262.954981 -266.69741 
L 261.545916 -267.347354 
L 260.087575 -267.997297 
L 258.581098 -268.647241 
L 257.028638 -269.297184 
L 255.433801 -269.947128 
L 253.8021 -270.597071 
L 252.141375 -271.247015 
L 250.462134 -271.896958 
L 248.777793 -272.546902 
L 247.104766 -273.196845 
L 245.462374 -273.846789 
L 243.872572 -274.496732 
L 242.359474 -275.146676 
L 240.948684 -275.796619 
L 239.666466 -276.446563 
L 238.538789 -277.096506 
L 237.590287 -277.74645 
L 236.843203 -278.396393 
L 236.316375 -279.046337 
L 236.024329 -279.69628 
L 235.976535 -280.346224 
L 236.176878 -280.996167 
L 236.623373 -281.646111 
L 237.308153 -282.296054 
L 238.217721 -282.945998 
L 239.333453 -283.595941 
L 240.632324 -284.245885 
L 242.087801 -284.895828 
L 243.670855 -285.545772 
L 245.351028 -286.195715 
L 247.097495 -286.845659 
L 248.880069 -287.495602 
L 250.670089 -288.145546 
L 252.441176 -288.795489 
L 254.169815 -289.445433 
L 255.835765 -290.095376 
L 257.422299 -290.74532 
L 258.916285 -291.395263 
L 260.308137 -292.045207 
L 261.591654 -292.69515 
L 262.763785 -293.345094 
L 263.824343 -293.995037 
L 264.775686 -294.644981 
L 265.622398 -295.294924 
L 266.37096 -295.944868 
L 267.029437 -296.594811 
L 267.607175 -297.244755 
L 268.114499 -297.894698 
L 268.562417 -298.544642 
L 268.962325 -299.194585 
L 269.325705 -299.844529 
L 269.663822 -300.494472 
L 269.987422 -301.144416 
L 270.306443 -301.794359 
L 270.629738 -302.444303 
L 270.964836 -303.094246 
L 271.317744 -303.74419 
L 271.69281 -304.394133 
L 272.092645 -305.044077 
L 272.518121 -305.69402 
L 272.968441 -306.343964 
L 273.44128 -306.993907 
L 273.932983 -307.643851 
L 274.438816 -308.293794 
L 274.953255 -308.943738 
L 275.470286 -309.593681 
L 275.983709 -310.243625 
L 276.487432 -310.893568 
L 276.975722 -311.543512 
L 277.443429 -312.193455 
L 277.886151 -312.843399 
L 278.300349 -313.493342 
L 278.683411 -314.143286 
L 279.033659 -314.793229 
L 279.350318 -315.443173 
L 279.633441 -316.093116 
L 279.883812 -316.74306 
L 280.102826 -317.393003 
L 282.241923 -317.393003 
L 282.241923 -317.393003 
L 282.460937 -316.74306 
L 282.711308 -316.093116 
L 282.994431 -315.443173 
L 283.31109 -314.793229 
L 283.661338 -314.143286 
L 284.0444 -313.493342 
L 284.458598 -312.843399 
L 284.90132 -312.193455 
L 285.369027 -311.543512 
L 285.857317 -310.893568 
L 286.36104 -310.243625 
L 286.874463 -309.593681 
L 287.391494 -308.943738 
L 287.905933 -308.293794 
L 288.411766 -307.643851 
L 288.903469 -306.993907 
L 289.376308 -306.343964 
L 289.826628 -305.69402 
L 290.252104 -305.044077 
L 290.651939 -304.394133 
L 291.027005 -303.74419 
L 291.379913 -303.094246 
L 291.715011 -302.444303 
L 292.038306 -301.794359 
L 292.357327 -301.144416 
L 292.680927 -300.494472 
L 293.019044 -299.844529 
L 293.382424 -299.194585 
L 293.782332 -298.544642 
L 294.23025 -297.894698 
L 294.737574 -297.244755 
L 295.315312 -296.594811 
L 295.973789 -295.944868 
L 296.722351 -295.294924 
L 297.569063 -294.644981 
L 298.520406 -293.995037 
L 299.580964 -293.345094 
L 300.753095 -292.69515 
L 302.036612 -292.045207 
L 303.428464 -291.395263 
L 304.92245 -290.74532 
L 306.508984 -290.095376 
L 308.174934 -289.445433 
L 309.903573 -288.795489 
L 311.67466 -288.145546 
L 313.46468 -287.495602 
L 315.247254 -286.845659 
L 316.993721 -286.195715 
L 318.673894 -285.545772 
L 320.256948 -284.895828 
L 321.712425 -284.245885 
L 323.011296 -283.595941 
L 324.127028 -282.945998 
L 325.036596 -282.296054 
L 325.721376 -281.646111 
L 326.167871 -280.996167 
L 326.368214 -280.346224 
L 326.32042 -279.69628 
L 326.028374 -279.046337 
L 325.501546 -278.396393 
L 324.754462 -277.74645 
L 323.80596 -277.096506 
L 322.678283 -276.446563 
L 321.396065 -275.796619 
L 319.985275 -275.146676 
L 318.472177 -274.496732 
L 316.882375 -273.846789 
L 315.239983 -273.196845 
L 313.566956 -272.546902 
L 311.882615 -271.896958 
L 310.203374 -271.247015 
L 308.542649 -270.597071 
L 306.910948 -269.947128 
L 305.316111 -269.297184 
L 303.763651 -268.647241 
L 302.257174 -267.997297 
L 300.798833 -267.347354 
L 299.389768 -266.69741 
L 298.030522 -266.047467 
L 296.721387 -265.397523 
L 295.462676 -264.74758 
L 294.254909 -264.097636 
L 293.098911 -263.447693 
L 291.99583 -262.797749 
L 290.947093 -262.147806 
L 289.954295 -261.497862 
L 289.01907 -260.847919 
L 288.142933 -260.197975 
L 287.327128 -259.548032 
L 286.57249 -258.898088 
L 285.879326 -258.248145 
L 285.247345 -257.598201 
L 284.675606 -256.948258 
L 284.162522 -256.298314 
L 283.705884 -255.648371 
L 283.302929 -254.998427 
L 282.950421 -254.348484 
L 282.644756 -253.69854 
L 282.382068 -253.048597 
z
" style="stroke: #3d3d3d; stroke-width: 1.5"/>
    </defs>
    <g clip-path="url(#pacfe813ef3)">
     <use xlink:href="#m4f7047b6dd" x="0" y="576" style="fill: #e1812c; stroke: #3d3d3d; stroke-width: 1.5"/>
    </g>
   </g>
   <g id="PolyCollection_3">
    <defs>
     <path id="mc7baf043e2" d="M 394.404147 -73.47758 
L 393.919799 -73.47758 
L 393.865168 -76.208399 
L 393.801309 -78.939218 
L 393.727393 -81.670037 
L 393.642662 -84.400856 
L 393.546464 -87.131675 
L 393.438278 -89.862494 
L 393.317738 -92.593313 
L 393.184657 -95.324132 
L 393.039031 -98.054951 
L 392.881051 -100.78577 
L 392.711086 -103.516589 
L 392.529674 -106.247408 
L 392.337489 -108.978227 
L 392.135307 -111.709046 
L 391.923962 -114.439865 
L 391.704298 -117.170684 
L 391.47712 -119.901503 
L 391.243144 -122.632322 
L 391.002962 -125.363141 
L 390.757002 -128.09396 
L 390.505514 -130.824779 
L 390.248559 -133.555598 
L 389.986024 -136.286417 
L 389.717648 -139.017236 
L 389.443068 -141.748055 
L 389.161878 -144.478874 
L 388.873702 -147.209693 
L 388.578279 -149.940512 
L 388.27555 -152.671331 
L 387.96575 -155.40215 
L 387.649496 -158.132969 
L 387.32786 -160.863788 
L 387.002435 -163.594607 
L 386.675378 -166.325426 
L 386.349426 -169.056245 
L 386.027893 -171.787064 
L 385.714624 -174.517883 
L 385.413929 -177.248702 
L 385.13048 -179.979521 
L 384.869182 -182.71034 
L 384.635013 -185.441159 
L 384.432857 -188.171978 
L 384.267309 -190.902797 
L 384.142492 -193.633616 
L 384.061872 -196.364435 
L 384.028088 -199.095254 
L 384.042817 -201.826073 
L 384.106663 -204.556892 
L 384.219098 -207.287711 
L 384.378442 -210.018529 
L 384.581896 -212.749348 
L 384.825629 -215.480167 
L 385.104899 -218.210986 
L 385.414228 -220.941805 
L 385.747598 -223.672624 
L 386.098672 -226.403443 
L 386.461027 -229.134262 
L 386.828377 -231.865081 
L 387.194793 -234.5959 
L 387.554889 -237.326719 
L 387.903983 -240.057538 
L 388.238211 -242.788357 
L 388.55461 -245.519176 
L 388.851143 -248.249995 
L 389.126698 -250.980814 
L 389.381032 -253.711633 
L 389.614694 -256.442452 
L 389.828915 -259.173271 
L 390.025483 -261.90409 
L 390.206602 -264.634909 
L 390.374745 -267.365728 
L 390.532519 -270.096547 
L 390.682528 -272.827366 
L 390.827252 -275.558185 
L 390.968949 -278.289004 
L 391.109564 -281.019823 
L 391.250674 -283.750642 
L 391.393447 -286.481461 
L 391.538619 -289.21228 
L 391.686505 -291.943099 
L 391.837013 -294.673918 
L 391.98969 -297.404737 
L 392.143768 -300.135556 
L 392.298231 -302.866375 
L 392.451881 -305.597194 
L 392.603411 -308.328013 
L 392.751477 -311.058832 
L 392.894765 -313.789651 
L 393.032046 -316.52047 
L 393.162235 -319.251289 
L 393.284419 -321.982108 
L 393.397894 -324.712927 
L 393.502172 -327.443746 
L 393.596987 -330.174565 
L 393.682285 -332.905384 
L 393.75821 -335.636203 
L 393.825075 -338.367022 
L 393.88334 -341.097841 
L 393.933573 -343.82866 
L 394.390374 -343.82866 
L 394.390374 -343.82866 
L 394.440607 -341.097841 
L 394.498872 -338.367022 
L 394.565737 -335.636203 
L 394.641662 -332.905384 
L 394.72696 -330.174565 
L 394.821775 -327.443746 
L 394.926053 -324.712927 
L 395.039528 -321.982108 
L 395.161712 -319.251289 
L 395.2919 -316.52047 
L 395.429182 -313.789651 
L 395.572469 -311.058832 
L 395.720536 -308.328013 
L 395.872066 -305.597194 
L 396.025716 -302.866375 
L 396.180179 -300.135556 
L 396.334257 -297.404737 
L 396.486934 -294.673918 
L 396.637442 -291.943099 
L 396.785328 -289.21228 
L 396.9305 -286.481461 
L 397.073272 -283.750642 
L 397.214383 -281.019823 
L 397.354998 -278.289004 
L 397.496694 -275.558185 
L 397.641419 -272.827366 
L 397.791428 -270.096547 
L 397.949202 -267.365728 
L 398.117345 -264.634909 
L 398.298463 -261.90409 
L 398.495032 -259.173271 
L 398.709253 -256.442452 
L 398.942915 -253.711633 
L 399.197249 -250.980814 
L 399.472803 -248.249995 
L 399.769337 -245.519176 
L 400.085736 -242.788357 
L 400.419964 -240.057538 
L 400.769057 -237.326719 
L 401.129154 -234.5959 
L 401.49557 -231.865081 
L 401.86292 -229.134262 
L 402.225274 -226.403443 
L 402.576349 -223.672624 
L 402.909719 -220.941805 
L 403.219048 -218.210986 
L 403.498318 -215.480167 
L 403.74205 -212.749348 
L 403.945505 -210.018529 
L 404.104848 -207.287711 
L 404.217283 -204.556892 
L 404.28113 -201.826073 
L 404.295859 -199.095254 
L 404.262075 -196.364435 
L 404.181454 -193.633616 
L 404.056638 -190.902797 
L 403.89109 -188.171978 
L 403.688934 -185.441159 
L 403.454765 -182.71034 
L 403.193466 -179.979521 
L 402.910018 -177.248702 
L 402.609323 -174.517883 
L 402.296054 -171.787064 
L 401.97452 -169.056245 
L 401.648569 -166.325426 
L 401.321512 -163.594607 
L 400.996087 -160.863788 
L 400.674451 -158.132969 
L 400.358197 -155.40215 
L 400.048397 -152.671331 
L 399.745668 -149.940512 
L 399.450244 -147.209693 
L 399.162068 -144.478874 
L 398.880878 -141.748055 
L 398.606299 -139.017236 
L 398.337923 -136.286417 
L 398.075388 -133.555598 
L 397.818433 -130.824779 
L 397.566944 -128.09396 
L 397.320985 -125.363141 
L 397.080802 -122.632322 
L 396.846827 -119.901503 
L 396.619648 -117.170684 
L 396.399984 -114.439865 
L 396.18864 -111.709046 
L 395.986458 -108.978227 
L 395.794273 -106.247408 
L 395.612861 -103.516589 
L 395.442896 -100.78577 
L 395.284915 -98.054951 
L 395.13929 -95.324132 
L 395.006208 -92.593313 
L 394.885669 -89.862494 
L 394.777483 -87.131675 
L 394.681285 -84.400856 
L 394.596554 -81.670037 
L 394.522637 -78.939218 
L 394.458779 -76.208399 
L 394.404147 -73.47758 
z
" style="stroke: #3d3d3d; stroke-width: 1.5"/>
    </defs>
    <g clip-path="url(#pacfe813ef3)">
     <use xlink:href="#mc7baf043e2" x="0" y="576" style="fill: #3a923a; stroke: #3d3d3d; stroke-width: 1.5"/>
    </g>
   </g>
   <g id="PolyCollection_4">
    <defs>
     <path id="m5b4c3a7624" d="M 508.416212 -174.245751 
L 505.886933 -174.245751 
L 505.735635 -175.733402 
L 505.571195 -177.221054 
L 505.39316 -178.708705 
L 505.201153 -180.196356 
L 504.994883 -181.684007 
L 504.774161 -183.171658 
L 504.538907 -184.659309 
L 504.289162 -186.14696 
L 504.025096 -187.634611 
L 503.747015 -189.122262 
L 503.455366 -190.609913 
L 503.150742 -192.097564 
L 502.833882 -193.585215 
L 502.505669 -195.072867 
L 502.167127 -196.560518 
L 501.819413 -198.048169 
L 501.463811 -199.53582 
L 501.101715 -201.023471 
L 500.734619 -202.511122 
L 500.364098 -203.998773 
L 499.991789 -205.486424 
L 499.619374 -206.974075 
L 499.248553 -208.461726 
L 498.881027 -209.949377 
L 498.518473 -211.437028 
L 498.162521 -212.92468 
L 497.814733 -214.412331 
L 497.476585 -215.899982 
L 497.149447 -217.387633 
L 496.834567 -218.875284 
L 496.533059 -220.362935 
L 496.245892 -221.850586 
L 495.973886 -223.338237 
L 495.717707 -224.825888 
L 495.477868 -226.313539 
L 495.254735 -227.80119 
L 495.048536 -229.288841 
L 494.85937 -230.776493 
L 494.68722 -232.264144 
L 494.531975 -233.751795 
L 494.393444 -235.239446 
L 494.271377 -236.727097 
L 494.165486 -238.214748 
L 494.075465 -239.702399 
L 494.001009 -241.19005 
L 493.941833 -242.677701 
L 493.897688 -244.165352 
L 493.868375 -245.653003 
L 493.853754 -247.140654 
L 493.853754 -248.628306 
L 493.868375 -250.115957 
L 493.897688 -251.603608 
L 493.941833 -253.091259 
L 494.001009 -254.57891 
L 494.075465 -256.066561 
L 494.165486 -257.554212 
L 494.271377 -259.041863 
L 494.393444 -260.529514 
L 494.531975 -262.017165 
L 494.68722 -263.504816 
L 494.85937 -264.992467 
L 495.048536 -266.480119 
L 495.254735 -267.96777 
L 495.477868 -269.455421 
L 495.717707 -270.943072 
L 495.973886 -272.430723 
L 496.245892 -273.918374 
L 496.533059 -275.406025 
L 496.834567 -276.893676 
L 497.149447 -278.381327 
L 497.476585 -279.868978 
L 497.814733 -281.356629 
L 498.162521 -282.84428 
L 498.518473 -284.331932 
L 498.881027 -285.819583 
L 499.248553 -287.307234 
L 499.619374 -288.794885 
L 499.991789 -290.282536 
L 500.364098 -291.770187 
L 500.734619 -293.257838 
L 501.101715 -294.745489 
L 501.463811 -296.23314 
L 501.819413 -297.720791 
L 502.167127 -299.208442 
L 502.505669 -300.696093 
L 502.833882 -302.183745 
L 503.150742 -303.671396 
L 503.455366 -305.159047 
L 503.747015 -306.646698 
L 504.025096 -308.134349 
L 504.289162 -309.622 
L 504.538907 -311.109651 
L 504.774161 -312.597302 
L 504.994883 -314.084953 
L 505.201153 -315.572604 
L 505.39316 -317.060255 
L 505.571195 -318.547906 
L 505.735635 -320.035558 
L 505.886933 -321.523209 
L 508.416212 -321.523209 
L 508.416212 -321.523209 
L 508.567509 -320.035558 
L 508.731949 -318.547906 
L 508.909984 -317.060255 
L 509.101992 -315.572604 
L 509.308262 -314.084953 
L 509.528984 -312.597302 
L 509.764238 -311.109651 
L 510.013983 -309.622 
L 510.278049 -308.134349 
L 510.55613 -306.646698 
L 510.847779 -305.159047 
L 511.152402 -303.671396 
L 511.469262 -302.183745 
L 511.797475 -300.696093 
L 512.136018 -299.208442 
L 512.483731 -297.720791 
L 512.839333 -296.23314 
L 513.201429 -294.745489 
L 513.568526 -293.257838 
L 513.939047 -291.770187 
L 514.311355 -290.282536 
L 514.683771 -288.794885 
L 515.054591 -287.307234 
L 515.422117 -285.819583 
L 515.784671 -284.331932 
L 516.140624 -282.84428 
L 516.488412 -281.356629 
L 516.826559 -279.868978 
L 517.153697 -278.381327 
L 517.468577 -276.893676 
L 517.770086 -275.406025 
L 518.057252 -273.918374 
L 518.329258 -272.430723 
L 518.585438 -270.943072 
L 518.825277 -269.455421 
L 519.048409 -267.96777 
L 519.254608 -266.480119 
L 519.443775 -264.992467 
L 519.615925 -263.504816 
L 519.77117 -262.017165 
L 519.909701 -260.529514 
L 520.031767 -259.041863 
L 520.137658 -257.554212 
L 520.227679 -256.066561 
L 520.302135 -254.57891 
L 520.361311 -253.091259 
L 520.405456 -251.603608 
L 520.43477 -250.115957 
L 520.449391 -248.628306 
L 520.449391 -247.140654 
L 520.43477 -245.653003 
L 520.405456 -244.165352 
L 520.361311 -242.677701 
L 520.302135 -241.19005 
L 520.227679 -239.702399 
L 520.137658 -238.214748 
L 520.031767 -236.727097 
L 519.909701 -235.239446 
L 519.77117 -233.751795 
L 519.615925 -232.264144 
L 519.443775 -230.776493 
L 519.254608 -229.288841 
L 519.048409 -227.80119 
L 518.825277 -226.313539 
L 518.585438 -224.825888 
L 518.329258 -223.338237 
L 518.057252 -221.850586 
L 517.770086 -220.362935 
L 517.468577 -218.875284 
L 517.153697 -217.387633 
L 516.826559 -215.899982 
L 516.488412 -214.412331 
L 516.140624 -212.92468 
L 515.784671 -211.437028 
L 515.422117 -209.949377 
L 515.054591 -208.461726 
L 514.683771 -206.974075 
L 514.311355 -205.486424 
L 513.939047 -203.998773 
L 513.568526 -202.511122 
L 513.201429 -201.023471 
L 512.839333 -199.53582 
L 512.483731 -198.048169 
L 512.136018 -196.560518 
L 511.797475 -195.072867 
L 511.469262 -193.585215 
L 511.152402 -192.097564 
L 510.847779 -190.609913 
L 510.55613 -189.122262 
L 510.278049 -187.634611 
L 510.013983 -186.14696 
L 509.764238 -184.659309 
L 509.528984 -183.171658 
L 509.308262 -181.684007 
L 509.101992 -180.196356 
L 508.909984 -178.708705 
L 508.731949 -177.221054 
L 508.567509 -175.733402 
L 508.416212 -174.245751 
z
" style="stroke: #3d3d3d; stroke-width: 1.5"/>
    </defs>
    <g clip-path="url(#pacfe813ef3)">
     <use xlink:href="#m5b4c3a7624" x="0" y="576" style="fill: #c03d3e; stroke: #3d3d3d; stroke-width: 1.5"/>
    </g>
   </g>
   <g id="PolyCollection_5">
    <defs>
     <path id="mffd4aff8fa" d="M 621.044916 -72.43482 
L 619.237426 -72.43482 
L 619.091163 -74.695126 
L 618.927354 -76.955433 
L 618.745025 -79.21574 
L 618.54335 -81.476046 
L 618.321689 -83.736353 
L 618.079624 -85.99666 
L 617.816999 -88.256966 
L 617.533957 -90.517273 
L 617.23097 -92.77758 
L 616.908869 -95.037886 
L 616.568862 -97.298193 
L 616.212551 -99.5585 
L 615.84193 -101.818806 
L 615.459384 -104.079113 
L 615.067668 -106.33942 
L 614.669877 -108.599726 
L 614.269407 -110.860033 
L 613.869905 -113.12034 
L 613.4752 -115.380646 
L 613.089236 -117.640953 
L 612.715995 -119.90126 
L 612.359405 -122.161566 
L 612.023263 -124.421873 
L 611.711138 -126.68218 
L 611.426292 -128.942487 
L 611.171598 -131.202793 
L 610.949472 -133.4631 
L 610.761808 -135.723407 
L 610.609933 -137.983713 
L 610.494575 -140.24402 
L 610.415845 -142.504327 
L 610.373239 -144.764633 
L 610.365652 -147.02494 
L 610.391417 -149.285247 
L 610.448349 -151.545553 
L 610.53381 -153.80586 
L 610.644785 -156.066167 
L 610.777963 -158.326473 
L 610.929829 -160.58678 
L 611.096755 -162.847087 
L 611.275094 -165.107393 
L 611.461271 -167.3677 
L 611.651866 -169.628007 
L 611.843692 -171.888313 
L 612.03386 -174.14862 
L 612.219836 -176.408927 
L 612.399483 -178.669233 
L 612.571085 -180.92954 
L 612.733368 -183.189847 
L 612.885499 -185.450153 
L 613.027075 -187.71046 
L 613.158104 -189.970767 
L 613.278971 -192.231073 
L 613.3904 -194.49138 
L 613.493408 -196.751687 
L 613.589255 -199.011993 
L 613.679391 -201.2723 
L 613.765401 -203.532607 
L 613.848954 -205.792913 
L 613.931747 -208.05322 
L 614.01546 -210.313527 
L 614.101709 -212.573833 
L 614.192007 -214.83414 
L 614.287728 -217.094447 
L 614.390077 -219.354753 
L 614.500069 -221.61506 
L 614.618506 -223.875367 
L 614.745972 -226.135673 
L 614.882818 -228.39598 
L 615.029171 -230.656287 
L 615.184927 -232.916593 
L 615.34977 -235.1769 
L 615.523178 -237.437207 
L 615.704443 -239.697513 
L 615.89269 -241.95782 
L 616.086904 -244.218127 
L 616.285949 -246.478434 
L 616.488599 -248.73874 
L 616.693564 -250.999047 
L 616.899521 -253.259354 
L 617.105136 -255.51966 
L 617.309098 -257.779967 
L 617.510137 -260.040274 
L 617.70705 -262.30058 
L 617.898722 -264.560887 
L 618.084142 -266.821194 
L 618.262415 -269.0815 
L 618.432776 -271.341807 
L 618.594593 -273.602114 
L 618.747375 -275.86242 
L 618.890765 -278.122727 
L 619.024543 -280.383034 
L 619.148619 -282.64334 
L 619.263019 -284.903647 
L 619.367882 -287.163954 
L 619.463444 -289.42426 
L 619.550024 -291.684567 
L 619.628014 -293.944874 
L 619.697861 -296.20518 
L 620.584481 -296.20518 
L 620.584481 -296.20518 
L 620.654328 -293.944874 
L 620.732318 -291.684567 
L 620.818898 -289.42426 
L 620.91446 -287.163954 
L 621.019323 -284.903647 
L 621.133724 -282.64334 
L 621.257799 -280.383034 
L 621.391577 -278.122727 
L 621.534968 -275.86242 
L 621.687749 -273.602114 
L 621.849566 -271.341807 
L 622.019927 -269.0815 
L 622.1982 -266.821194 
L 622.38362 -264.560887 
L 622.575292 -262.30058 
L 622.772205 -260.040274 
L 622.973244 -257.779967 
L 623.177206 -255.51966 
L 623.382822 -253.259354 
L 623.588778 -250.999047 
L 623.793744 -248.73874 
L 623.996393 -246.478434 
L 624.195438 -244.218127 
L 624.389652 -241.95782 
L 624.5779 -239.697513 
L 624.759165 -237.437207 
L 624.932572 -235.1769 
L 625.097415 -232.916593 
L 625.253172 -230.656287 
L 625.399524 -228.39598 
L 625.536371 -226.135673 
L 625.663836 -223.875367 
L 625.782273 -221.61506 
L 625.892265 -219.354753 
L 625.994614 -217.094447 
L 626.090335 -214.83414 
L 626.180633 -212.573833 
L 626.266883 -210.313527 
L 626.350596 -208.05322 
L 626.433388 -205.792913 
L 626.516941 -203.532607 
L 626.602951 -201.2723 
L 626.693087 -199.011993 
L 626.788934 -196.751687 
L 626.891942 -194.49138 
L 627.003371 -192.231073 
L 627.124238 -189.970767 
L 627.255267 -187.71046 
L 627.396844 -185.450153 
L 627.548974 -183.189847 
L 627.711258 -180.92954 
L 627.88286 -178.669233 
L 628.062506 -176.408927 
L 628.248482 -174.14862 
L 628.438651 -171.888313 
L 628.630476 -169.628007 
L 628.821071 -167.3677 
L 629.007248 -165.107393 
L 629.185587 -162.847087 
L 629.352513 -160.58678 
L 629.504379 -158.326473 
L 629.637557 -156.066167 
L 629.748532 -153.80586 
L 629.833993 -151.545553 
L 629.890925 -149.285247 
L 629.91669 -147.02494 
L 629.909104 -144.764633 
L 629.866497 -142.504327 
L 629.787768 -140.24402 
L 629.67241 -137.983713 
L 629.520535 -135.723407 
L 629.33287 -133.4631 
L 629.110744 -131.202793 
L 628.856051 -128.942487 
L 628.571204 -126.68218 
L 628.259079 -124.421873 
L 627.922937 -122.161566 
L 627.566348 -119.90126 
L 627.193106 -117.640953 
L 626.807143 -115.380646 
L 626.412437 -113.12034 
L 626.012935 -110.860033 
L 625.612466 -108.599726 
L 625.214675 -106.33942 
L 624.822958 -104.079113 
L 624.440412 -101.818806 
L 624.069792 -99.5585 
L 623.71348 -97.298193 
L 623.373474 -95.037886 
L 623.051372 -92.77758 
L 622.748385 -90.517273 
L 622.465343 -88.256966 
L 622.202718 -85.99666 
L 621.960653 -83.736353 
L 621.738992 -81.476046 
L 621.537318 -79.21574 
L 621.354989 -76.955433 
L 621.191179 -74.695126 
L 621.044916 -72.43482 
z
" style="stroke: #3d3d3d; stroke-width: 1.5"/>
    </defs>
    <g clip-path="url(#pacfe813ef3)">
     <use xlink:href="#mffd4aff8fa" x="0" y="576" style="fill: #9372b2; stroke: #3d3d3d; stroke-width: 1.5"/>
    </g>
   </g>
   <g id="PolyCollection_6">
    <defs>
     <path id="m1f51e3ec5b" d="M 733.949789 -195.358935 
L 732.311751 -195.358935 
L 732.178332 -197.021598 
L 732.028245 -198.684262 
L 731.860299 -200.346926 
L 731.673364 -202.00959 
L 731.466393 -203.672254 
L 731.23845 -205.334918 
L 730.98874 -206.997582 
L 730.716631 -208.660246 
L 730.421688 -210.32291 
L 730.103695 -211.985574 
L 729.762681 -213.648238 
L 729.398943 -215.310902 
L 729.01306 -216.973566 
L 728.605912 -218.63623 
L 728.178692 -220.298894 
L 727.732906 -221.961558 
L 727.27038 -223.624222 
L 726.793251 -225.286886 
L 726.30396 -226.94955 
L 725.805236 -228.612214 
L 725.300074 -230.274877 
L 724.79171 -231.937541 
L 724.283588 -233.600205 
L 723.779325 -235.262869 
L 723.28267 -236.925533 
L 722.797455 -238.588197 
L 722.327551 -240.250861 
L 721.876812 -241.913525 
L 721.449018 -243.576189 
L 721.047824 -245.238853 
L 720.676696 -246.901517 
L 720.338856 -248.564181 
L 720.037223 -250.226845 
L 719.774359 -251.889509 
L 719.552417 -253.552173 
L 719.373093 -255.214837 
L 719.237587 -256.877501 
L 719.146569 -258.540165 
L 719.100158 -260.202829 
L 719.097904 -261.865492 
L 719.138788 -263.528156 
L 719.221233 -265.19082 
L 719.343128 -266.853484 
L 719.50186 -268.516148 
L 719.694369 -270.178812 
L 719.917201 -271.841476 
L 720.166589 -273.50414 
L 720.438525 -275.166804 
L 720.728857 -276.829468 
L 721.033374 -278.492132 
L 721.347908 -280.154796 
L 721.668425 -281.81746 
L 721.991117 -283.480124 
L 722.312486 -285.142788 
L 722.629419 -286.805452 
L 722.939248 -288.468116 
L 723.239804 -290.13078 
L 723.529445 -291.793444 
L 723.807073 -293.456108 
L 724.072133 -295.118771 
L 724.324595 -296.781435 
L 724.564919 -298.444099 
L 724.794005 -300.106763 
L 725.013133 -301.769427 
L 725.223888 -303.432091 
L 725.428083 -305.094755 
L 725.627673 -306.757419 
L 725.824671 -308.420083 
L 726.021066 -310.082747 
L 726.218744 -311.745411 
L 726.419416 -313.408075 
L 726.624559 -315.070739 
L 726.835367 -316.733403 
L 727.052715 -318.396067 
L 727.277133 -320.058731 
L 727.508802 -321.721395 
L 727.747554 -323.384059 
L 727.992891 -325.046723 
L 728.244009 -326.709386 
L 728.49984 -328.37205 
L 728.759091 -330.034714 
L 729.020294 -331.697378 
L 729.281858 -333.360042 
L 729.542124 -335.022706 
L 729.799413 -336.68537 
L 730.052079 -338.348034 
L 730.298547 -340.010698 
L 730.537359 -341.673362 
L 730.767202 -343.336026 
L 730.986932 -344.99869 
L 731.195597 -346.661354 
L 731.392441 -348.324018 
L 731.576913 -349.986682 
L 731.748664 -351.649346 
L 731.907534 -353.31201 
L 732.053548 -354.974674 
L 732.18689 -356.637338 
L 732.30789 -358.300002 
L 732.417005 -359.962665 
L 733.844535 -359.962665 
L 733.844535 -359.962665 
L 733.95365 -358.300002 
L 734.074651 -356.637338 
L 734.207992 -354.974674 
L 734.354006 -353.31201 
L 734.512876 -351.649346 
L 734.684627 -349.986682 
L 734.869099 -348.324018 
L 735.065943 -346.661354 
L 735.274608 -344.99869 
L 735.494338 -343.336026 
L 735.724181 -341.673362 
L 735.962993 -340.010698 
L 736.209461 -338.348034 
L 736.462127 -336.68537 
L 736.719416 -335.022706 
L 736.979682 -333.360042 
L 737.241246 -331.697378 
L 737.502449 -330.034714 
L 737.7617 -328.37205 
L 738.017531 -326.709386 
L 738.268649 -325.046723 
L 738.513986 -323.384059 
L 738.752738 -321.721395 
L 738.984407 -320.058731 
L 739.208825 -318.396067 
L 739.426173 -316.733403 
L 739.636981 -315.070739 
L 739.842124 -313.408075 
L 740.042796 -311.745411 
L 740.240474 -310.082747 
L 740.436869 -308.420083 
L 740.633868 -306.757419 
L 740.833457 -305.094755 
L 741.037652 -303.432091 
L 741.248407 -301.769427 
L 741.467535 -300.106763 
L 741.696621 -298.444099 
L 741.936945 -296.781435 
L 742.189407 -295.118771 
L 742.454467 -293.456108 
L 742.732095 -291.793444 
L 743.021736 -290.13078 
L 743.322292 -288.468116 
L 743.632121 -286.805452 
L 743.949054 -285.142788 
L 744.270423 -283.480124 
L 744.593115 -281.81746 
L 744.913632 -280.154796 
L 745.228166 -278.492132 
L 745.532683 -276.829468 
L 745.823015 -275.166804 
L 746.094951 -273.50414 
L 746.344339 -271.841476 
L 746.567171 -270.178812 
L 746.75968 -268.516148 
L 746.918412 -266.853484 
L 747.040307 -265.19082 
L 747.122753 -263.528156 
L 747.163636 -261.865492 
L 747.161382 -260.202829 
L 747.114971 -258.540165 
L 747.023954 -256.877501 
L 746.888448 -255.214837 
L 746.709123 -253.552173 
L 746.487181 -251.889509 
L 746.224317 -250.226845 
L 745.922684 -248.564181 
L 745.584844 -246.901517 
L 745.213716 -245.238853 
L 744.812522 -243.576189 
L 744.384728 -241.913525 
L 743.933989 -240.250861 
L 743.464085 -238.588197 
L 742.97887 -236.925533 
L 742.482215 -235.262869 
L 741.977952 -233.600205 
L 741.46983 -231.937541 
L 740.961466 -230.274877 
L 740.456304 -228.612214 
L 739.95758 -226.94955 
L 739.468289 -225.286886 
L 738.99116 -223.624222 
L 738.528634 -221.961558 
L 738.082848 -220.298894 
L 737.655628 -218.63623 
L 737.248481 -216.973566 
L 736.862597 -215.310902 
L 736.498859 -213.648238 
L 736.157845 -211.985574 
L 735.839853 -210.32291 
L 735.544909 -208.660246 
L 735.2728 -206.997582 
L 735.02309 -205.334918 
L 734.795147 -203.672254 
L 734.588176 -202.00959 
L 734.401241 -200.346926 
L 734.233295 -198.684262 
L 734.083208 -197.021598 
L 733.949789 -195.358935 
z
" style="stroke: #3d3d3d; stroke-width: 1.5"/>
    </defs>
    <g clip-path="url(#pacfe813ef3)">
     <use xlink:href="#m1f51e3ec5b" x="0" y="576" style="fill: #845b53; stroke: #3d3d3d; stroke-width: 1.5"/>
    </g>
   </g>
   <g id="matplotlib.axis_1">
    <g id="xtick_1">
     <g id="line2d_1">
      <defs>
       <path id="mb5bee6656d" d="M 0 0 
L 0 3.5 
" style="stroke: #000000; stroke-width: 0.8"/>
      </defs>
      <g>
       <use xlink:href="#mb5bee6656d" x="168.182776" y="512.64" style="stroke: #000000; stroke-width: 0.8"/>
      </g>
     </g>
     <g id="text_1">
      <!-- Raw -->
      <g transform="translate(157.667932 527.238438) scale(0.1 -0.1)">
       <defs>
        <path id="DejaVuSans-52" d="M 2841 2188 
Q 3044 2119 3236 1894 
Q 3428 1669 3622 1275 
L 4263 0 
L 3584 0 
L 2988 1197 
Q 2756 1666 2539 1819 
Q 2322 1972 1947 1972 
L 1259 1972 
L 1259 0 
L 628 0 
L 628 4666 
L 2053 4666 
Q 2853 4666 3247 4331 
Q 3641 3997 3641 3322 
Q 3641 2881 3436 2590 
Q 3231 2300 2841 2188 
z
M 1259 4147 
L 1259 2491 
L 2053 2491 
Q 2509 2491 2742 2702 
Q 2975 2913 2975 3322 
Q 2975 3731 2742 3939 
Q 2509 4147 2053 4147 
L 1259 4147 
z
" transform="scale(0.015625)"/>
        <path id="DejaVuSans-61" d="M 2194 1759 
Q 1497 1759 1228 1600 
Q 959 1441 959 1056 
Q 959 750 1161 570 
Q 1363 391 1709 391 
Q 2188 391 2477 730 
Q 2766 1069 2766 1631 
L 2766 1759 
L 2194 1759 
z
M 3341 1997 
L 3341 0 
L 2766 0 
L 2766 531 
Q 2569 213 2275 61 
Q 1981 -91 1556 -91 
Q 1019 -91 701 211 
Q 384 513 384 1019 
Q 384 1609 779 1909 
Q 1175 2209 1959 2209 
L 2766 2209 
L 2766 2266 
Q 2766 2663 2505 2880 
Q 2244 3097 1772 3097 
Q 1472 3097 1187 3025 
Q 903 2953 641 2809 
L 641 3341 
Q 956 3463 1253 3523 
Q 1550 3584 1831 3584 
Q 2591 3584 2966 3190 
Q 3341 2797 3341 1997 
z
" transform="scale(0.015625)"/>
        <path id="DejaVuSans-77" d="M 269 3500 
L 844 3500 
L 1563 769 
L 2278 3500 
L 2956 3500 
L 3675 769 
L 4391 3500 
L 4966 3500 
L 4050 0 
L 3372 0 
L 2619 2869 
L 1863 0 
L 1184 0 
L 269 3500 
z
" transform="scale(0.015625)"/>
       </defs>
       <use xlink:href="#DejaVuSans-52"/>
       <use xlink:href="#DejaVuSans-61" x="67.232422"/>
       <use xlink:href="#DejaVuSans-77" x="128.511719"/>
      </g>
     </g>
    </g>
    <g id="xtick_2">
     <g id="line2d_2">
      <g>
       <use xlink:href="#mb5bee6656d" x="281.172374" y="512.64" style="stroke: #000000; stroke-width: 0.8"/>
      </g>
     </g>
     <g id="text_2">
      <!-- All Subjects -->
      <g transform="translate(252.087999 527.238438) scale(0.1 -0.1)">
       <defs>
        <path id="DejaVuSans-41" d="M 2188 4044 
L 1331 1722 
L 3047 1722 
L 2188 4044 
z
M 1831 4666 
L 2547 4666 
L 4325 0 
L 3669 0 
L 3244 1197 
L 1141 1197 
L 716 0 
L 50 0 
L 1831 4666 
z
" transform="scale(0.015625)"/>
        <path id="DejaVuSans-6c" d="M 603 4863 
L 1178 4863 
L 1178 0 
L 603 0 
L 603 4863 
z
" transform="scale(0.015625)"/>
        <path id="DejaVuSans-20" transform="scale(0.015625)"/>
        <path id="DejaVuSans-53" d="M 3425 4513 
L 3425 3897 
Q 3066 4069 2747 4153 
Q 2428 4238 2131 4238 
Q 1616 4238 1336 4038 
Q 1056 3838 1056 3469 
Q 1056 3159 1242 3001 
Q 1428 2844 1947 2747 
L 2328 2669 
Q 3034 2534 3370 2195 
Q 3706 1856 3706 1288 
Q 3706 609 3251 259 
Q 2797 -91 1919 -91 
Q 1588 -91 1214 -16 
Q 841 59 441 206 
L 441 856 
Q 825 641 1194 531 
Q 1563 422 1919 422 
Q 2459 422 2753 634 
Q 3047 847 3047 1241 
Q 3047 1584 2836 1778 
Q 2625 1972 2144 2069 
L 1759 2144 
Q 1053 2284 737 2584 
Q 422 2884 422 3419 
Q 422 4038 858 4394 
Q 1294 4750 2059 4750 
Q 2388 4750 2728 4690 
Q 3069 4631 3425 4513 
z
" transform="scale(0.015625)"/>
        <path id="DejaVuSans-75" d="M 544 1381 
L 544 3500 
L 1119 3500 
L 1119 1403 
Q 1119 906 1312 657 
Q 1506 409 1894 409 
Q 2359 409 2629 706 
Q 2900 1003 2900 1516 
L 2900 3500 
L 3475 3500 
L 3475 0 
L 2900 0 
L 2900 538 
Q 2691 219 2414 64 
Q 2138 -91 1772 -91 
Q 1169 -91 856 284 
Q 544 659 544 1381 
z
M 1991 3584 
L 1991 3584 
z
" transform="scale(0.015625)"/>
        <path id="DejaVuSans-62" d="M 3116 1747 
Q 3116 2381 2855 2742 
Q 2594 3103 2138 3103 
Q 1681 3103 1420 2742 
Q 1159 2381 1159 1747 
Q 1159 1113 1420 752 
Q 1681 391 2138 391 
Q 2594 391 2855 752 
Q 3116 1113 3116 1747 
z
M 1159 2969 
Q 1341 3281 1617 3432 
Q 1894 3584 2278 3584 
Q 2916 3584 3314 3078 
Q 3713 2572 3713 1747 
Q 3713 922 3314 415 
Q 2916 -91 2278 -91 
Q 1894 -91 1617 61 
Q 1341 213 1159 525 
L 1159 0 
L 581 0 
L 581 4863 
L 1159 4863 
L 1159 2969 
z
" transform="scale(0.015625)"/>
        <path id="DejaVuSans-6a" d="M 603 3500 
L 1178 3500 
L 1178 -63 
Q 1178 -731 923 -1031 
Q 669 -1331 103 -1331 
L -116 -1331 
L -116 -844 
L 38 -844 
Q 366 -844 484 -692 
Q 603 -541 603 -63 
L 603 3500 
z
M 603 4863 
L 1178 4863 
L 1178 4134 
L 603 4134 
L 603 4863 
z
" transform="scale(0.015625)"/>
        <path id="DejaVuSans-65" d="M 3597 1894 
L 3597 1613 
L 953 1613 
Q 991 1019 1311 708 
Q 1631 397 2203 397 
Q 2534 397 2845 478 
Q 3156 559 3463 722 
L 3463 178 
Q 3153 47 2828 -22 
Q 2503 -91 2169 -91 
Q 1331 -91 842 396 
Q 353 884 353 1716 
Q 353 2575 817 3079 
Q 1281 3584 2069 3584 
Q 2775 3584 3186 3129 
Q 3597 2675 3597 1894 
z
M 3022 2063 
Q 3016 2534 2758 2815 
Q 2500 3097 2075 3097 
Q 1594 3097 1305 2825 
Q 1016 2553 972 2059 
L 3022 2063 
z
" transform="scale(0.015625)"/>
        <path id="DejaVuSans-63" d="M 3122 3366 
L 3122 2828 
Q 2878 2963 2633 3030 
Q 2388 3097 2138 3097 
Q 1578 3097 1268 2742 
Q 959 2388 959 1747 
Q 959 1106 1268 751 
Q 1578 397 2138 397 
Q 2388 397 2633 464 
Q 2878 531 3122 666 
L 3122 134 
Q 2881 22 2623 -34 
Q 2366 -91 2075 -91 
Q 1284 -91 818 406 
Q 353 903 353 1747 
Q 353 2603 823 3093 
Q 1294 3584 2113 3584 
Q 2378 3584 2631 3529 
Q 2884 3475 3122 3366 
z
" transform="scale(0.015625)"/>
        <path id="DejaVuSans-74" d="M 1172 4494 
L 1172 3500 
L 2356 3500 
L 2356 3053 
L 1172 3053 
L 1172 1153 
Q 1172 725 1289 603 
Q 1406 481 1766 481 
L 2356 481 
L 2356 0 
L 1766 0 
Q 1100 0 847 248 
Q 594 497 594 1153 
L 594 3053 
L 172 3053 
L 172 3500 
L 594 3500 
L 594 4494 
L 1172 4494 
z
" transform="scale(0.015625)"/>
        <path id="DejaVuSans-73" d="M 2834 3397 
L 2834 2853 
Q 2591 2978 2328 3040 
Q 2066 3103 1784 3103 
Q 1356 3103 1142 2972 
Q 928 2841 928 2578 
Q 928 2378 1081 2264 
Q 1234 2150 1697 2047 
L 1894 2003 
Q 2506 1872 2764 1633 
Q 3022 1394 3022 966 
Q 3022 478 2636 193 
Q 2250 -91 1575 -91 
Q 1294 -91 989 -36 
Q 684 19 347 128 
L 347 722 
Q 666 556 975 473 
Q 1284 391 1588 391 
Q 1994 391 2212 530 
Q 2431 669 2431 922 
Q 2431 1156 2273 1281 
Q 2116 1406 1581 1522 
L 1381 1569 
Q 847 1681 609 1914 
Q 372 2147 372 2553 
Q 372 3047 722 3315 
Q 1072 3584 1716 3584 
Q 2034 3584 2315 3537 
Q 2597 3491 2834 3397 
z
" transform="scale(0.015625)"/>
       </defs>
       <use xlink:href="#DejaVuSans-41"/>
       <use xlink:href="#DejaVuSans-6c" x="68.408203"/>
       <use xlink:href="#DejaVuSans-6c" x="96.191406"/>
       <use xlink:href="#DejaVuSans-20" x="123.974609"/>
       <use xlink:href="#DejaVuSans-53" x="155.761719"/>
       <use xlink:href="#DejaVuSans-75" x="219.238281"/>
       <use xlink:href="#DejaVuSans-62" x="282.617188"/>
       <use xlink:href="#DejaVuSans-6a" x="346.09375"/>
       <use xlink:href="#DejaVuSans-65" x="373.876953"/>
       <use xlink:href="#DejaVuSans-63" x="435.400391"/>
       <use xlink:href="#DejaVuSans-74" x="490.380859"/>
       <use xlink:href="#DejaVuSans-73" x="529.589844"/>
      </g>
     </g>
    </g>
    <g id="xtick_3">
     <g id="line2d_3">
      <g>
       <use xlink:href="#mb5bee6656d" x="394.161973" y="512.64" style="stroke: #000000; stroke-width: 0.8"/>
      </g>
     </g>
     <g id="text_3">
      <!-- Leave One -->
      <g transform="translate(367.516661 527.238438) scale(0.1 -0.1)">
       <defs>
        <path id="DejaVuSans-4c" d="M 628 4666 
L 1259 4666 
L 1259 531 
L 3531 531 
L 3531 0 
L 628 0 
L 628 4666 
z
" transform="scale(0.015625)"/>
        <path id="DejaVuSans-76" d="M 191 3500 
L 800 3500 
L 1894 563 
L 2988 3500 
L 3597 3500 
L 2284 0 
L 1503 0 
L 191 3500 
z
" transform="scale(0.015625)"/>
        <path id="DejaVuSans-4f" d="M 2522 4238 
Q 1834 4238 1429 3725 
Q 1025 3213 1025 2328 
Q 1025 1447 1429 934 
Q 1834 422 2522 422 
Q 3209 422 3611 934 
Q 4013 1447 4013 2328 
Q 4013 3213 3611 3725 
Q 3209 4238 2522 4238 
z
M 2522 4750 
Q 3503 4750 4090 4092 
Q 4678 3434 4678 2328 
Q 4678 1225 4090 567 
Q 3503 -91 2522 -91 
Q 1538 -91 948 565 
Q 359 1222 359 2328 
Q 359 3434 948 4092 
Q 1538 4750 2522 4750 
z
" transform="scale(0.015625)"/>
        <path id="DejaVuSans-6e" d="M 3513 2113 
L 3513 0 
L 2938 0 
L 2938 2094 
Q 2938 2591 2744 2837 
Q 2550 3084 2163 3084 
Q 1697 3084 1428 2787 
Q 1159 2491 1159 1978 
L 1159 0 
L 581 0 
L 581 3500 
L 1159 3500 
L 1159 2956 
Q 1366 3272 1645 3428 
Q 1925 3584 2291 3584 
Q 2894 3584 3203 3211 
Q 3513 2838 3513 2113 
z
" transform="scale(0.015625)"/>
       </defs>
       <use xlink:href="#DejaVuSans-4c"/>
       <use xlink:href="#DejaVuSans-65" x="53.962891"/>
       <use xlink:href="#DejaVuSans-61" x="115.486328"/>
       <use xlink:href="#DejaVuSans-76" x="176.765625"/>
       <use xlink:href="#DejaVuSans-65" x="235.945312"/>
       <use xlink:href="#DejaVuSans-20" x="297.46875"/>
       <use xlink:href="#DejaVuSans-4f" x="329.255859"/>
       <use xlink:href="#DejaVuSans-6e" x="407.966797"/>
       <use xlink:href="#DejaVuSans-65" x="471.345703"/>
      </g>
      <!-- Subject Out -->
      <g transform="translate(364.81588 538.43625) scale(0.1 -0.1)">
       <use xlink:href="#DejaVuSans-53"/>
       <use xlink:href="#DejaVuSans-75" x="63.476562"/>
       <use xlink:href="#DejaVuSans-62" x="126.855469"/>
       <use xlink:href="#DejaVuSans-6a" x="190.332031"/>
       <use xlink:href="#DejaVuSans-65" x="218.115234"/>
       <use xlink:href="#DejaVuSans-63" x="279.638672"/>
       <use xlink:href="#DejaVuSans-74" x="334.619141"/>
       <use xlink:href="#DejaVuSans-20" x="373.828125"/>
       <use xlink:href="#DejaVuSans-4f" x="405.615234"/>
       <use xlink:href="#DejaVuSans-75" x="484.326172"/>
       <use xlink:href="#DejaVuSans-74" x="547.705078"/>
      </g>
     </g>
    </g>
    <g id="xtick_4">
     <g id="line2d_4">
      <g>
       <use xlink:href="#mb5bee6656d" x="507.151572" y="512.64" style="stroke: #000000; stroke-width: 0.8"/>
      </g>
     </g>
     <g id="text_4">
      <!-- Cluster 1 -->
      <g transform="translate(484.635166 527.238438) scale(0.1 -0.1)">
       <defs>
        <path id="DejaVuSans-43" d="M 4122 4306 
L 4122 3641 
Q 3803 3938 3442 4084 
Q 3081 4231 2675 4231 
Q 1875 4231 1450 3742 
Q 1025 3253 1025 2328 
Q 1025 1406 1450 917 
Q 1875 428 2675 428 
Q 3081 428 3442 575 
Q 3803 722 4122 1019 
L 4122 359 
Q 3791 134 3420 21 
Q 3050 -91 2638 -91 
Q 1578 -91 968 557 
Q 359 1206 359 2328 
Q 359 3453 968 4101 
Q 1578 4750 2638 4750 
Q 3056 4750 3426 4639 
Q 3797 4528 4122 4306 
z
" transform="scale(0.015625)"/>
        <path id="DejaVuSans-72" d="M 2631 2963 
Q 2534 3019 2420 3045 
Q 2306 3072 2169 3072 
Q 1681 3072 1420 2755 
Q 1159 2438 1159 1844 
L 1159 0 
L 581 0 
L 581 3500 
L 1159 3500 
L 1159 2956 
Q 1341 3275 1631 3429 
Q 1922 3584 2338 3584 
Q 2397 3584 2469 3576 
Q 2541 3569 2628 3553 
L 2631 2963 
z
" transform="scale(0.015625)"/>
        <path id="DejaVuSans-31" d="M 794 531 
L 1825 531 
L 1825 4091 
L 703 3866 
L 703 4441 
L 1819 4666 
L 2450 4666 
L 2450 531 
L 3481 531 
L 3481 0 
L 794 0 
L 794 531 
z
" transform="scale(0.015625)"/>
       </defs>
       <use xlink:href="#DejaVuSans-43"/>
       <use xlink:href="#DejaVuSans-6c" x="69.824219"/>
       <use xlink:href="#DejaVuSans-75" x="97.607422"/>
       <use xlink:href="#DejaVuSans-73" x="160.986328"/>
       <use xlink:href="#DejaVuSans-74" x="213.085938"/>
       <use xlink:href="#DejaVuSans-65" x="252.294922"/>
       <use xlink:href="#DejaVuSans-72" x="313.818359"/>
       <use xlink:href="#DejaVuSans-20" x="354.931641"/>
       <use xlink:href="#DejaVuSans-31" x="386.71875"/>
      </g>
     </g>
    </g>
    <g id="xtick_5">
     <g id="line2d_5">
      <g>
       <use xlink:href="#mb5bee6656d" x="620.141171" y="512.64" style="stroke: #000000; stroke-width: 0.8"/>
      </g>
     </g>
     <g id="text_5">
      <!-- Cluster 2 -->
      <g transform="translate(597.624765 527.238438) scale(0.1 -0.1)">
       <defs>
        <path id="DejaVuSans-32" d="M 1228 531 
L 3431 531 
L 3431 0 
L 469 0 
L 469 531 
Q 828 903 1448 1529 
Q 2069 2156 2228 2338 
Q 2531 2678 2651 2914 
Q 2772 3150 2772 3378 
Q 2772 3750 2511 3984 
Q 2250 4219 1831 4219 
Q 1534 4219 1204 4116 
Q 875 4013 500 3803 
L 500 4441 
Q 881 4594 1212 4672 
Q 1544 4750 1819 4750 
Q 2544 4750 2975 4387 
Q 3406 4025 3406 3419 
Q 3406 3131 3298 2873 
Q 3191 2616 2906 2266 
Q 2828 2175 2409 1742 
Q 1991 1309 1228 531 
z
" transform="scale(0.015625)"/>
       </defs>
       <use xlink:href="#DejaVuSans-43"/>
       <use xlink:href="#DejaVuSans-6c" x="69.824219"/>
       <use xlink:href="#DejaVuSans-75" x="97.607422"/>
       <use xlink:href="#DejaVuSans-73" x="160.986328"/>
       <use xlink:href="#DejaVuSans-74" x="213.085938"/>
       <use xlink:href="#DejaVuSans-65" x="252.294922"/>
       <use xlink:href="#DejaVuSans-72" x="313.818359"/>
       <use xlink:href="#DejaVuSans-20" x="354.931641"/>
       <use xlink:href="#DejaVuSans-32" x="386.71875"/>
      </g>
     </g>
    </g>
    <g id="xtick_6">
     <g id="line2d_6">
      <g>
       <use xlink:href="#mb5bee6656d" x="733.13077" y="512.64" style="stroke: #000000; stroke-width: 0.8"/>
      </g>
     </g>
     <g id="text_6">
      <!-- Cluster 3 -->
      <g transform="translate(710.614364 527.238438) scale(0.1 -0.1)">
       <defs>
        <path id="DejaVuSans-33" d="M 2597 2516 
Q 3050 2419 3304 2112 
Q 3559 1806 3559 1356 
Q 3559 666 3084 287 
Q 2609 -91 1734 -91 
Q 1441 -91 1130 -33 
Q 819 25 488 141 
L 488 750 
Q 750 597 1062 519 
Q 1375 441 1716 441 
Q 2309 441 2620 675 
Q 2931 909 2931 1356 
Q 2931 1769 2642 2001 
Q 2353 2234 1838 2234 
L 1294 2234 
L 1294 2753 
L 1863 2753 
Q 2328 2753 2575 2939 
Q 2822 3125 2822 3475 
Q 2822 3834 2567 4026 
Q 2313 4219 1838 4219 
Q 1578 4219 1281 4162 
Q 984 4106 628 3988 
L 628 4550 
Q 988 4650 1302 4700 
Q 1616 4750 1894 4750 
Q 2613 4750 3031 4423 
Q 3450 4097 3450 3541 
Q 3450 3153 3228 2886 
Q 3006 2619 2597 2516 
z
" transform="scale(0.015625)"/>
       </defs>
       <use xlink:href="#DejaVuSans-43"/>
       <use xlink:href="#DejaVuSans-6c" x="69.824219"/>
       <use xlink:href="#DejaVuSans-75" x="97.607422"/>
       <use xlink:href="#DejaVuSans-73" x="160.986328"/>
       <use xlink:href="#DejaVuSans-74" x="213.085938"/>
       <use xlink:href="#DejaVuSans-65" x="252.294922"/>
       <use xlink:href="#DejaVuSans-72" x="313.818359"/>
       <use xlink:href="#DejaVuSans-20" x="354.931641"/>
       <use xlink:href="#DejaVuSans-33" x="386.71875"/>
      </g>
     </g>
    </g>
   </g>
   <g id="matplotlib.axis_2">
    <g id="ytick_1">
     <g id="line2d_7">
      <defs>
       <path id="m16a94c8fcf" d="M 0 0 
L -3.5 0 
" style="stroke: #000000; stroke-width: 0.8"/>
      </defs>
      <g>
       <use xlink:href="#m16a94c8fcf" x="108" y="512.64" style="stroke: #000000; stroke-width: 0.8"/>
      </g>
     </g>
     <g id="text_7">
      <!-- 0 -->
      <g transform="translate(94.6375 516.439219) scale(0.1 -0.1)">
       <defs>
        <path id="DejaVuSans-30" d="M 2034 4250 
Q 1547 4250 1301 3770 
Q 1056 3291 1056 2328 
Q 1056 1369 1301 889 
Q 1547 409 2034 409 
Q 2525 409 2770 889 
Q 3016 1369 3016 2328 
Q 3016 3291 2770 3770 
Q 2525 4250 2034 4250 
z
M 2034 4750 
Q 2819 4750 3233 4129 
Q 3647 3509 3647 2328 
Q 3647 1150 3233 529 
Q 2819 -91 2034 -91 
Q 1250 -91 836 529 
Q 422 1150 422 2328 
Q 422 3509 836 4129 
Q 1250 4750 2034 4750 
z
" transform="scale(0.015625)"/>
       </defs>
       <use xlink:href="#DejaVuSans-30"/>
      </g>
     </g>
    </g>
    <g id="ytick_2">
     <g id="line2d_8">
      <g>
       <use xlink:href="#m16a94c8fcf" x="108" y="432" style="stroke: #000000; stroke-width: 0.8"/>
      </g>
     </g>
     <g id="text_8">
      <!-- 20 -->
      <g transform="translate(88.275 435.799219) scale(0.1 -0.1)">
       <use xlink:href="#DejaVuSans-32"/>
       <use xlink:href="#DejaVuSans-30" x="63.623047"/>
      </g>
     </g>
    </g>
    <g id="ytick_3">
     <g id="line2d_9">
      <g>
       <use xlink:href="#m16a94c8fcf" x="108" y="351.36" style="stroke: #000000; stroke-width: 0.8"/>
      </g>
     </g>
     <g id="text_9">
      <!-- 40 -->
      <g transform="translate(88.275 355.159219) scale(0.1 -0.1)">
       <defs>
        <path id="DejaVuSans-34" d="M 2419 4116 
L 825 1625 
L 2419 1625 
L 2419 4116 
z
M 2253 4666 
L 3047 4666 
L 3047 1625 
L 3713 1625 
L 3713 1100 
L 3047 1100 
L 3047 0 
L 2419 0 
L 2419 1100 
L 313 1100 
L 313 1709 
L 2253 4666 
z
" transform="scale(0.015625)"/>
       </defs>
       <use xlink:href="#DejaVuSans-34"/>
       <use xlink:href="#DejaVuSans-30" x="63.623047"/>
      </g>
     </g>
    </g>
    <g id="ytick_4">
     <g id="line2d_10">
      <g>
       <use xlink:href="#m16a94c8fcf" x="108" y="270.72" style="stroke: #000000; stroke-width: 0.8"/>
      </g>
     </g>
     <g id="text_10">
      <!-- 60 -->
      <g transform="translate(88.275 274.519219) scale(0.1 -0.1)">
       <defs>
        <path id="DejaVuSans-36" d="M 2113 2584 
Q 1688 2584 1439 2293 
Q 1191 2003 1191 1497 
Q 1191 994 1439 701 
Q 1688 409 2113 409 
Q 2538 409 2786 701 
Q 3034 994 3034 1497 
Q 3034 2003 2786 2293 
Q 2538 2584 2113 2584 
z
M 3366 4563 
L 3366 3988 
Q 3128 4100 2886 4159 
Q 2644 4219 2406 4219 
Q 1781 4219 1451 3797 
Q 1122 3375 1075 2522 
Q 1259 2794 1537 2939 
Q 1816 3084 2150 3084 
Q 2853 3084 3261 2657 
Q 3669 2231 3669 1497 
Q 3669 778 3244 343 
Q 2819 -91 2113 -91 
Q 1303 -91 875 529 
Q 447 1150 447 2328 
Q 447 3434 972 4092 
Q 1497 4750 2381 4750 
Q 2619 4750 2861 4703 
Q 3103 4656 3366 4563 
z
" transform="scale(0.015625)"/>
       </defs>
       <use xlink:href="#DejaVuSans-36"/>
       <use xlink:href="#DejaVuSans-30" x="63.623047"/>
      </g>
     </g>
    </g>
    <g id="ytick_5">
     <g id="line2d_11">
      <g>
       <use xlink:href="#m16a94c8fcf" x="108" y="190.08" style="stroke: #000000; stroke-width: 0.8"/>
      </g>
     </g>
     <g id="text_11">
      <!-- 80 -->
      <g transform="translate(88.275 193.879219) scale(0.1 -0.1)">
       <defs>
        <path id="DejaVuSans-38" d="M 2034 2216 
Q 1584 2216 1326 1975 
Q 1069 1734 1069 1313 
Q 1069 891 1326 650 
Q 1584 409 2034 409 
Q 2484 409 2743 651 
Q 3003 894 3003 1313 
Q 3003 1734 2745 1975 
Q 2488 2216 2034 2216 
z
M 1403 2484 
Q 997 2584 770 2862 
Q 544 3141 544 3541 
Q 544 4100 942 4425 
Q 1341 4750 2034 4750 
Q 2731 4750 3128 4425 
Q 3525 4100 3525 3541 
Q 3525 3141 3298 2862 
Q 3072 2584 2669 2484 
Q 3125 2378 3379 2068 
Q 3634 1759 3634 1313 
Q 3634 634 3220 271 
Q 2806 -91 2034 -91 
Q 1263 -91 848 271 
Q 434 634 434 1313 
Q 434 1759 690 2068 
Q 947 2378 1403 2484 
z
M 1172 3481 
Q 1172 3119 1398 2916 
Q 1625 2713 2034 2713 
Q 2441 2713 2670 2916 
Q 2900 3119 2900 3481 
Q 2900 3844 2670 4047 
Q 2441 4250 2034 4250 
Q 1625 4250 1398 4047 
Q 1172 3844 1172 3481 
z
" transform="scale(0.015625)"/>
       </defs>
       <use xlink:href="#DejaVuSans-38"/>
       <use xlink:href="#DejaVuSans-30" x="63.623047"/>
      </g>
     </g>
    </g>
    <g id="ytick_6">
     <g id="line2d_12">
      <g>
       <use xlink:href="#m16a94c8fcf" x="108" y="109.44" style="stroke: #000000; stroke-width: 0.8"/>
      </g>
     </g>
     <g id="text_12">
      <!-- 100 -->
      <g transform="translate(81.9125 113.239219) scale(0.1 -0.1)">
       <use xlink:href="#DejaVuSans-31"/>
       <use xlink:href="#DejaVuSans-30" x="63.623047"/>
       <use xlink:href="#DejaVuSans-30" x="127.246094"/>
      </g>
     </g>
    </g>
    <g id="text_13">
     <!-- Accuracy (%) -->
     <g transform="translate(75.000937 337.177344) rotate(-90) scale(0.14 -0.14)">
      <defs>
       <path id="DejaVuSans-79" d="M 2059 -325 
Q 1816 -950 1584 -1140 
Q 1353 -1331 966 -1331 
L 506 -1331 
L 506 -850 
L 844 -850 
Q 1081 -850 1212 -737 
Q 1344 -625 1503 -206 
L 1606 56 
L 191 3500 
L 800 3500 
L 1894 763 
L 2988 3500 
L 3597 3500 
L 2059 -325 
z
" transform="scale(0.015625)"/>
       <path id="DejaVuSans-28" d="M 1984 4856 
Q 1566 4138 1362 3434 
Q 1159 2731 1159 2009 
Q 1159 1288 1364 580 
Q 1569 -128 1984 -844 
L 1484 -844 
Q 1016 -109 783 600 
Q 550 1309 550 2009 
Q 550 2706 781 3412 
Q 1013 4119 1484 4856 
L 1984 4856 
z
" transform="scale(0.015625)"/>
       <path id="DejaVuSans-25" d="M 4653 2053 
Q 4381 2053 4226 1822 
Q 4072 1591 4072 1178 
Q 4072 772 4226 539 
Q 4381 306 4653 306 
Q 4919 306 5073 539 
Q 5228 772 5228 1178 
Q 5228 1588 5073 1820 
Q 4919 2053 4653 2053 
z
M 4653 2450 
Q 5147 2450 5437 2106 
Q 5728 1763 5728 1178 
Q 5728 594 5436 251 
Q 5144 -91 4653 -91 
Q 4153 -91 3862 251 
Q 3572 594 3572 1178 
Q 3572 1766 3864 2108 
Q 4156 2450 4653 2450 
z
M 1428 4353 
Q 1159 4353 1004 4120 
Q 850 3888 850 3481 
Q 850 3069 1003 2837 
Q 1156 2606 1428 2606 
Q 1700 2606 1854 2837 
Q 2009 3069 2009 3481 
Q 2009 3884 1853 4118 
Q 1697 4353 1428 4353 
z
M 4250 4750 
L 4750 4750 
L 1831 -91 
L 1331 -91 
L 4250 4750 
z
M 1428 4750 
Q 1922 4750 2215 4408 
Q 2509 4066 2509 3481 
Q 2509 2891 2217 2550 
Q 1925 2209 1428 2209 
Q 931 2209 642 2551 
Q 353 2894 353 3481 
Q 353 4063 643 4406 
Q 934 4750 1428 4750 
z
" transform="scale(0.015625)"/>
       <path id="DejaVuSans-29" d="M 513 4856 
L 1013 4856 
Q 1481 4119 1714 3412 
Q 1947 2706 1947 2009 
Q 1947 1309 1714 600 
Q 1481 -109 1013 -844 
L 513 -844 
Q 928 -128 1133 580 
Q 1338 1288 1338 2009 
Q 1338 2731 1133 3434 
Q 928 4138 513 4856 
z
" transform="scale(0.015625)"/>
      </defs>
      <use xlink:href="#DejaVuSans-41"/>
      <use xlink:href="#DejaVuSans-63" x="66.658203"/>
      <use xlink:href="#DejaVuSans-63" x="121.638672"/>
      <use xlink:href="#DejaVuSans-75" x="176.619141"/>
      <use xlink:href="#DejaVuSans-72" x="239.998047"/>
      <use xlink:href="#DejaVuSans-61" x="281.111328"/>
      <use xlink:href="#DejaVuSans-63" x="342.390625"/>
      <use xlink:href="#DejaVuSans-79" x="397.371094"/>
      <use xlink:href="#DejaVuSans-20" x="456.550781"/>
      <use xlink:href="#DejaVuSans-28" x="488.337891"/>
      <use xlink:href="#DejaVuSans-25" x="527.351562"/>
      <use xlink:href="#DejaVuSans-29" x="622.371094"/>
     </g>
    </g>
   </g>
   <g id="line2d_13">
    <path d="M 168.182776 306.08064 
L 168.182776 275.03424 
" clip-path="url(#pacfe813ef3)" style="fill: none; stroke: #3d3d3d; stroke-width: 1.5; stroke-linecap: square"/>
   </g>
   <g id="line2d_14">
    <path d="M 168.182776 298.86336 
L 168.182776 284.0256 
" clip-path="url(#pacfe813ef3)" style="fill: none; stroke: #3d3d3d; stroke-width: 4.5; stroke-linecap: square"/>
   </g>
   <g id="line2d_15">
    <path d="M 281.172374 296.56512 
L 281.172374 292.12992 
" clip-path="url(#pacfe813ef3)" style="fill: none; stroke: #3d3d3d; stroke-width: 1.5; stroke-linecap: square"/>
   </g>
   <g id="line2d_16">
    <path d="M 281.172374 296.56512 
L 281.172374 292.12992 
" clip-path="url(#pacfe813ef3)" style="fill: none; stroke: #3d3d3d; stroke-width: 4.5; stroke-linecap: square"/>
   </g>
   <g id="line2d_17">
    <path d="M 394.161973 446.99904 
L 394.161973 317.85408 
" clip-path="url(#pacfe813ef3)" style="fill: none; stroke: #3d3d3d; stroke-width: 1.5; stroke-linecap: square"/>
   </g>
   <g id="line2d_18">
    <path d="M 394.161973 397.16352 
L 394.161973 356.17824 
" clip-path="url(#pacfe813ef3)" style="fill: none; stroke: #3d3d3d; stroke-width: 4.5; stroke-linecap: square"/>
   </g>
   <g id="line2d_19">
    <path d="M 507.151572 349.38432 
L 507.151572 306.84672 
" clip-path="url(#pacfe813ef3)" style="fill: none; stroke: #3d3d3d; stroke-width: 1.5; stroke-linecap: square"/>
   </g>
   <g id="line2d_20">
    <path d="M 507.151572 338.74992 
L 507.151572 317.48112 
" clip-path="url(#pacfe813ef3)" style="fill: none; stroke: #3d3d3d; stroke-width: 4.5; stroke-linecap: square"/>
   </g>
   <g id="line2d_21">
    <path d="M 620.141171 440.8704 
L 620.141171 342.4896 
" clip-path="url(#pacfe813ef3)" style="fill: none; stroke: #3d3d3d; stroke-width: 1.5; stroke-linecap: square"/>
   </g>
   <g id="line2d_22">
    <path d="M 620.141171 437.76576 
L 620.141171 377.08416 
" clip-path="url(#pacfe813ef3)" style="fill: none; stroke: #3d3d3d; stroke-width: 4.5; stroke-linecap: square"/>
   </g>
   <g id="line2d_23">
    <path d="M 733.13077 334.46592 
L 733.13077 262.21248 
" clip-path="url(#pacfe813ef3)" style="fill: none; stroke: #3d3d3d; stroke-width: 1.5; stroke-linecap: square"/>
   </g>
   <g id="line2d_24">
    <path d="M 733.13077 319.46688 
L 733.13077 293.96448 
" clip-path="url(#pacfe813ef3)" style="fill: none; stroke: #3d3d3d; stroke-width: 4.5; stroke-linecap: square"/>
   </g>
   <g id="line2d_25">
    <path d="M 168.182776 253.355962 
L 168.182776 247.03035 
L 281.172374 247.03035 
L 281.172374 253.355962 
" clip-path="url(#pacfe813ef3)" style="fill: none; stroke: #333333; stroke-width: 1.5; stroke-linecap: square"/>
   </g>
   <g id="line2d_26">
    <path d="M 281.172374 223.315007 
L 281.172374 216.989395 
L 394.161973 216.989395 
L 394.161973 223.315007 
" clip-path="url(#pacfe813ef3)" style="fill: none; stroke: #333333; stroke-width: 1.5; stroke-linecap: square"/>
   </g>
   <g id="line2d_27">
    <path d="M 394.161973 193.274052 
L 394.161973 186.94844 
L 507.151572 186.94844 
L 507.151572 193.274052 
" clip-path="url(#pacfe813ef3)" style="fill: none; stroke: #333333; stroke-width: 1.5; stroke-linecap: square"/>
   </g>
   <g id="line2d_28">
    <path d="M 168.182776 162.43373 
L 168.182776 156.108117 
L 394.161973 156.108117 
L 394.161973 162.43373 
" clip-path="url(#pacfe813ef3)" style="fill: none; stroke: #333333; stroke-width: 1.5; stroke-linecap: square"/>
   </g>
   <g id="line2d_29">
    <path d="M 394.161973 130.74591 
L 394.161973 124.420298 
L 620.141171 124.420298 
L 620.141171 130.74591 
" clip-path="url(#pacfe813ef3)" style="fill: none; stroke: #333333; stroke-width: 1.5; stroke-linecap: square"/>
   </g>
   <g id="line2d_30">
    <path d="M 394.161973 98.187305 
L 394.161973 91.861692 
L 733.13077 91.861692 
L 733.13077 98.187305 
" clip-path="url(#pacfe813ef3)" style="fill: none; stroke: #333333; stroke-width: 1.5; stroke-linecap: square"/>
   </g>
   <g id="line2d_31">
    <path d="M 108 462.24 
L 777.6 462.24 
" clip-path="url(#pacfe813ef3)" style="fill: none; stroke-dasharray: 5.55,2.4; stroke-dashoffset: 0; stroke: #ff0000; stroke-width: 1.5"/>
   </g>
   <g id="patch_3">
    <path d="M 108 512.64 
L 108 69.12 
" style="fill: none; stroke: #000000; stroke-width: 0.8; stroke-linejoin: miter; stroke-linecap: square"/>
   </g>
   <g id="patch_4">
    <path d="M 777.6 512.64 
L 777.6 69.12 
" style="fill: none; stroke: #000000; stroke-width: 0.8; stroke-linejoin: miter; stroke-linecap: square"/>
   </g>
   <g id="patch_5">
    <path d="M 108 512.64 
L 777.6 512.64 
" style="fill: none; stroke: #000000; stroke-width: 0.8; stroke-linejoin: miter; stroke-linecap: square"/>
   </g>
   <g id="patch_6">
    <path d="M 108 69.12 
L 777.6 69.12 
" style="fill: none; stroke: #000000; stroke-width: 0.8; stroke-linejoin: miter; stroke-linecap: square"/>
   </g>
   <g id="PathCollection_1">
    <defs>
     <path id="mae43f013a2" d="M 0 1.5 
C 0.397805 1.5 0.77937 1.341951 1.06066 1.06066 
C 1.341951 0.77937 1.5 0.397805 1.5 0 
C 1.5 -0.397805 1.341951 -0.77937 1.06066 -1.06066 
C 0.77937 -1.341951 0.397805 -1.5 0 -1.5 
C -0.397805 -1.5 -0.77937 -1.341951 -1.06066 -1.06066 
C -1.341951 -0.77937 -1.5 -0.397805 -1.5 0 
C -1.5 0.397805 -1.341951 0.77937 -1.06066 1.06066 
C -0.77937 1.341951 -0.397805 1.5 0 1.5 
z
" style="stroke: #3d3d3d"/>
    </defs>
    <g clip-path="url(#pacfe813ef3)">
     <use xlink:href="#mae43f013a2" x="168.182776" y="296.56512" style="fill: #ffffff; stroke: #3d3d3d"/>
    </g>
   </g>
   <g id="PathCollection_2">
    <g clip-path="url(#pacfe813ef3)">
     <use xlink:href="#mae43f013a2" x="281.172374" y="295.27488" style="fill: #ffffff; stroke: #3d3d3d"/>
    </g>
   </g>
   <g id="PathCollection_3">
    <g clip-path="url(#pacfe813ef3)">
     <use xlink:href="#mae43f013a2" x="394.161973" y="373.89888" style="fill: #ffffff; stroke: #3d3d3d"/>
    </g>
   </g>
   <g id="PathCollection_4">
    <g clip-path="url(#pacfe813ef3)">
     <use xlink:href="#mae43f013a2" x="507.151572" y="328.11552" style="fill: #ffffff; stroke: #3d3d3d"/>
    </g>
   </g>
   <g id="PathCollection_5">
    <g clip-path="url(#pacfe813ef3)">
     <use xlink:href="#mae43f013a2" x="620.141171" y="425.87136" style="fill: #ffffff; stroke: #3d3d3d"/>
    </g>
   </g>
   <g id="PathCollection_6">
    <g clip-path="url(#pacfe813ef3)">
     <use xlink:href="#mae43f013a2" x="733.13077" y="309.50784" style="fill: #ffffff; stroke: #3d3d3d"/>
    </g>
   </g>
   <g id="text_14">
    <!-- p = 1.00 -->
    <g transform="translate(203.002575 243.950662) scale(0.1 -0.1)">
     <defs>
      <path id="DejaVuSans-70" d="M 1159 525 
L 1159 -1331 
L 581 -1331 
L 581 3500 
L 1159 3500 
L 1159 2969 
Q 1341 3281 1617 3432 
Q 1894 3584 2278 3584 
Q 2916 3584 3314 3078 
Q 3713 2572 3713 1747 
Q 3713 922 3314 415 
Q 2916 -91 2278 -91 
Q 1894 -91 1617 61 
Q 1341 213 1159 525 
z
M 3116 1747 
Q 3116 2381 2855 2742 
Q 2594 3103 2138 3103 
Q 1681 3103 1420 2742 
Q 1159 2381 1159 1747 
Q 1159 1113 1420 752 
Q 1681 391 2138 391 
Q 2594 391 2855 752 
Q 3116 1113 3116 1747 
z
" transform="scale(0.015625)"/>
      <path id="DejaVuSans-3d" d="M 678 2906 
L 4684 2906 
L 4684 2381 
L 678 2381 
L 678 2906 
z
M 678 1631 
L 4684 1631 
L 4684 1100 
L 678 1100 
L 678 1631 
z
" transform="scale(0.015625)"/>
      <path id="DejaVuSans-2e" d="M 684 794 
L 1344 794 
L 1344 0 
L 684 0 
L 684 794 
z
" transform="scale(0.015625)"/>
     </defs>
     <use xlink:href="#DejaVuSans-70"/>
     <use xlink:href="#DejaVuSans-20" x="63.476562"/>
     <use xlink:href="#DejaVuSans-3d" x="95.263672"/>
     <use xlink:href="#DejaVuSans-20" x="179.052734"/>
     <use xlink:href="#DejaVuSans-31" x="210.839844"/>
     <use xlink:href="#DejaVuSans-2e" x="274.462891"/>
     <use xlink:href="#DejaVuSans-30" x="306.25"/>
     <use xlink:href="#DejaVuSans-30" x="369.873047"/>
    </g>
   </g>
   <g id="text_15">
    <!-- p  0.01 -->
    <g transform="translate(315.992174 213.909707) scale(0.1 -0.1)">
     <defs>
      <path id="DejaVuSans-2264" d="M 4684 3175 
L 1684 2309 
L 4684 1453 
L 4684 897 
L 678 2047 
L 678 2578 
L 4684 3725 
L 4684 3175 
z
M 678 531 
L 4684 531 
L 4684 0 
L 678 0 
L 678 531 
z
" transform="scale(0.015625)"/>
     </defs>
     <use xlink:href="#DejaVuSans-70"/>
     <use xlink:href="#DejaVuSans-20" x="63.476562"/>
     <use xlink:href="#DejaVuSans-2264" x="95.263672"/>
     <use xlink:href="#DejaVuSans-20" x="179.052734"/>
     <use xlink:href="#DejaVuSans-30" x="210.839844"/>
     <use xlink:href="#DejaVuSans-2e" x="274.462891"/>
     <use xlink:href="#DejaVuSans-30" x="306.25"/>
     <use xlink:href="#DejaVuSans-31" x="369.873047"/>
    </g>
   </g>
   <g id="text_16">
    <!-- p = 0.92 -->
    <g transform="translate(428.981773 183.868752) scale(0.1 -0.1)">
     <defs>
      <path id="DejaVuSans-39" d="M 703 97 
L 703 672 
Q 941 559 1184 500 
Q 1428 441 1663 441 
Q 2288 441 2617 861 
Q 2947 1281 2994 2138 
Q 2813 1869 2534 1725 
Q 2256 1581 1919 1581 
Q 1219 1581 811 2004 
Q 403 2428 403 3163 
Q 403 3881 828 4315 
Q 1253 4750 1959 4750 
Q 2769 4750 3195 4129 
Q 3622 3509 3622 2328 
Q 3622 1225 3098 567 
Q 2575 -91 1691 -91 
Q 1453 -91 1209 -44 
Q 966 3 703 97 
z
M 1959 2075 
Q 2384 2075 2632 2365 
Q 2881 2656 2881 3163 
Q 2881 3666 2632 3958 
Q 2384 4250 1959 4250 
Q 1534 4250 1286 3958 
Q 1038 3666 1038 3163 
Q 1038 2656 1286 2365 
Q 1534 2075 1959 2075 
z
" transform="scale(0.015625)"/>
     </defs>
     <use xlink:href="#DejaVuSans-70"/>
     <use xlink:href="#DejaVuSans-20" x="63.476562"/>
     <use xlink:href="#DejaVuSans-3d" x="95.263672"/>
     <use xlink:href="#DejaVuSans-20" x="179.052734"/>
     <use xlink:href="#DejaVuSans-30" x="210.839844"/>
     <use xlink:href="#DejaVuSans-2e" x="274.462891"/>
     <use xlink:href="#DejaVuSans-39" x="306.25"/>
     <use xlink:href="#DejaVuSans-32" x="369.873047"/>
    </g>
   </g>
   <g id="text_17">
    <!-- p  0.01 -->
    <g transform="translate(259.497374 153.02843) scale(0.1 -0.1)">
     <use xlink:href="#DejaVuSans-70"/>
     <use xlink:href="#DejaVuSans-20" x="63.476562"/>
     <use xlink:href="#DejaVuSans-2264" x="95.263672"/>
     <use xlink:href="#DejaVuSans-20" x="179.052734"/>
     <use xlink:href="#DejaVuSans-30" x="210.839844"/>
     <use xlink:href="#DejaVuSans-2e" x="274.462891"/>
     <use xlink:href="#DejaVuSans-30" x="306.25"/>
     <use xlink:href="#DejaVuSans-31" x="369.873047"/>
    </g>
   </g>
   <g id="text_18">
    <!-- p = 1.00 -->
    <g transform="translate(485.476572 121.34061) scale(0.1 -0.1)">
     <use xlink:href="#DejaVuSans-70"/>
     <use xlink:href="#DejaVuSans-20" x="63.476562"/>
     <use xlink:href="#DejaVuSans-3d" x="95.263672"/>
     <use xlink:href="#DejaVuSans-20" x="179.052734"/>
     <use xlink:href="#DejaVuSans-31" x="210.839844"/>
     <use xlink:href="#DejaVuSans-2e" x="274.462891"/>
     <use xlink:href="#DejaVuSans-30" x="306.25"/>
     <use xlink:href="#DejaVuSans-30" x="369.873047"/>
    </g>
   </g>
   <g id="text_19">
    <!-- p = 0.11 -->
    <g transform="translate(541.971372 88.782005) scale(0.1 -0.1)">
     <use xlink:href="#DejaVuSans-70"/>
     <use xlink:href="#DejaVuSans-20" x="63.476562"/>
     <use xlink:href="#DejaVuSans-3d" x="95.263672"/>
     <use xlink:href="#DejaVuSans-20" x="179.052734"/>
     <use xlink:href="#DejaVuSans-30" x="210.839844"/>
     <use xlink:href="#DejaVuSans-2e" x="274.462891"/>
     <use xlink:href="#DejaVuSans-31" x="306.25"/>
     <use xlink:href="#DejaVuSans-31" x="369.873047"/>
    </g>
   </g>
   <g id="text_20">
    <!-- Comparison of Best Classification Accuracies Across Different Setups -->
    <g transform="translate(166.94375 63.12) scale(0.16 -0.16)">
     <defs>
      <path id="DejaVuSans-6f" d="M 1959 3097 
Q 1497 3097 1228 2736 
Q 959 2375 959 1747 
Q 959 1119 1226 758 
Q 1494 397 1959 397 
Q 2419 397 2687 759 
Q 2956 1122 2956 1747 
Q 2956 2369 2687 2733 
Q 2419 3097 1959 3097 
z
M 1959 3584 
Q 2709 3584 3137 3096 
Q 3566 2609 3566 1747 
Q 3566 888 3137 398 
Q 2709 -91 1959 -91 
Q 1206 -91 779 398 
Q 353 888 353 1747 
Q 353 2609 779 3096 
Q 1206 3584 1959 3584 
z
" transform="scale(0.015625)"/>
      <path id="DejaVuSans-6d" d="M 3328 2828 
Q 3544 3216 3844 3400 
Q 4144 3584 4550 3584 
Q 5097 3584 5394 3201 
Q 5691 2819 5691 2113 
L 5691 0 
L 5113 0 
L 5113 2094 
Q 5113 2597 4934 2840 
Q 4756 3084 4391 3084 
Q 3944 3084 3684 2787 
Q 3425 2491 3425 1978 
L 3425 0 
L 2847 0 
L 2847 2094 
Q 2847 2600 2669 2842 
Q 2491 3084 2119 3084 
Q 1678 3084 1418 2786 
Q 1159 2488 1159 1978 
L 1159 0 
L 581 0 
L 581 3500 
L 1159 3500 
L 1159 2956 
Q 1356 3278 1631 3431 
Q 1906 3584 2284 3584 
Q 2666 3584 2933 3390 
Q 3200 3197 3328 2828 
z
" transform="scale(0.015625)"/>
      <path id="DejaVuSans-69" d="M 603 3500 
L 1178 3500 
L 1178 0 
L 603 0 
L 603 3500 
z
M 603 4863 
L 1178 4863 
L 1178 4134 
L 603 4134 
L 603 4863 
z
" transform="scale(0.015625)"/>
      <path id="DejaVuSans-66" d="M 2375 4863 
L 2375 4384 
L 1825 4384 
Q 1516 4384 1395 4259 
Q 1275 4134 1275 3809 
L 1275 3500 
L 2222 3500 
L 2222 3053 
L 1275 3053 
L 1275 0 
L 697 0 
L 697 3053 
L 147 3053 
L 147 3500 
L 697 3500 
L 697 3744 
Q 697 4328 969 4595 
Q 1241 4863 1831 4863 
L 2375 4863 
z
" transform="scale(0.015625)"/>
      <path id="DejaVuSans-42" d="M 1259 2228 
L 1259 519 
L 2272 519 
Q 2781 519 3026 730 
Q 3272 941 3272 1375 
Q 3272 1813 3026 2020 
Q 2781 2228 2272 2228 
L 1259 2228 
z
M 1259 4147 
L 1259 2741 
L 2194 2741 
Q 2656 2741 2882 2914 
Q 3109 3088 3109 3444 
Q 3109 3797 2882 3972 
Q 2656 4147 2194 4147 
L 1259 4147 
z
M 628 4666 
L 2241 4666 
Q 2963 4666 3353 4366 
Q 3744 4066 3744 3513 
Q 3744 3084 3544 2831 
Q 3344 2578 2956 2516 
Q 3422 2416 3680 2098 
Q 3938 1781 3938 1306 
Q 3938 681 3513 340 
Q 3088 0 2303 0 
L 628 0 
L 628 4666 
z
" transform="scale(0.015625)"/>
      <path id="DejaVuSans-44" d="M 1259 4147 
L 1259 519 
L 2022 519 
Q 2988 519 3436 956 
Q 3884 1394 3884 2338 
Q 3884 3275 3436 3711 
Q 2988 4147 2022 4147 
L 1259 4147 
z
M 628 4666 
L 1925 4666 
Q 3281 4666 3915 4102 
Q 4550 3538 4550 2338 
Q 4550 1131 3912 565 
Q 3275 0 1925 0 
L 628 0 
L 628 4666 
z
" transform="scale(0.015625)"/>
     </defs>
     <use xlink:href="#DejaVuSans-43"/>
     <use xlink:href="#DejaVuSans-6f" x="69.824219"/>
     <use xlink:href="#DejaVuSans-6d" x="131.005859"/>
     <use xlink:href="#DejaVuSans-70" x="228.417969"/>
     <use xlink:href="#DejaVuSans-61" x="291.894531"/>
     <use xlink:href="#DejaVuSans-72" x="353.173828"/>
     <use xlink:href="#DejaVuSans-69" x="394.287109"/>
     <use xlink:href="#DejaVuSans-73" x="422.070312"/>
     <use xlink:href="#DejaVuSans-6f" x="474.169922"/>
     <use xlink:href="#DejaVuSans-6e" x="535.351562"/>
     <use xlink:href="#DejaVuSans-20" x="598.730469"/>
     <use xlink:href="#DejaVuSans-6f" x="630.517578"/>
     <use xlink:href="#DejaVuSans-66" x="691.699219"/>
     <use xlink:href="#DejaVuSans-20" x="726.904297"/>
     <use xlink:href="#DejaVuSans-42" x="758.691406"/>
     <use xlink:href="#DejaVuSans-65" x="827.294922"/>
     <use xlink:href="#DejaVuSans-73" x="888.818359"/>
     <use xlink:href="#DejaVuSans-74" x="940.917969"/>
     <use xlink:href="#DejaVuSans-20" x="980.126953"/>
     <use xlink:href="#DejaVuSans-43" x="1011.914062"/>
     <use xlink:href="#DejaVuSans-6c" x="1081.738281"/>
     <use xlink:href="#DejaVuSans-61" x="1109.521484"/>
     <use xlink:href="#DejaVuSans-73" x="1170.800781"/>
     <use xlink:href="#DejaVuSans-73" x="1222.900391"/>
     <use xlink:href="#DejaVuSans-69" x="1275"/>
     <use xlink:href="#DejaVuSans-66" x="1302.783203"/>
     <use xlink:href="#DejaVuSans-69" x="1337.988281"/>
     <use xlink:href="#DejaVuSans-63" x="1365.771484"/>
     <use xlink:href="#DejaVuSans-61" x="1420.751953"/>
     <use xlink:href="#DejaVuSans-74" x="1482.03125"/>
     <use xlink:href="#DejaVuSans-69" x="1521.240234"/>
     <use xlink:href="#DejaVuSans-6f" x="1549.023438"/>
     <use xlink:href="#DejaVuSans-6e" x="1610.205078"/>
     <use xlink:href="#DejaVuSans-20" x="1673.583984"/>
     <use xlink:href="#DejaVuSans-41" x="1705.371094"/>
     <use xlink:href="#DejaVuSans-63" x="1772.029297"/>
     <use xlink:href="#DejaVuSans-63" x="1827.009766"/>
     <use xlink:href="#DejaVuSans-75" x="1881.990234"/>
     <use xlink:href="#DejaVuSans-72" x="1945.369141"/>
     <use xlink:href="#DejaVuSans-61" x="1986.482422"/>
     <use xlink:href="#DejaVuSans-63" x="2047.761719"/>
     <use xlink:href="#DejaVuSans-69" x="2102.742188"/>
     <use xlink:href="#DejaVuSans-65" x="2130.525391"/>
     <use xlink:href="#DejaVuSans-73" x="2192.048828"/>
     <use xlink:href="#DejaVuSans-20" x="2244.148438"/>
     <use xlink:href="#DejaVuSans-41" x="2275.935547"/>
     <use xlink:href="#DejaVuSans-63" x="2342.59375"/>
     <use xlink:href="#DejaVuSans-72" x="2397.574219"/>
     <use xlink:href="#DejaVuSans-6f" x="2436.4375"/>
     <use xlink:href="#DejaVuSans-73" x="2497.619141"/>
     <use xlink:href="#DejaVuSans-73" x="2549.71875"/>
     <use xlink:href="#DejaVuSans-20" x="2601.818359"/>
     <use xlink:href="#DejaVuSans-44" x="2633.605469"/>
     <use xlink:href="#DejaVuSans-69" x="2710.607422"/>
     <use xlink:href="#DejaVuSans-66" x="2738.390625"/>
     <use xlink:href="#DejaVuSans-66" x="2773.595703"/>
     <use xlink:href="#DejaVuSans-65" x="2808.800781"/>
     <use xlink:href="#DejaVuSans-72" x="2870.324219"/>
     <use xlink:href="#DejaVuSans-65" x="2909.1875"/>
     <use xlink:href="#DejaVuSans-6e" x="2970.710938"/>
     <use xlink:href="#DejaVuSans-74" x="3034.089844"/>
     <use xlink:href="#DejaVuSans-20" x="3073.298828"/>
     <use xlink:href="#DejaVuSans-53" x="3105.085938"/>
     <use xlink:href="#DejaVuSans-65" x="3168.5625"/>
     <use xlink:href="#DejaVuSans-74" x="3230.085938"/>
     <use xlink:href="#DejaVuSans-75" x="3269.294922"/>
     <use xlink:href="#DejaVuSans-70" x="3332.673828"/>
     <use xlink:href="#DejaVuSans-73" x="3396.150391"/>
    </g>
   </g>
   <g id="legend_1">
    <g id="patch_7">
     <path d="M 115 507.64 
L 214.015625 507.64 
Q 216.015625 507.64 216.015625 505.64 
L 216.015625 491.961875 
Q 216.015625 489.961875 214.015625 489.961875 
L 115 489.961875 
Q 113 489.961875 113 491.961875 
L 113 505.64 
Q 113 507.64 115 507.64 
z
" style="fill: #ffffff; opacity: 0.8; stroke: #cccccc; stroke-linejoin: miter"/>
    </g>
    <g id="line2d_32">
     <path d="M 117 498.060313 
L 127 498.060313 
L 137 498.060313 
" style="fill: none; stroke-dasharray: 5.55,2.4; stroke-dashoffset: 0; stroke: #ff0000; stroke-width: 1.5"/>
    </g>
    <g id="text_21">
     <!-- Chance Level -->
     <g transform="translate(145 501.560313) scale(0.1 -0.1)">
      <defs>
       <path id="DejaVuSans-68" d="M 3513 2113 
L 3513 0 
L 2938 0 
L 2938 2094 
Q 2938 2591 2744 2837 
Q 2550 3084 2163 3084 
Q 1697 3084 1428 2787 
Q 1159 2491 1159 1978 
L 1159 0 
L 581 0 
L 581 4863 
L 1159 4863 
L 1159 2956 
Q 1366 3272 1645 3428 
Q 1925 3584 2291 3584 
Q 2894 3584 3203 3211 
Q 3513 2838 3513 2113 
z
" transform="scale(0.015625)"/>
      </defs>
      <use xlink:href="#DejaVuSans-43"/>
      <use xlink:href="#DejaVuSans-68" x="69.824219"/>
      <use xlink:href="#DejaVuSans-61" x="133.203125"/>
      <use xlink:href="#DejaVuSans-6e" x="194.482422"/>
      <use xlink:href="#DejaVuSans-63" x="257.861328"/>
      <use xlink:href="#DejaVuSans-65" x="312.841797"/>
      <use xlink:href="#DejaVuSans-20" x="374.365234"/>
      <use xlink:href="#DejaVuSans-4c" x="406.152344"/>
      <use xlink:href="#DejaVuSans-65" x="460.115234"/>
      <use xlink:href="#DejaVuSans-76" x="521.638672"/>
      <use xlink:href="#DejaVuSans-65" x="580.818359"/>
      <use xlink:href="#DejaVuSans-6c" x="642.341797"/>
     </g>
    </g>
   </g>
  </g>
 </g>
 <defs>
  <clipPath id="pacfe813ef3">
   <rect x="108" y="69.12" width="669.6" height="443.52"/>
  </clipPath>
 </defs>
</svg>
